%TF.GenerationSoftware,KiCad,Pcbnew,8.0.4*%
%TF.CreationDate,2024-08-20T13:35:29+02:00*%
%TF.ProjectId,lagom_base,6c61676f-6d5f-4626-9173-652e6b696361,rev?*%
%TF.SameCoordinates,Original*%
%TF.FileFunction,Drillmap*%
%TF.FilePolarity,Positive*%
%FSLAX45Y45*%
G04 Gerber Fmt 4.5, Leading zero omitted, Abs format (unit mm)*
G04 Created by KiCad (PCBNEW 8.0.4) date 2024-08-20 13:35:29*
%MOMM*%
%LPD*%
G01*
G04 APERTURE LIST*
%ADD10C,0.150000*%
%ADD11C,0.200000*%
%ADD12C,0.320000*%
G04 APERTURE END LIST*
D10*
X36767500Y-18622500D02*
X36767500Y-6685000D01*
X4775000Y-6685000D02*
G75*
G02*
X5252500Y-6207500I477500J0D01*
G01*
X5252500Y-19100000D02*
G75*
G02*
X4775000Y-18622500I0J477500D01*
G01*
X36290000Y-6207500D02*
X5252500Y-6207500D01*
X36290000Y-6207500D02*
G75*
G02*
X36767500Y-6685000I0J-477500D01*
G01*
X5252500Y-19100000D02*
X36290000Y-19100000D01*
X4775000Y-6685000D02*
X4775000Y-18622500D01*
X36767500Y-18622500D02*
G75*
G02*
X36290000Y-19100000I-477500J0D01*
G01*
D11*
D12*
X5092500Y-9151250D02*
X5412500Y-9471250D01*
X5412500Y-9151250D02*
X5092500Y-9471250D01*
X5092500Y-13687500D02*
X5412500Y-14007500D01*
X5412500Y-13687500D02*
X5092500Y-14007500D01*
X5092500Y-18462500D02*
X5412500Y-18782500D01*
X5412500Y-18462500D02*
X5092500Y-18782500D01*
X12971250Y-18462500D02*
X13291250Y-18782500D01*
X13291250Y-18462500D02*
X12971250Y-18782500D01*
X20611250Y-18462500D02*
X20931250Y-18782500D01*
X20931250Y-18462500D02*
X20611250Y-18782500D01*
X28251250Y-18462500D02*
X28571250Y-18782500D01*
X28571250Y-18462500D02*
X28251250Y-18782500D01*
X36130000Y-9151250D02*
X36450000Y-9471250D01*
X36450000Y-9151250D02*
X36130000Y-9471250D01*
X36130000Y-13687500D02*
X36450000Y-14007500D01*
X36450000Y-13687500D02*
X36130000Y-14007500D01*
X36130000Y-18462500D02*
X36450000Y-18782500D01*
X36450000Y-18462500D02*
X36130000Y-18782500D01*
D11*
X5028277Y-19418984D02*
X5028277Y-19218984D01*
X5028277Y-19218984D02*
X5075896Y-19218984D01*
X5075896Y-19218984D02*
X5104467Y-19228508D01*
X5104467Y-19228508D02*
X5123515Y-19247555D01*
X5123515Y-19247555D02*
X5133039Y-19266603D01*
X5133039Y-19266603D02*
X5142563Y-19304698D01*
X5142563Y-19304698D02*
X5142563Y-19333270D01*
X5142563Y-19333270D02*
X5133039Y-19371365D01*
X5133039Y-19371365D02*
X5123515Y-19390412D01*
X5123515Y-19390412D02*
X5104467Y-19409460D01*
X5104467Y-19409460D02*
X5075896Y-19418984D01*
X5075896Y-19418984D02*
X5028277Y-19418984D01*
X5228277Y-19418984D02*
X5228277Y-19285650D01*
X5228277Y-19323746D02*
X5237801Y-19304698D01*
X5237801Y-19304698D02*
X5247324Y-19295174D01*
X5247324Y-19295174D02*
X5266372Y-19285650D01*
X5266372Y-19285650D02*
X5285420Y-19285650D01*
X5352086Y-19418984D02*
X5352086Y-19285650D01*
X5352086Y-19218984D02*
X5342563Y-19228508D01*
X5342563Y-19228508D02*
X5352086Y-19238031D01*
X5352086Y-19238031D02*
X5361610Y-19228508D01*
X5361610Y-19228508D02*
X5352086Y-19218984D01*
X5352086Y-19218984D02*
X5352086Y-19238031D01*
X5475896Y-19418984D02*
X5456848Y-19409460D01*
X5456848Y-19409460D02*
X5447324Y-19390412D01*
X5447324Y-19390412D02*
X5447324Y-19218984D01*
X5580658Y-19418984D02*
X5561610Y-19409460D01*
X5561610Y-19409460D02*
X5552086Y-19390412D01*
X5552086Y-19390412D02*
X5552086Y-19218984D01*
X5809229Y-19418984D02*
X5809229Y-19218984D01*
X5809229Y-19218984D02*
X5875896Y-19361841D01*
X5875896Y-19361841D02*
X5942562Y-19218984D01*
X5942562Y-19218984D02*
X5942562Y-19418984D01*
X6123515Y-19418984D02*
X6123515Y-19314222D01*
X6123515Y-19314222D02*
X6113991Y-19295174D01*
X6113991Y-19295174D02*
X6094943Y-19285650D01*
X6094943Y-19285650D02*
X6056848Y-19285650D01*
X6056848Y-19285650D02*
X6037801Y-19295174D01*
X6123515Y-19409460D02*
X6104467Y-19418984D01*
X6104467Y-19418984D02*
X6056848Y-19418984D01*
X6056848Y-19418984D02*
X6037801Y-19409460D01*
X6037801Y-19409460D02*
X6028277Y-19390412D01*
X6028277Y-19390412D02*
X6028277Y-19371365D01*
X6028277Y-19371365D02*
X6037801Y-19352317D01*
X6037801Y-19352317D02*
X6056848Y-19342793D01*
X6056848Y-19342793D02*
X6104467Y-19342793D01*
X6104467Y-19342793D02*
X6123515Y-19333270D01*
X6218753Y-19285650D02*
X6218753Y-19485650D01*
X6218753Y-19295174D02*
X6237801Y-19285650D01*
X6237801Y-19285650D02*
X6275896Y-19285650D01*
X6275896Y-19285650D02*
X6294943Y-19295174D01*
X6294943Y-19295174D02*
X6304467Y-19304698D01*
X6304467Y-19304698D02*
X6313991Y-19323746D01*
X6313991Y-19323746D02*
X6313991Y-19380889D01*
X6313991Y-19380889D02*
X6304467Y-19399936D01*
X6304467Y-19399936D02*
X6294943Y-19409460D01*
X6294943Y-19409460D02*
X6275896Y-19418984D01*
X6275896Y-19418984D02*
X6237801Y-19418984D01*
X6237801Y-19418984D02*
X6218753Y-19409460D01*
X6399705Y-19399936D02*
X6409229Y-19409460D01*
X6409229Y-19409460D02*
X6399705Y-19418984D01*
X6399705Y-19418984D02*
X6390182Y-19409460D01*
X6390182Y-19409460D02*
X6399705Y-19399936D01*
X6399705Y-19399936D02*
X6399705Y-19418984D01*
X6399705Y-19295174D02*
X6409229Y-19304698D01*
X6409229Y-19304698D02*
X6399705Y-19314222D01*
X6399705Y-19314222D02*
X6390182Y-19304698D01*
X6390182Y-19304698D02*
X6399705Y-19295174D01*
X6399705Y-19295174D02*
X6399705Y-19314222D01*
X4567500Y-19647500D02*
X4767500Y-19847500D01*
X4767500Y-19647500D02*
X4567500Y-19847500D01*
X5009229Y-19638984D02*
X5133039Y-19638984D01*
X5133039Y-19638984D02*
X5066372Y-19715174D01*
X5066372Y-19715174D02*
X5094944Y-19715174D01*
X5094944Y-19715174D02*
X5113991Y-19724698D01*
X5113991Y-19724698D02*
X5123515Y-19734222D01*
X5123515Y-19734222D02*
X5133039Y-19753270D01*
X5133039Y-19753270D02*
X5133039Y-19800889D01*
X5133039Y-19800889D02*
X5123515Y-19819936D01*
X5123515Y-19819936D02*
X5113991Y-19829460D01*
X5113991Y-19829460D02*
X5094944Y-19838984D01*
X5094944Y-19838984D02*
X5037801Y-19838984D01*
X5037801Y-19838984D02*
X5018753Y-19829460D01*
X5018753Y-19829460D02*
X5009229Y-19819936D01*
X5218753Y-19819936D02*
X5228277Y-19829460D01*
X5228277Y-19829460D02*
X5218753Y-19838984D01*
X5218753Y-19838984D02*
X5209229Y-19829460D01*
X5209229Y-19829460D02*
X5218753Y-19819936D01*
X5218753Y-19819936D02*
X5218753Y-19838984D01*
X5304467Y-19658031D02*
X5313991Y-19648508D01*
X5313991Y-19648508D02*
X5333039Y-19638984D01*
X5333039Y-19638984D02*
X5380658Y-19638984D01*
X5380658Y-19638984D02*
X5399705Y-19648508D01*
X5399705Y-19648508D02*
X5409229Y-19658031D01*
X5409229Y-19658031D02*
X5418753Y-19677079D01*
X5418753Y-19677079D02*
X5418753Y-19696127D01*
X5418753Y-19696127D02*
X5409229Y-19724698D01*
X5409229Y-19724698D02*
X5294944Y-19838984D01*
X5294944Y-19838984D02*
X5418753Y-19838984D01*
X5542563Y-19638984D02*
X5561610Y-19638984D01*
X5561610Y-19638984D02*
X5580658Y-19648508D01*
X5580658Y-19648508D02*
X5590182Y-19658031D01*
X5590182Y-19658031D02*
X5599705Y-19677079D01*
X5599705Y-19677079D02*
X5609229Y-19715174D01*
X5609229Y-19715174D02*
X5609229Y-19762793D01*
X5609229Y-19762793D02*
X5599705Y-19800889D01*
X5599705Y-19800889D02*
X5590182Y-19819936D01*
X5590182Y-19819936D02*
X5580658Y-19829460D01*
X5580658Y-19829460D02*
X5561610Y-19838984D01*
X5561610Y-19838984D02*
X5542563Y-19838984D01*
X5542563Y-19838984D02*
X5523515Y-19829460D01*
X5523515Y-19829460D02*
X5513991Y-19819936D01*
X5513991Y-19819936D02*
X5504467Y-19800889D01*
X5504467Y-19800889D02*
X5494944Y-19762793D01*
X5494944Y-19762793D02*
X5494944Y-19715174D01*
X5494944Y-19715174D02*
X5504467Y-19677079D01*
X5504467Y-19677079D02*
X5513991Y-19658031D01*
X5513991Y-19658031D02*
X5523515Y-19648508D01*
X5523515Y-19648508D02*
X5542563Y-19638984D01*
X5733039Y-19638984D02*
X5752086Y-19638984D01*
X5752086Y-19638984D02*
X5771134Y-19648508D01*
X5771134Y-19648508D02*
X5780658Y-19658031D01*
X5780658Y-19658031D02*
X5790182Y-19677079D01*
X5790182Y-19677079D02*
X5799705Y-19715174D01*
X5799705Y-19715174D02*
X5799705Y-19762793D01*
X5799705Y-19762793D02*
X5790182Y-19800889D01*
X5790182Y-19800889D02*
X5780658Y-19819936D01*
X5780658Y-19819936D02*
X5771134Y-19829460D01*
X5771134Y-19829460D02*
X5752086Y-19838984D01*
X5752086Y-19838984D02*
X5733039Y-19838984D01*
X5733039Y-19838984D02*
X5713991Y-19829460D01*
X5713991Y-19829460D02*
X5704467Y-19819936D01*
X5704467Y-19819936D02*
X5694943Y-19800889D01*
X5694943Y-19800889D02*
X5685420Y-19762793D01*
X5685420Y-19762793D02*
X5685420Y-19715174D01*
X5685420Y-19715174D02*
X5694943Y-19677079D01*
X5694943Y-19677079D02*
X5704467Y-19658031D01*
X5704467Y-19658031D02*
X5713991Y-19648508D01*
X5713991Y-19648508D02*
X5733039Y-19638984D01*
X5885420Y-19838984D02*
X5885420Y-19705650D01*
X5885420Y-19724698D02*
X5894943Y-19715174D01*
X5894943Y-19715174D02*
X5913991Y-19705650D01*
X5913991Y-19705650D02*
X5942563Y-19705650D01*
X5942563Y-19705650D02*
X5961610Y-19715174D01*
X5961610Y-19715174D02*
X5971134Y-19734222D01*
X5971134Y-19734222D02*
X5971134Y-19838984D01*
X5971134Y-19734222D02*
X5980658Y-19715174D01*
X5980658Y-19715174D02*
X5999705Y-19705650D01*
X5999705Y-19705650D02*
X6028277Y-19705650D01*
X6028277Y-19705650D02*
X6047324Y-19715174D01*
X6047324Y-19715174D02*
X6056848Y-19734222D01*
X6056848Y-19734222D02*
X6056848Y-19838984D01*
X6152086Y-19838984D02*
X6152086Y-19705650D01*
X6152086Y-19724698D02*
X6161610Y-19715174D01*
X6161610Y-19715174D02*
X6180658Y-19705650D01*
X6180658Y-19705650D02*
X6209229Y-19705650D01*
X6209229Y-19705650D02*
X6228277Y-19715174D01*
X6228277Y-19715174D02*
X6237801Y-19734222D01*
X6237801Y-19734222D02*
X6237801Y-19838984D01*
X6237801Y-19734222D02*
X6247324Y-19715174D01*
X6247324Y-19715174D02*
X6266372Y-19705650D01*
X6266372Y-19705650D02*
X6294943Y-19705650D01*
X6294943Y-19705650D02*
X6313991Y-19715174D01*
X6313991Y-19715174D02*
X6323515Y-19734222D01*
X6323515Y-19734222D02*
X6323515Y-19838984D01*
X6713991Y-19629460D02*
X6542563Y-19886603D01*
X6971134Y-19638984D02*
X6990182Y-19638984D01*
X6990182Y-19638984D02*
X7009229Y-19648508D01*
X7009229Y-19648508D02*
X7018753Y-19658031D01*
X7018753Y-19658031D02*
X7028277Y-19677079D01*
X7028277Y-19677079D02*
X7037801Y-19715174D01*
X7037801Y-19715174D02*
X7037801Y-19762793D01*
X7037801Y-19762793D02*
X7028277Y-19800889D01*
X7028277Y-19800889D02*
X7018753Y-19819936D01*
X7018753Y-19819936D02*
X7009229Y-19829460D01*
X7009229Y-19829460D02*
X6990182Y-19838984D01*
X6990182Y-19838984D02*
X6971134Y-19838984D01*
X6971134Y-19838984D02*
X6952086Y-19829460D01*
X6952086Y-19829460D02*
X6942563Y-19819936D01*
X6942563Y-19819936D02*
X6933039Y-19800889D01*
X6933039Y-19800889D02*
X6923515Y-19762793D01*
X6923515Y-19762793D02*
X6923515Y-19715174D01*
X6923515Y-19715174D02*
X6933039Y-19677079D01*
X6933039Y-19677079D02*
X6942563Y-19658031D01*
X6942563Y-19658031D02*
X6952086Y-19648508D01*
X6952086Y-19648508D02*
X6971134Y-19638984D01*
X7123515Y-19819936D02*
X7133039Y-19829460D01*
X7133039Y-19829460D02*
X7123515Y-19838984D01*
X7123515Y-19838984D02*
X7113991Y-19829460D01*
X7113991Y-19829460D02*
X7123515Y-19819936D01*
X7123515Y-19819936D02*
X7123515Y-19838984D01*
X7323515Y-19838984D02*
X7209229Y-19838984D01*
X7266372Y-19838984D02*
X7266372Y-19638984D01*
X7266372Y-19638984D02*
X7247325Y-19667555D01*
X7247325Y-19667555D02*
X7228277Y-19686603D01*
X7228277Y-19686603D02*
X7209229Y-19696127D01*
X7399706Y-19658031D02*
X7409229Y-19648508D01*
X7409229Y-19648508D02*
X7428277Y-19638984D01*
X7428277Y-19638984D02*
X7475896Y-19638984D01*
X7475896Y-19638984D02*
X7494944Y-19648508D01*
X7494944Y-19648508D02*
X7504467Y-19658031D01*
X7504467Y-19658031D02*
X7513991Y-19677079D01*
X7513991Y-19677079D02*
X7513991Y-19696127D01*
X7513991Y-19696127D02*
X7504467Y-19724698D01*
X7504467Y-19724698D02*
X7390182Y-19838984D01*
X7390182Y-19838984D02*
X7513991Y-19838984D01*
X7685420Y-19638984D02*
X7647325Y-19638984D01*
X7647325Y-19638984D02*
X7628277Y-19648508D01*
X7628277Y-19648508D02*
X7618753Y-19658031D01*
X7618753Y-19658031D02*
X7599706Y-19686603D01*
X7599706Y-19686603D02*
X7590182Y-19724698D01*
X7590182Y-19724698D02*
X7590182Y-19800889D01*
X7590182Y-19800889D02*
X7599706Y-19819936D01*
X7599706Y-19819936D02*
X7609229Y-19829460D01*
X7609229Y-19829460D02*
X7628277Y-19838984D01*
X7628277Y-19838984D02*
X7666372Y-19838984D01*
X7666372Y-19838984D02*
X7685420Y-19829460D01*
X7685420Y-19829460D02*
X7694944Y-19819936D01*
X7694944Y-19819936D02*
X7704467Y-19800889D01*
X7704467Y-19800889D02*
X7704467Y-19753270D01*
X7704467Y-19753270D02*
X7694944Y-19734222D01*
X7694944Y-19734222D02*
X7685420Y-19724698D01*
X7685420Y-19724698D02*
X7666372Y-19715174D01*
X7666372Y-19715174D02*
X7628277Y-19715174D01*
X7628277Y-19715174D02*
X7609229Y-19724698D01*
X7609229Y-19724698D02*
X7599706Y-19734222D01*
X7599706Y-19734222D02*
X7590182Y-19753270D01*
X7828277Y-19638984D02*
X7847325Y-19638984D01*
X7847325Y-19638984D02*
X7866372Y-19648508D01*
X7866372Y-19648508D02*
X7875896Y-19658031D01*
X7875896Y-19658031D02*
X7885420Y-19677079D01*
X7885420Y-19677079D02*
X7894944Y-19715174D01*
X7894944Y-19715174D02*
X7894944Y-19762793D01*
X7894944Y-19762793D02*
X7885420Y-19800889D01*
X7885420Y-19800889D02*
X7875896Y-19819936D01*
X7875896Y-19819936D02*
X7866372Y-19829460D01*
X7866372Y-19829460D02*
X7847325Y-19838984D01*
X7847325Y-19838984D02*
X7828277Y-19838984D01*
X7828277Y-19838984D02*
X7809229Y-19829460D01*
X7809229Y-19829460D02*
X7799706Y-19819936D01*
X7799706Y-19819936D02*
X7790182Y-19800889D01*
X7790182Y-19800889D02*
X7780658Y-19762793D01*
X7780658Y-19762793D02*
X7780658Y-19715174D01*
X7780658Y-19715174D02*
X7790182Y-19677079D01*
X7790182Y-19677079D02*
X7799706Y-19658031D01*
X7799706Y-19658031D02*
X7809229Y-19648508D01*
X7809229Y-19648508D02*
X7828277Y-19638984D01*
X7971134Y-19638984D02*
X7971134Y-19677079D01*
X8047325Y-19638984D02*
X8047325Y-19677079D01*
X8342563Y-19915174D02*
X8333039Y-19905650D01*
X8333039Y-19905650D02*
X8313991Y-19877079D01*
X8313991Y-19877079D02*
X8304468Y-19858031D01*
X8304468Y-19858031D02*
X8294944Y-19829460D01*
X8294944Y-19829460D02*
X8285420Y-19781841D01*
X8285420Y-19781841D02*
X8285420Y-19743746D01*
X8285420Y-19743746D02*
X8294944Y-19696127D01*
X8294944Y-19696127D02*
X8304468Y-19667555D01*
X8304468Y-19667555D02*
X8313991Y-19648508D01*
X8313991Y-19648508D02*
X8333039Y-19619936D01*
X8333039Y-19619936D02*
X8342563Y-19610412D01*
X8428277Y-19838984D02*
X8466372Y-19838984D01*
X8466372Y-19838984D02*
X8485420Y-19829460D01*
X8485420Y-19829460D02*
X8494944Y-19819936D01*
X8494944Y-19819936D02*
X8513991Y-19791365D01*
X8513991Y-19791365D02*
X8523515Y-19753270D01*
X8523515Y-19753270D02*
X8523515Y-19677079D01*
X8523515Y-19677079D02*
X8513991Y-19658031D01*
X8513991Y-19658031D02*
X8504468Y-19648508D01*
X8504468Y-19648508D02*
X8485420Y-19638984D01*
X8485420Y-19638984D02*
X8447325Y-19638984D01*
X8447325Y-19638984D02*
X8428277Y-19648508D01*
X8428277Y-19648508D02*
X8418753Y-19658031D01*
X8418753Y-19658031D02*
X8409230Y-19677079D01*
X8409230Y-19677079D02*
X8409230Y-19724698D01*
X8409230Y-19724698D02*
X8418753Y-19743746D01*
X8418753Y-19743746D02*
X8428277Y-19753270D01*
X8428277Y-19753270D02*
X8447325Y-19762793D01*
X8447325Y-19762793D02*
X8485420Y-19762793D01*
X8485420Y-19762793D02*
X8504468Y-19753270D01*
X8504468Y-19753270D02*
X8513991Y-19743746D01*
X8513991Y-19743746D02*
X8523515Y-19724698D01*
X8761611Y-19838984D02*
X8761611Y-19638984D01*
X8847325Y-19838984D02*
X8847325Y-19734222D01*
X8847325Y-19734222D02*
X8837801Y-19715174D01*
X8837801Y-19715174D02*
X8818753Y-19705650D01*
X8818753Y-19705650D02*
X8790182Y-19705650D01*
X8790182Y-19705650D02*
X8771134Y-19715174D01*
X8771134Y-19715174D02*
X8761611Y-19724698D01*
X8971134Y-19838984D02*
X8952087Y-19829460D01*
X8952087Y-19829460D02*
X8942563Y-19819936D01*
X8942563Y-19819936D02*
X8933039Y-19800889D01*
X8933039Y-19800889D02*
X8933039Y-19743746D01*
X8933039Y-19743746D02*
X8942563Y-19724698D01*
X8942563Y-19724698D02*
X8952087Y-19715174D01*
X8952087Y-19715174D02*
X8971134Y-19705650D01*
X8971134Y-19705650D02*
X8999706Y-19705650D01*
X8999706Y-19705650D02*
X9018753Y-19715174D01*
X9018753Y-19715174D02*
X9028277Y-19724698D01*
X9028277Y-19724698D02*
X9037801Y-19743746D01*
X9037801Y-19743746D02*
X9037801Y-19800889D01*
X9037801Y-19800889D02*
X9028277Y-19819936D01*
X9028277Y-19819936D02*
X9018753Y-19829460D01*
X9018753Y-19829460D02*
X8999706Y-19838984D01*
X8999706Y-19838984D02*
X8971134Y-19838984D01*
X9152087Y-19838984D02*
X9133039Y-19829460D01*
X9133039Y-19829460D02*
X9123515Y-19810412D01*
X9123515Y-19810412D02*
X9123515Y-19638984D01*
X9304468Y-19829460D02*
X9285420Y-19838984D01*
X9285420Y-19838984D02*
X9247325Y-19838984D01*
X9247325Y-19838984D02*
X9228277Y-19829460D01*
X9228277Y-19829460D02*
X9218753Y-19810412D01*
X9218753Y-19810412D02*
X9218753Y-19734222D01*
X9218753Y-19734222D02*
X9228277Y-19715174D01*
X9228277Y-19715174D02*
X9247325Y-19705650D01*
X9247325Y-19705650D02*
X9285420Y-19705650D01*
X9285420Y-19705650D02*
X9304468Y-19715174D01*
X9304468Y-19715174D02*
X9313992Y-19734222D01*
X9313992Y-19734222D02*
X9313992Y-19753270D01*
X9313992Y-19753270D02*
X9218753Y-19772317D01*
X9390182Y-19829460D02*
X9409230Y-19838984D01*
X9409230Y-19838984D02*
X9447325Y-19838984D01*
X9447325Y-19838984D02*
X9466373Y-19829460D01*
X9466373Y-19829460D02*
X9475896Y-19810412D01*
X9475896Y-19810412D02*
X9475896Y-19800889D01*
X9475896Y-19800889D02*
X9466373Y-19781841D01*
X9466373Y-19781841D02*
X9447325Y-19772317D01*
X9447325Y-19772317D02*
X9418753Y-19772317D01*
X9418753Y-19772317D02*
X9399706Y-19762793D01*
X9399706Y-19762793D02*
X9390182Y-19743746D01*
X9390182Y-19743746D02*
X9390182Y-19734222D01*
X9390182Y-19734222D02*
X9399706Y-19715174D01*
X9399706Y-19715174D02*
X9418753Y-19705650D01*
X9418753Y-19705650D02*
X9447325Y-19705650D01*
X9447325Y-19705650D02*
X9466373Y-19715174D01*
X9542563Y-19915174D02*
X9552087Y-19905650D01*
X9552087Y-19905650D02*
X9571134Y-19877079D01*
X9571134Y-19877079D02*
X9580658Y-19858031D01*
X9580658Y-19858031D02*
X9590182Y-19829460D01*
X9590182Y-19829460D02*
X9599706Y-19781841D01*
X9599706Y-19781841D02*
X9599706Y-19743746D01*
X9599706Y-19743746D02*
X9590182Y-19696127D01*
X9590182Y-19696127D02*
X9580658Y-19667555D01*
X9580658Y-19667555D02*
X9571134Y-19648508D01*
X9571134Y-19648508D02*
X9552087Y-19619936D01*
X9552087Y-19619936D02*
X9542563Y-19610412D01*
X9904468Y-19915174D02*
X9894944Y-19905650D01*
X9894944Y-19905650D02*
X9875896Y-19877079D01*
X9875896Y-19877079D02*
X9866373Y-19858031D01*
X9866373Y-19858031D02*
X9856849Y-19829460D01*
X9856849Y-19829460D02*
X9847325Y-19781841D01*
X9847325Y-19781841D02*
X9847325Y-19743746D01*
X9847325Y-19743746D02*
X9856849Y-19696127D01*
X9856849Y-19696127D02*
X9866373Y-19667555D01*
X9866373Y-19667555D02*
X9875896Y-19648508D01*
X9875896Y-19648508D02*
X9894944Y-19619936D01*
X9894944Y-19619936D02*
X9904468Y-19610412D01*
X9980658Y-19705650D02*
X9980658Y-19838984D01*
X9980658Y-19724698D02*
X9990182Y-19715174D01*
X9990182Y-19715174D02*
X10009230Y-19705650D01*
X10009230Y-19705650D02*
X10037801Y-19705650D01*
X10037801Y-19705650D02*
X10056849Y-19715174D01*
X10056849Y-19715174D02*
X10066373Y-19734222D01*
X10066373Y-19734222D02*
X10066373Y-19838984D01*
X10190182Y-19838984D02*
X10171134Y-19829460D01*
X10171134Y-19829460D02*
X10161611Y-19819936D01*
X10161611Y-19819936D02*
X10152087Y-19800889D01*
X10152087Y-19800889D02*
X10152087Y-19743746D01*
X10152087Y-19743746D02*
X10161611Y-19724698D01*
X10161611Y-19724698D02*
X10171134Y-19715174D01*
X10171134Y-19715174D02*
X10190182Y-19705650D01*
X10190182Y-19705650D02*
X10218754Y-19705650D01*
X10218754Y-19705650D02*
X10237801Y-19715174D01*
X10237801Y-19715174D02*
X10247325Y-19724698D01*
X10247325Y-19724698D02*
X10256849Y-19743746D01*
X10256849Y-19743746D02*
X10256849Y-19800889D01*
X10256849Y-19800889D02*
X10247325Y-19819936D01*
X10247325Y-19819936D02*
X10237801Y-19829460D01*
X10237801Y-19829460D02*
X10218754Y-19838984D01*
X10218754Y-19838984D02*
X10190182Y-19838984D01*
X10313992Y-19705650D02*
X10390182Y-19705650D01*
X10342563Y-19638984D02*
X10342563Y-19810412D01*
X10342563Y-19810412D02*
X10352087Y-19829460D01*
X10352087Y-19829460D02*
X10371134Y-19838984D01*
X10371134Y-19838984D02*
X10390182Y-19838984D01*
X10609230Y-19705650D02*
X10609230Y-19905650D01*
X10609230Y-19715174D02*
X10628277Y-19705650D01*
X10628277Y-19705650D02*
X10666373Y-19705650D01*
X10666373Y-19705650D02*
X10685420Y-19715174D01*
X10685420Y-19715174D02*
X10694944Y-19724698D01*
X10694944Y-19724698D02*
X10704468Y-19743746D01*
X10704468Y-19743746D02*
X10704468Y-19800889D01*
X10704468Y-19800889D02*
X10694944Y-19819936D01*
X10694944Y-19819936D02*
X10685420Y-19829460D01*
X10685420Y-19829460D02*
X10666373Y-19838984D01*
X10666373Y-19838984D02*
X10628277Y-19838984D01*
X10628277Y-19838984D02*
X10609230Y-19829460D01*
X10818754Y-19838984D02*
X10799706Y-19829460D01*
X10799706Y-19829460D02*
X10790182Y-19810412D01*
X10790182Y-19810412D02*
X10790182Y-19638984D01*
X10980658Y-19838984D02*
X10980658Y-19734222D01*
X10980658Y-19734222D02*
X10971135Y-19715174D01*
X10971135Y-19715174D02*
X10952087Y-19705650D01*
X10952087Y-19705650D02*
X10913992Y-19705650D01*
X10913992Y-19705650D02*
X10894944Y-19715174D01*
X10980658Y-19829460D02*
X10961611Y-19838984D01*
X10961611Y-19838984D02*
X10913992Y-19838984D01*
X10913992Y-19838984D02*
X10894944Y-19829460D01*
X10894944Y-19829460D02*
X10885420Y-19810412D01*
X10885420Y-19810412D02*
X10885420Y-19791365D01*
X10885420Y-19791365D02*
X10894944Y-19772317D01*
X10894944Y-19772317D02*
X10913992Y-19762793D01*
X10913992Y-19762793D02*
X10961611Y-19762793D01*
X10961611Y-19762793D02*
X10980658Y-19753270D01*
X11047325Y-19705650D02*
X11123515Y-19705650D01*
X11075896Y-19638984D02*
X11075896Y-19810412D01*
X11075896Y-19810412D02*
X11085420Y-19829460D01*
X11085420Y-19829460D02*
X11104468Y-19838984D01*
X11104468Y-19838984D02*
X11123515Y-19838984D01*
X11266373Y-19829460D02*
X11247325Y-19838984D01*
X11247325Y-19838984D02*
X11209230Y-19838984D01*
X11209230Y-19838984D02*
X11190182Y-19829460D01*
X11190182Y-19829460D02*
X11180658Y-19810412D01*
X11180658Y-19810412D02*
X11180658Y-19734222D01*
X11180658Y-19734222D02*
X11190182Y-19715174D01*
X11190182Y-19715174D02*
X11209230Y-19705650D01*
X11209230Y-19705650D02*
X11247325Y-19705650D01*
X11247325Y-19705650D02*
X11266373Y-19715174D01*
X11266373Y-19715174D02*
X11275896Y-19734222D01*
X11275896Y-19734222D02*
X11275896Y-19753270D01*
X11275896Y-19753270D02*
X11180658Y-19772317D01*
X11447325Y-19838984D02*
X11447325Y-19638984D01*
X11447325Y-19829460D02*
X11428277Y-19838984D01*
X11428277Y-19838984D02*
X11390182Y-19838984D01*
X11390182Y-19838984D02*
X11371134Y-19829460D01*
X11371134Y-19829460D02*
X11361611Y-19819936D01*
X11361611Y-19819936D02*
X11352087Y-19800889D01*
X11352087Y-19800889D02*
X11352087Y-19743746D01*
X11352087Y-19743746D02*
X11361611Y-19724698D01*
X11361611Y-19724698D02*
X11371134Y-19715174D01*
X11371134Y-19715174D02*
X11390182Y-19705650D01*
X11390182Y-19705650D02*
X11428277Y-19705650D01*
X11428277Y-19705650D02*
X11447325Y-19715174D01*
X11523515Y-19915174D02*
X11533039Y-19905650D01*
X11533039Y-19905650D02*
X11552087Y-19877079D01*
X11552087Y-19877079D02*
X11561611Y-19858031D01*
X11561611Y-19858031D02*
X11571134Y-19829460D01*
X11571134Y-19829460D02*
X11580658Y-19781841D01*
X11580658Y-19781841D02*
X11580658Y-19743746D01*
X11580658Y-19743746D02*
X11571134Y-19696127D01*
X11571134Y-19696127D02*
X11561611Y-19667555D01*
X11561611Y-19667555D02*
X11552087Y-19648508D01*
X11552087Y-19648508D02*
X11533039Y-19619936D01*
X11533039Y-19619936D02*
X11523515Y-19610412D01*
M02*
