%TF.GenerationSoftware,KiCad,Pcbnew,8.0.4*%
%TF.CreationDate,2024-08-20T13:29:13+02:00*%
%TF.ProjectId,lagom_plate,6c61676f-6d5f-4706-9c61-74652e6b6963,rev?*%
%TF.SameCoordinates,Original*%
%TF.FileFunction,Drillmap*%
%TF.FilePolarity,Positive*%
%FSLAX45Y45*%
G04 Gerber Fmt 4.5, Leading zero omitted, Abs format (unit mm)*
G04 Created by KiCad (PCBNEW 8.0.4) date 2024-08-20 13:29:13*
%MOMM*%
%LPD*%
G01*
G04 APERTURE LIST*
%ADD10C,0.050000*%
%ADD11C,0.150000*%
%ADD12C,0.200000*%
G04 APERTURE END LIST*
D10*
X13625000Y-12958750D02*
G75*
G02*
X13675000Y-12908750I50000J0D01*
G01*
X21026250Y-14868750D02*
G75*
G02*
X21076250Y-14818750I50000J0D01*
G01*
X29382500Y-9138750D02*
X29382500Y-10438750D01*
X30337500Y-7228750D02*
X30337500Y-8528750D01*
X6557000Y-14309250D02*
X8245000Y-14309250D01*
X28000000Y-12398750D02*
G75*
G02*
X27950000Y-12348750I0J50000D01*
G01*
X18317500Y-7178750D02*
G75*
G02*
X18367500Y-7228750I0J-50000D01*
G01*
X30909950Y-12398750D02*
X32403750Y-12398750D01*
X14547500Y-8528750D02*
X14547500Y-7228750D01*
X13065000Y-12908750D02*
X11765000Y-12908750D01*
X14975000Y-12908750D02*
G75*
G02*
X15025000Y-12958750I0J-50000D01*
G01*
X32297500Y-16218750D02*
X33597500Y-16218750D01*
X24575000Y-14258750D02*
X24575000Y-12958750D01*
X27917500Y-8528750D02*
X27917500Y-7228750D01*
X33597500Y-12908750D02*
X32297500Y-12908750D01*
X17017500Y-8578750D02*
G75*
G02*
X16967500Y-8528750I0J50000D01*
G01*
X11155000Y-12908750D02*
X9855000Y-12908750D01*
X25480000Y-10998750D02*
X24180000Y-10998750D01*
X24846250Y-14868750D02*
G75*
G02*
X24896250Y-14818750I50000J0D01*
G01*
X34207500Y-14308750D02*
G75*
G02*
X34157500Y-14258750I0J50000D01*
G01*
X9772500Y-16168750D02*
G75*
G02*
X9722500Y-16218750I-50000J0D01*
G01*
X10250000Y-12348750D02*
G75*
G02*
X10200000Y-12398750I-50000J0D01*
G01*
X15457550Y-16218750D02*
X16057550Y-16218750D01*
X12160000Y-12348750D02*
G75*
G02*
X12110000Y-12398750I-50000J0D01*
G01*
X8295050Y-14408750D02*
G75*
G02*
X8245050Y-14358750I0J50000D01*
G01*
X33358750Y-11587550D02*
X33297550Y-11587550D01*
X34207500Y-16218750D02*
G75*
G02*
X34157500Y-16168750I0J50000D01*
G01*
X25085000Y-12958750D02*
X25085000Y-14258750D01*
X18450000Y-12398750D02*
X19750000Y-12398750D01*
X14580000Y-11048750D02*
G75*
G02*
X14630000Y-10998750I50000J0D01*
G01*
X13115000Y-14258750D02*
X13115000Y-12958750D01*
X31148700Y-8628750D02*
G75*
G02*
X31098700Y-8678750I-50000J0D01*
G01*
X5796250Y-14308750D02*
X5857450Y-14309250D01*
X33358750Y-10043750D02*
G75*
G02*
X33408750Y-10093750I0J-50000D01*
G01*
X31770000Y-9138750D02*
G75*
G02*
X31820000Y-9088750I50000J0D01*
G01*
X26196250Y-14818750D02*
X25642500Y-14818750D01*
X15057500Y-7228750D02*
X15057500Y-8528750D01*
X7417500Y-7228750D02*
G75*
G02*
X7467500Y-7178750I50000J0D01*
G01*
X13147500Y-7228750D02*
X13147500Y-8528750D01*
X27950000Y-11048750D02*
X27950000Y-12348750D01*
D11*
X36528750Y-16712500D02*
G75*
G02*
X36051250Y-17190000I-477500J0D01*
G01*
D10*
X10200000Y-10998750D02*
X8900000Y-10998750D01*
X30782500Y-10438750D02*
G75*
G02*
X30732500Y-10488750I-50000J0D01*
G01*
X33597500Y-14818750D02*
X32297500Y-14818750D01*
X12110000Y-14818750D02*
X10571250Y-14818750D01*
X27045000Y-14308750D02*
X28345000Y-14308750D01*
X34207500Y-16218750D02*
X35507500Y-16218750D01*
X33408750Y-12237550D02*
G75*
G02*
X33358750Y-12287550I-50000J0D01*
G01*
X23620000Y-12348750D02*
G75*
G02*
X23570000Y-12398750I-50000J0D01*
G01*
X22697500Y-7228750D02*
G75*
G02*
X22747500Y-7178750I50000J0D01*
G01*
X25052500Y-10438750D02*
G75*
G02*
X25002500Y-10488750I-50000J0D01*
G01*
X35557500Y-10438750D02*
X35557500Y-9138750D01*
X20310000Y-11048750D02*
X20310000Y-12348750D01*
X11287500Y-8578750D02*
X12587500Y-8578750D01*
X19882500Y-10488750D02*
G75*
G02*
X19832500Y-10438750I0J50000D01*
G01*
X12587500Y-7178750D02*
X11287500Y-7178750D01*
X35557500Y-8528750D02*
X35557500Y-7228750D01*
X14630000Y-12398750D02*
G75*
G02*
X14580000Y-12348750I0J50000D01*
G01*
X15585000Y-14308750D02*
G75*
G02*
X15535000Y-14258750I0J50000D01*
G01*
X20227500Y-7178750D02*
G75*
G02*
X20277500Y-7228750I0J-50000D01*
G01*
X29827500Y-8528750D02*
X29827500Y-7228750D01*
X12110000Y-14818750D02*
G75*
G02*
X12160000Y-14868750I0J-50000D01*
G01*
X17890000Y-12348750D02*
X17890000Y-11048750D01*
X12192500Y-9138750D02*
G75*
G02*
X12242500Y-9088750I50000J0D01*
G01*
X5507500Y-7228750D02*
X5507500Y-8528750D01*
X22615000Y-12908750D02*
G75*
G02*
X22665000Y-12958750I0J-50000D01*
G01*
X25592500Y-14718750D02*
X24992500Y-14718750D01*
X35507500Y-7178750D02*
X34207500Y-7178750D01*
X21710000Y-12348750D02*
X21710000Y-11048750D01*
X12670000Y-11048750D02*
X12670000Y-12348750D01*
X18367500Y-8528750D02*
G75*
G02*
X18317500Y-8578750I-50000J0D01*
G01*
X17922500Y-9138750D02*
X17922500Y-10438750D01*
X26090000Y-12398750D02*
X27390000Y-12398750D01*
X23620000Y-12348750D02*
X23620000Y-11048750D01*
X33597500Y-7178750D02*
G75*
G02*
X33647500Y-7228750I0J-50000D01*
G01*
X27522500Y-10488750D02*
X28822500Y-10488750D01*
X5857450Y-14309250D02*
X5857450Y-14358750D01*
X25530000Y-12348750D02*
X25530000Y-11048750D01*
X30782500Y-10438750D02*
X30782500Y-9138750D01*
X27522500Y-10488750D02*
G75*
G02*
X27472500Y-10438750I0J50000D01*
G01*
X15980000Y-12348750D02*
G75*
G02*
X15930000Y-12398750I-50000J0D01*
G01*
X26435000Y-12908750D02*
X25135000Y-12908750D01*
X28427500Y-7228750D02*
G75*
G02*
X28477500Y-7178750I50000J0D01*
G01*
X7623750Y-12348750D02*
X7623750Y-11048750D01*
X18927500Y-8578750D02*
X20227500Y-8578750D01*
X26995000Y-14868750D02*
G75*
G02*
X27045000Y-14818750I50000J0D01*
G01*
X20182450Y-14768750D02*
G75*
G02*
X20232450Y-14718750I50000J0D01*
G01*
X31021250Y-14258750D02*
G75*
G02*
X30971250Y-14308750I-50000J0D01*
G01*
X16062500Y-10488750D02*
X17362500Y-10488750D01*
X30337500Y-7228750D02*
G75*
G02*
X30387500Y-7178750I50000J0D01*
G01*
X30498700Y-8678750D02*
G75*
G02*
X30448700Y-8628750I0J50000D01*
G01*
X25480000Y-10998750D02*
G75*
G02*
X25530000Y-11048750I0J-50000D01*
G01*
X32008750Y-10998750D02*
X29910000Y-10998750D01*
X26995000Y-14868750D02*
X26995000Y-16168750D01*
X19272500Y-9088750D02*
G75*
G02*
X19322500Y-9138750I0J-50000D01*
G01*
X18795000Y-12908750D02*
X17495000Y-12908750D01*
X22137500Y-7178750D02*
X20837500Y-7178750D01*
X5507500Y-7228750D02*
G75*
G02*
X5557500Y-7178750I50000J0D01*
G01*
X35557500Y-14258750D02*
X35557500Y-12958750D01*
X26246250Y-16168750D02*
X26246250Y-14868750D01*
X26995000Y-12958750D02*
X26995000Y-14258750D01*
X11155000Y-12908750D02*
G75*
G02*
X11205000Y-12958750I0J-50000D01*
G01*
X22665000Y-14258750D02*
G75*
G02*
X22615000Y-14308750I-50000J0D01*
G01*
X6907500Y-8528750D02*
X6907500Y-7228750D01*
D11*
X4536250Y-16712500D02*
X4536250Y-7401250D01*
D10*
X23092500Y-9088750D02*
G75*
G02*
X23142500Y-9138750I0J-50000D01*
G01*
D11*
X36528750Y-16712500D02*
X36528750Y-7401250D01*
D10*
X35557500Y-12348750D02*
X35557500Y-11048750D01*
X22137500Y-7178750D02*
G75*
G02*
X22187500Y-7228750I0J-50000D01*
G01*
X5746250Y-11048750D02*
G75*
G02*
X5796250Y-10998750I50000J0D01*
G01*
X26517500Y-7228750D02*
X26517500Y-8528750D01*
X27950000Y-11048750D02*
G75*
G02*
X28000000Y-10998750I50000J0D01*
G01*
X19405000Y-14308750D02*
X20705000Y-14308750D01*
X21742500Y-9138750D02*
G75*
G02*
X21792500Y-9088750I50000J0D01*
G01*
X5746250Y-12958750D02*
G75*
G02*
X5796250Y-12908750I50000J0D01*
G01*
X34157500Y-9138750D02*
X34157500Y-10438750D01*
X19832500Y-9138750D02*
G75*
G02*
X19882500Y-9088750I50000J0D01*
G01*
X24130000Y-11048750D02*
X24130000Y-12348750D01*
X12670000Y-11048750D02*
G75*
G02*
X12720000Y-10998750I50000J0D01*
G01*
X30259950Y-12498750D02*
G75*
G02*
X30209950Y-12448750I0J50000D01*
G01*
X34207500Y-14308750D02*
X35507500Y-14308750D01*
X5796250Y-14308750D02*
G75*
G02*
X5746250Y-14258750I0J50000D01*
G01*
X10571250Y-16218750D02*
X12110000Y-16218750D01*
X8245000Y-14309250D02*
X8245000Y-14358750D01*
X19355000Y-12958750D02*
X19355000Y-14258750D01*
X8767500Y-7178750D02*
X7467500Y-7178750D01*
X17256250Y-16218750D02*
G75*
G02*
X17206250Y-16168750I0J50000D01*
G01*
X30209950Y-12398750D02*
X30209950Y-12448750D01*
X14070000Y-12348750D02*
X14070000Y-11048750D01*
X24896250Y-16218750D02*
X26196250Y-16218750D01*
X32247500Y-12958750D02*
G75*
G02*
X32297500Y-12908750I50000J0D01*
G01*
X18450000Y-12398750D02*
G75*
G02*
X18400000Y-12348750I0J50000D01*
G01*
X10760000Y-11048750D02*
X10760000Y-12348750D01*
X20182450Y-14768750D02*
X20182450Y-14818250D01*
X32453750Y-12348750D02*
G75*
G02*
X32403750Y-12398750I-50000J0D01*
G01*
X30387500Y-16218750D02*
X31687500Y-16218750D01*
X10571250Y-16218750D02*
G75*
G02*
X10521250Y-16168750I0J50000D01*
G01*
X28427500Y-7228750D02*
X28427500Y-8528750D01*
X14070000Y-12348750D02*
G75*
G02*
X14020000Y-12398750I-50000J0D01*
G01*
X25612500Y-10488750D02*
X26912500Y-10488750D01*
X18367500Y-8528750D02*
X18367500Y-7228750D01*
X12160000Y-16168750D02*
G75*
G02*
X12110000Y-16218750I-50000J0D01*
G01*
X33297550Y-12448750D02*
X33297550Y-12287550D01*
X5746250Y-12958750D02*
X5746250Y-14258750D01*
X33170000Y-9899950D02*
X33358750Y-9899950D01*
X8372500Y-9138750D02*
G75*
G02*
X8422500Y-9088750I50000J0D01*
G01*
X14152500Y-10488750D02*
G75*
G02*
X14102500Y-10438750I0J50000D01*
G01*
X16885000Y-12908750D02*
X15585000Y-12908750D01*
X12192500Y-9138750D02*
X12192500Y-10438750D01*
X13197500Y-8578750D02*
G75*
G02*
X13147500Y-8528750I0J50000D01*
G01*
X30909950Y-12448750D02*
G75*
G02*
X30859950Y-12498750I-50000J0D01*
G01*
X16012500Y-9138750D02*
G75*
G02*
X16062500Y-9088750I50000J0D01*
G01*
X23733750Y-16168750D02*
G75*
G02*
X23683750Y-16218750I-50000J0D01*
G01*
X6035000Y-10488750D02*
X7335000Y-10488750D01*
X28633750Y-16168750D02*
X28633750Y-14868750D01*
X16885000Y-12908750D02*
G75*
G02*
X16935000Y-12958750I0J-50000D01*
G01*
X20832450Y-14718750D02*
X20232450Y-14718750D01*
X34157500Y-12958750D02*
G75*
G02*
X34207500Y-12908750I50000J0D01*
G01*
X26040000Y-11048750D02*
G75*
G02*
X26090000Y-10998750I50000J0D01*
G01*
X17972500Y-10488750D02*
X19272500Y-10488750D01*
X13592500Y-10438750D02*
X13592500Y-9138750D01*
X5746250Y-14868750D02*
X5746250Y-16168750D01*
X25957500Y-7178750D02*
G75*
G02*
X26007500Y-7228750I0J-50000D01*
G01*
X24575000Y-14258750D02*
G75*
G02*
X24525000Y-14308750I-50000J0D01*
G01*
X13592500Y-10438750D02*
G75*
G02*
X13542500Y-10488750I-50000J0D01*
G01*
X35507500Y-12908750D02*
G75*
G02*
X35557500Y-12958750I0J-50000D01*
G01*
X30387500Y-16218750D02*
G75*
G02*
X30337500Y-16168750I0J50000D01*
G01*
X8817500Y-8528750D02*
G75*
G02*
X8767500Y-8578750I-50000J0D01*
G01*
X14580000Y-11048750D02*
X14580000Y-12348750D01*
X28477500Y-8578750D02*
X29777500Y-8578750D01*
D11*
X4536250Y-7401250D02*
G75*
G02*
X5013750Y-6923750I477500J0D01*
G01*
D10*
X35557500Y-12348750D02*
G75*
G02*
X35507500Y-12398750I-50000J0D01*
G01*
X25530000Y-12348750D02*
G75*
G02*
X25480000Y-12398750I-50000J0D01*
G01*
X20360000Y-12398750D02*
X21660000Y-12398750D01*
X33536300Y-8578750D02*
X33597500Y-8578750D01*
X15452500Y-9088750D02*
G75*
G02*
X15502500Y-9138750I0J-50000D01*
G01*
X7385000Y-16168750D02*
X7385000Y-14868750D01*
X15502500Y-10438750D02*
G75*
G02*
X15452500Y-10488750I-50000J0D01*
G01*
X19750000Y-10998750D02*
X18450000Y-10998750D01*
X11632500Y-9088750D02*
X10332500Y-9088750D01*
X6557450Y-14358750D02*
G75*
G02*
X6507450Y-14408750I-50000J0D01*
G01*
X11765000Y-14308750D02*
G75*
G02*
X11715000Y-14258750I0J50000D01*
G01*
X10677500Y-7178750D02*
G75*
G02*
X10727500Y-7228750I0J-50000D01*
G01*
X26040000Y-11048750D02*
X26040000Y-12348750D01*
X27045000Y-16218750D02*
X28583750Y-16218750D01*
X21182500Y-9088750D02*
X19882500Y-9088750D01*
X19750000Y-10998750D02*
G75*
G02*
X19800000Y-11048750I0J-50000D01*
G01*
X13065000Y-12908750D02*
G75*
G02*
X13115000Y-12958750I0J-50000D01*
G01*
X16407500Y-7178750D02*
G75*
G02*
X16457500Y-7228750I0J-50000D01*
G01*
X7385000Y-10438750D02*
X7385000Y-9138750D01*
X21232500Y-10438750D02*
X21232500Y-9138750D01*
X23175000Y-12958750D02*
G75*
G02*
X23225000Y-12908750I50000J0D01*
G01*
X20705000Y-12908750D02*
G75*
G02*
X20755000Y-12958750I0J-50000D01*
G01*
X10727500Y-8528750D02*
G75*
G02*
X10677500Y-8578750I-50000J0D01*
G01*
X10282500Y-9138750D02*
G75*
G02*
X10332500Y-9088750I50000J0D01*
G01*
X33647500Y-16168750D02*
X33647500Y-14868750D01*
X9722500Y-9088750D02*
G75*
G02*
X9772500Y-9138750I0J-50000D01*
G01*
X31737500Y-16168750D02*
G75*
G02*
X31687500Y-16218750I-50000J0D01*
G01*
X9805000Y-12958750D02*
G75*
G02*
X9855000Y-12908750I50000J0D01*
G01*
X33408750Y-11393750D02*
X33408750Y-10093750D01*
X23702500Y-10488750D02*
X25002500Y-10488750D01*
X13147500Y-7228750D02*
G75*
G02*
X13197500Y-7178750I50000J0D01*
G01*
X7385000Y-10438750D02*
G75*
G02*
X7335000Y-10488750I-50000J0D01*
G01*
X33297550Y-12448750D02*
G75*
G02*
X33247550Y-12498750I-50000J0D01*
G01*
X17922500Y-9138750D02*
G75*
G02*
X17972500Y-9088750I50000J0D01*
G01*
X27440000Y-12348750D02*
G75*
G02*
X27390000Y-12398750I-50000J0D01*
G01*
X8183750Y-16218750D02*
X9722500Y-16218750D01*
X25562500Y-9138750D02*
G75*
G02*
X25612500Y-9088750I50000J0D01*
G01*
X26912500Y-9088750D02*
X25612500Y-9088750D01*
X25052500Y-10438750D02*
X25052500Y-9138750D01*
X15025000Y-14258750D02*
G75*
G02*
X14975000Y-14308750I-50000J0D01*
G01*
X35507500Y-7178750D02*
G75*
G02*
X35557500Y-7228750I0J-50000D01*
G01*
X32297500Y-14308750D02*
X33597500Y-14308750D01*
X35507500Y-12908750D02*
X34207500Y-12908750D01*
X29860000Y-11048750D02*
X29860000Y-12348750D01*
X34157500Y-9138750D02*
G75*
G02*
X34207500Y-9088750I50000J0D01*
G01*
X22270000Y-12398750D02*
G75*
G02*
X22220000Y-12348750I0J50000D01*
G01*
X17840000Y-10998750D02*
G75*
G02*
X17890000Y-11048750I0J-50000D01*
G01*
X10521250Y-14868750D02*
X10521250Y-16168750D01*
X18877500Y-7228750D02*
X18877500Y-8528750D01*
X25085000Y-12958750D02*
G75*
G02*
X25135000Y-12908750I50000J0D01*
G01*
D11*
X36051250Y-6923750D02*
G75*
G02*
X36528750Y-7401250I0J-477500D01*
G01*
D10*
X18845000Y-14258750D02*
X18845000Y-12958750D01*
X6557450Y-14358750D02*
X6557000Y-14309250D01*
X33647500Y-14258750D02*
X33647500Y-12958750D01*
X29300000Y-10998750D02*
G75*
G02*
X29350000Y-11048750I0J-50000D01*
G01*
X20882450Y-16168750D02*
X20882450Y-14768750D01*
X14547500Y-8528750D02*
G75*
G02*
X14497500Y-8578750I-50000J0D01*
G01*
X19355000Y-12958750D02*
G75*
G02*
X19405000Y-12908750I50000J0D01*
G01*
X20755000Y-14258750D02*
X20755000Y-12958750D01*
X26090000Y-12398750D02*
G75*
G02*
X26040000Y-12348750I0J50000D01*
G01*
X25957500Y-7178750D02*
X24657500Y-7178750D01*
X11205000Y-14258750D02*
G75*
G02*
X11155000Y-14308750I-50000J0D01*
G01*
X21792500Y-10488750D02*
G75*
G02*
X21742500Y-10438750I0J50000D01*
G01*
X22220000Y-11048750D02*
G75*
G02*
X22270000Y-10998750I50000J0D01*
G01*
X27472500Y-9138750D02*
G75*
G02*
X27522500Y-9088750I50000J0D01*
G01*
X9855000Y-14308750D02*
X11155000Y-14308750D01*
X16057550Y-14718750D02*
X15457550Y-14718750D01*
X24896250Y-16218750D02*
G75*
G02*
X24846250Y-16168750I0J50000D01*
G01*
X33358750Y-10043750D02*
X33170000Y-10043750D01*
X16107550Y-16168750D02*
G75*
G02*
X16057550Y-16218750I-50000J0D01*
G01*
X16935000Y-14258750D02*
G75*
G02*
X16885000Y-14308750I-50000J0D01*
G01*
X22747500Y-8578750D02*
X24047500Y-8578750D01*
X26485000Y-14258750D02*
X26485000Y-12958750D01*
X15025000Y-14258750D02*
X15025000Y-12958750D01*
X34207500Y-12398750D02*
X35507500Y-12398750D01*
X5796250Y-16218750D02*
X7335000Y-16218750D01*
X22187500Y-8528750D02*
X22187500Y-7228750D01*
X15535000Y-12958750D02*
X15535000Y-14258750D01*
X14975000Y-12908750D02*
X13675000Y-12908750D01*
X23652500Y-9138750D02*
X23652500Y-10438750D01*
X35557500Y-16168750D02*
G75*
G02*
X35507500Y-16218750I-50000J0D01*
G01*
X22220000Y-11048750D02*
X22220000Y-12348750D01*
X25135000Y-14308750D02*
G75*
G02*
X25085000Y-14258750I0J50000D01*
G01*
X12720000Y-12398750D02*
G75*
G02*
X12670000Y-12348750I0J50000D01*
G01*
X34157500Y-11048750D02*
G75*
G02*
X34207500Y-10998750I50000J0D01*
G01*
X18400000Y-11048750D02*
X18400000Y-12348750D01*
X26962500Y-10438750D02*
G75*
G02*
X26912500Y-10488750I-50000J0D01*
G01*
X26485000Y-14258750D02*
G75*
G02*
X26435000Y-14308750I-50000J0D01*
G01*
X33536300Y-8628750D02*
G75*
G02*
X33486300Y-8678750I-50000J0D01*
G01*
X14102500Y-9138750D02*
X14102500Y-10438750D01*
X30498700Y-8678750D02*
X31098700Y-8678750D01*
X14497500Y-7178750D02*
G75*
G02*
X14547500Y-7228750I0J-50000D01*
G01*
X31737500Y-16168750D02*
X31737500Y-14868750D01*
X13542500Y-9088750D02*
G75*
G02*
X13592500Y-9138750I0J-50000D01*
G01*
X15452500Y-9088750D02*
X14152500Y-9088750D01*
X34157500Y-7228750D02*
X34157500Y-8528750D01*
X32597550Y-12287550D02*
X32453750Y-12287550D01*
X12720000Y-12398750D02*
X14020000Y-12398750D01*
X14162500Y-14718750D02*
G75*
G02*
X14212500Y-14768750I0J-50000D01*
G01*
X11287500Y-8578750D02*
G75*
G02*
X11237500Y-8528750I0J50000D01*
G01*
X10677500Y-7178750D02*
X9377500Y-7178750D01*
X27867500Y-7178750D02*
X26567500Y-7178750D01*
X30337500Y-14868750D02*
G75*
G02*
X30387500Y-14818750I50000J0D01*
G01*
X24607500Y-7228750D02*
X24607500Y-8528750D01*
X16012500Y-9138750D02*
X16012500Y-10438750D01*
X17495000Y-14308750D02*
X18795000Y-14308750D01*
X16540000Y-12398750D02*
G75*
G02*
X16490000Y-12348750I0J50000D01*
G01*
X8133750Y-14868750D02*
X8133750Y-16168750D01*
X30971250Y-12908750D02*
X29671250Y-12908750D01*
X11715000Y-12958750D02*
X11715000Y-14258750D01*
X7467500Y-8578750D02*
X8767500Y-8578750D01*
X17412500Y-10438750D02*
X17412500Y-9138750D01*
X5557500Y-8578750D02*
G75*
G02*
X5507500Y-8528750I0J50000D01*
G01*
X17206250Y-14868750D02*
X17206250Y-16168750D01*
X21182500Y-9088750D02*
G75*
G02*
X21232500Y-9138750I0J-50000D01*
G01*
X7385000Y-16168750D02*
G75*
G02*
X7335000Y-16218750I-50000J0D01*
G01*
X25612500Y-10488750D02*
G75*
G02*
X25562500Y-10438750I0J50000D01*
G01*
X29910000Y-12398750D02*
G75*
G02*
X29860000Y-12348750I0J50000D01*
G01*
X35507500Y-9088750D02*
X34207500Y-9088750D01*
X13675000Y-14308750D02*
X14975000Y-14308750D01*
X24657500Y-8578750D02*
X25957500Y-8578750D01*
X14212500Y-14818250D02*
X14212500Y-14768750D01*
X20837500Y-8578750D02*
G75*
G02*
X20787500Y-8528750I0J50000D01*
G01*
X31770000Y-9138750D02*
X31770000Y-10438750D01*
X15213750Y-14818750D02*
G75*
G02*
X15263750Y-14868750I0J-50000D01*
G01*
X19882500Y-10488750D02*
X21182500Y-10488750D01*
X24525000Y-12908750D02*
G75*
G02*
X24575000Y-12958750I0J-50000D01*
G01*
X17412500Y-10438750D02*
G75*
G02*
X17362500Y-10488750I-50000J0D01*
G01*
X15107500Y-8578750D02*
X16407500Y-8578750D01*
X19322500Y-10438750D02*
G75*
G02*
X19272500Y-10488750I-50000J0D01*
G01*
X32886300Y-8678750D02*
G75*
G02*
X32836300Y-8628750I0J50000D01*
G01*
X14152500Y-10488750D02*
X15452500Y-10488750D01*
X13019950Y-14768750D02*
G75*
G02*
X13069950Y-14718750I50000J0D01*
G01*
X6907500Y-8528750D02*
G75*
G02*
X6857500Y-8578750I-50000J0D01*
G01*
X26007500Y-8528750D02*
X26007500Y-7228750D01*
X34207500Y-10488750D02*
G75*
G02*
X34157500Y-10438750I0J50000D01*
G01*
X32297500Y-14308750D02*
G75*
G02*
X32247500Y-14258750I0J50000D01*
G01*
X35557500Y-16168750D02*
X35557500Y-14868750D01*
X8133750Y-14868750D02*
G75*
G02*
X8183750Y-14818750I50000J0D01*
G01*
X8850000Y-11048750D02*
G75*
G02*
X8900000Y-10998750I50000J0D01*
G01*
X7417500Y-7228750D02*
X7417500Y-8528750D01*
X15263750Y-16168750D02*
G75*
G02*
X15213750Y-16218750I-50000J0D01*
G01*
X7573750Y-10998750D02*
G75*
G02*
X7623750Y-11048750I0J-50000D01*
G01*
X21076250Y-16218750D02*
G75*
G02*
X21026250Y-16168750I0J50000D01*
G01*
X32247500Y-14868750D02*
X32247500Y-16168750D01*
X25002500Y-9088750D02*
G75*
G02*
X25052500Y-9138750I0J-50000D01*
G01*
X23175000Y-12958750D02*
X23175000Y-14258750D01*
X20755000Y-14258750D02*
G75*
G02*
X20705000Y-14308750I-50000J0D01*
G01*
X7573750Y-10998750D02*
X5796250Y-10998750D01*
X30259950Y-12498750D02*
X30859950Y-12498750D01*
X21076250Y-16218750D02*
X22376250Y-16218750D01*
X26007500Y-8528750D02*
G75*
G02*
X25957500Y-8578750I-50000J0D01*
G01*
X35507500Y-14818750D02*
G75*
G02*
X35557500Y-14868750I0J-50000D01*
G01*
X12242500Y-10488750D02*
X13542500Y-10488750D01*
X27390000Y-10998750D02*
G75*
G02*
X27440000Y-11048750I0J-50000D01*
G01*
X33297550Y-11443750D02*
X33358750Y-11443750D01*
X26567500Y-8578750D02*
X27867500Y-8578750D01*
X29621250Y-12958750D02*
G75*
G02*
X29671250Y-12908750I50000J0D01*
G01*
X31021250Y-14258750D02*
X31021250Y-12958750D01*
X32836300Y-8578750D02*
X32836300Y-8628750D01*
X17840000Y-10998750D02*
X16540000Y-10998750D01*
X8945050Y-14358750D02*
G75*
G02*
X8895050Y-14408750I-50000J0D01*
G01*
X29671250Y-14308750D02*
X30971250Y-14308750D01*
X9772500Y-10438750D02*
G75*
G02*
X9722500Y-10488750I-50000J0D01*
G01*
X8422500Y-10488750D02*
G75*
G02*
X8372500Y-10438750I0J50000D01*
G01*
X28000000Y-12398750D02*
X29300000Y-12398750D01*
X16967500Y-7228750D02*
G75*
G02*
X17017500Y-7178750I50000J0D01*
G01*
X30387500Y-8578750D02*
G75*
G02*
X30337500Y-8528750I0J50000D01*
G01*
X19322500Y-10438750D02*
X19322500Y-9138750D01*
X16062500Y-10488750D02*
G75*
G02*
X16012500Y-10438750I0J50000D01*
G01*
X31820000Y-10488750D02*
X32008750Y-10488750D01*
X13115000Y-14258750D02*
G75*
G02*
X13065000Y-14308750I-50000J0D01*
G01*
X20787500Y-7228750D02*
G75*
G02*
X20837500Y-7178750I50000J0D01*
G01*
X29777500Y-7178750D02*
X28477500Y-7178750D01*
X24097500Y-8528750D02*
X24097500Y-7228750D01*
X35507500Y-9088750D02*
G75*
G02*
X35557500Y-9138750I0J-50000D01*
G01*
X19272500Y-9088750D02*
X17972500Y-9088750D01*
X32886300Y-8678750D02*
X33486300Y-8678750D01*
X16457500Y-8528750D02*
X16457500Y-7228750D01*
X33597500Y-7178750D02*
X30387500Y-7178750D01*
X29827500Y-8528750D02*
G75*
G02*
X29777500Y-8578750I-50000J0D01*
G01*
X24180000Y-12398750D02*
X25480000Y-12398750D01*
X16490000Y-11048750D02*
G75*
G02*
X16540000Y-10998750I50000J0D01*
G01*
X20360000Y-12398750D02*
G75*
G02*
X20310000Y-12348750I0J50000D01*
G01*
X22615000Y-12908750D02*
X21315000Y-12908750D01*
X27440000Y-12348750D02*
X27440000Y-11048750D01*
X13069950Y-16218750D02*
X15213750Y-16218750D01*
X8945050Y-14358750D02*
X8945000Y-14309250D01*
X19832500Y-9138750D02*
X19832500Y-10438750D01*
X25002500Y-9088750D02*
X23702500Y-9088750D01*
X12110000Y-10998750D02*
G75*
G02*
X12160000Y-11048750I0J-50000D01*
G01*
X21660000Y-10998750D02*
G75*
G02*
X21710000Y-11048750I0J-50000D01*
G01*
X9722500Y-14818750D02*
G75*
G02*
X9772500Y-14868750I0J-50000D01*
G01*
X20882450Y-16168750D02*
G75*
G02*
X20832450Y-16218750I-50000J0D01*
G01*
X11715000Y-12958750D02*
G75*
G02*
X11765000Y-12908750I50000J0D01*
G01*
X34207500Y-12398750D02*
G75*
G02*
X34157500Y-12348750I0J50000D01*
G01*
X33647500Y-16168750D02*
G75*
G02*
X33597500Y-16218750I-50000J0D01*
G01*
X32597550Y-12287550D02*
X32597550Y-12448750D01*
X24942500Y-14818750D02*
X24896250Y-14818750D01*
X9772500Y-16168750D02*
X9772500Y-14868750D01*
X17972500Y-10488750D02*
G75*
G02*
X17922500Y-10438750I0J50000D01*
G01*
X32297500Y-16218750D02*
G75*
G02*
X32247500Y-16168750I0J50000D01*
G01*
X33170000Y-9199950D02*
X33170000Y-9138750D01*
X23570000Y-10998750D02*
G75*
G02*
X23620000Y-11048750I0J-50000D01*
G01*
X15407550Y-14768750D02*
X15407550Y-16168750D01*
X34157500Y-12958750D02*
X34157500Y-14258750D01*
X26912500Y-9088750D02*
G75*
G02*
X26962500Y-9138750I0J-50000D01*
G01*
X33120000Y-9088750D02*
G75*
G02*
X33170000Y-9138750I0J-50000D01*
G01*
X21315000Y-14308750D02*
X22615000Y-14308750D01*
X22426250Y-16168750D02*
G75*
G02*
X22376250Y-16218750I-50000J0D01*
G01*
X5557500Y-8578750D02*
X6857500Y-8578750D01*
X33408750Y-12237550D02*
X33408750Y-11637550D01*
X26995000Y-12958750D02*
G75*
G02*
X27045000Y-12908750I50000J0D01*
G01*
X12242500Y-10488750D02*
G75*
G02*
X12192500Y-10438750I0J50000D01*
G01*
X20837500Y-8578750D02*
X22137500Y-8578750D01*
X28822500Y-9088750D02*
X27522500Y-9088750D01*
X30387500Y-8578750D02*
X30448700Y-8578750D01*
X10332500Y-10488750D02*
X11632500Y-10488750D01*
X23142500Y-10438750D02*
X23142500Y-9138750D01*
X35557500Y-10438750D02*
G75*
G02*
X35507500Y-10488750I-50000J0D01*
G01*
X33297550Y-12287550D02*
X33358750Y-12287550D01*
X32008750Y-10488750D02*
X32008750Y-10998750D01*
X27917500Y-8528750D02*
G75*
G02*
X27867500Y-8578750I-50000J0D01*
G01*
X10282500Y-9138750D02*
X10282500Y-10438750D01*
X22570050Y-14768750D02*
X22570050Y-16168750D01*
X22426250Y-16168750D02*
X22426250Y-14868750D01*
X30971250Y-12908750D02*
G75*
G02*
X31021250Y-12958750I0J-50000D01*
G01*
X22570050Y-14768750D02*
G75*
G02*
X22620050Y-14718750I50000J0D01*
G01*
X33647500Y-8528750D02*
X33647500Y-7228750D01*
X17206250Y-14868750D02*
G75*
G02*
X17256250Y-14818750I50000J0D01*
G01*
X25642500Y-14818750D02*
X25642500Y-14768750D01*
X28345000Y-12908750D02*
G75*
G02*
X28395000Y-12958750I0J-50000D01*
G01*
X12587500Y-7178750D02*
G75*
G02*
X12637500Y-7228750I0J-50000D01*
G01*
X20832450Y-14718750D02*
G75*
G02*
X20882450Y-14768750I0J-50000D01*
G01*
X18845000Y-14258750D02*
G75*
G02*
X18795000Y-14308750I-50000J0D01*
G01*
X22697500Y-7228750D02*
X22697500Y-8528750D01*
X9855000Y-14308750D02*
G75*
G02*
X9805000Y-14258750I0J50000D01*
G01*
X22187500Y-8528750D02*
G75*
G02*
X22137500Y-8578750I-50000J0D01*
G01*
X15213750Y-14818750D02*
X14212500Y-14818250D01*
X8183750Y-16218750D02*
G75*
G02*
X8133750Y-16168750I0J50000D01*
G01*
X8850000Y-11048750D02*
X8850000Y-12348750D01*
X33597500Y-12908750D02*
G75*
G02*
X33647500Y-12958750I0J-50000D01*
G01*
X33358750Y-9199950D02*
G75*
G02*
X33408750Y-9249950I0J-50000D01*
G01*
X31148700Y-8578750D02*
X32836300Y-8578750D01*
X13542500Y-9088750D02*
X12242500Y-9088750D01*
X30337500Y-14868750D02*
X30337500Y-16168750D01*
X28345000Y-12908750D02*
X27045000Y-12908750D01*
X32647550Y-12498750D02*
X33247550Y-12498750D01*
X17256250Y-16218750D02*
X20832450Y-16218750D01*
X18795000Y-12908750D02*
G75*
G02*
X18845000Y-12958750I0J-50000D01*
G01*
X22270000Y-12398750D02*
X23570000Y-12398750D01*
X27867500Y-7178750D02*
G75*
G02*
X27917500Y-7228750I0J-50000D01*
G01*
X16490000Y-11048750D02*
X16490000Y-12348750D01*
X35557500Y-14258750D02*
G75*
G02*
X35507500Y-14308750I-50000J0D01*
G01*
X27045000Y-16218750D02*
G75*
G02*
X26995000Y-16168750I0J50000D01*
G01*
X13019950Y-14768750D02*
X13019950Y-16168750D01*
X15263750Y-16168750D02*
X15263750Y-14868750D01*
X26567500Y-8578750D02*
G75*
G02*
X26517500Y-8528750I0J50000D01*
G01*
X25135000Y-14308750D02*
X26435000Y-14308750D01*
X23652500Y-9138750D02*
G75*
G02*
X23702500Y-9088750I50000J0D01*
G01*
X23225000Y-14308750D02*
G75*
G02*
X23175000Y-14258750I0J50000D01*
G01*
X6035000Y-10488750D02*
G75*
G02*
X5985000Y-10438750I0J50000D01*
G01*
X9295000Y-14258750D02*
G75*
G02*
X9245000Y-14308750I-50000J0D01*
G01*
X28633750Y-16168750D02*
G75*
G02*
X28583750Y-16218750I-50000J0D01*
G01*
X5796250Y-12398750D02*
G75*
G02*
X5746250Y-12348750I0J50000D01*
G01*
X24047500Y-7178750D02*
X22747500Y-7178750D01*
X11632500Y-9088750D02*
G75*
G02*
X11682500Y-9138750I0J-50000D01*
G01*
X26435000Y-12908750D02*
G75*
G02*
X26485000Y-12958750I0J-50000D01*
G01*
X26246250Y-16168750D02*
G75*
G02*
X26196250Y-16218750I-50000J0D01*
G01*
X32453750Y-12348750D02*
X32453750Y-12287550D01*
X33358750Y-11587550D02*
G75*
G02*
X33408750Y-11637550I0J-50000D01*
G01*
D11*
X36051250Y-17190000D02*
X5013750Y-17190000D01*
D10*
X9295000Y-14258750D02*
X9295000Y-12958750D01*
X33536300Y-8628750D02*
X33536300Y-8578750D01*
X17445000Y-12958750D02*
X17445000Y-14258750D01*
X34157500Y-11048750D02*
X34157500Y-12348750D01*
X33408750Y-9849950D02*
G75*
G02*
X33358750Y-9899950I-50000J0D01*
G01*
X5746250Y-14868750D02*
G75*
G02*
X5796250Y-14818750I50000J0D01*
G01*
X28395000Y-14258750D02*
X28395000Y-12958750D01*
X5796250Y-12398750D02*
X7573750Y-12398750D01*
X22376250Y-14818750D02*
X21076250Y-14818750D01*
X12637500Y-8528750D02*
G75*
G02*
X12587500Y-8578750I-50000J0D01*
G01*
X23570000Y-10998750D02*
X22270000Y-10998750D01*
D11*
X5013750Y-17190000D02*
G75*
G02*
X4536250Y-16712500I0J477500D01*
G01*
D10*
X16407500Y-7178750D02*
X15107500Y-7178750D01*
X8295050Y-14408750D02*
X8895050Y-14408750D01*
X21315000Y-14308750D02*
G75*
G02*
X21265000Y-14258750I0J50000D01*
G01*
X20787500Y-7228750D02*
X20787500Y-8528750D01*
X7623750Y-12348750D02*
G75*
G02*
X7573750Y-12398750I-50000J0D01*
G01*
X29860000Y-11048750D02*
G75*
G02*
X29910000Y-10998750I50000J0D01*
G01*
X27390000Y-10998750D02*
X26090000Y-10998750D01*
X17362500Y-9088750D02*
G75*
G02*
X17412500Y-9138750I0J-50000D01*
G01*
X23733750Y-16168750D02*
X23733750Y-14768750D01*
X9327500Y-7228750D02*
G75*
G02*
X9377500Y-7178750I50000J0D01*
G01*
X11682500Y-10438750D02*
G75*
G02*
X11632500Y-10488750I-50000J0D01*
G01*
X34157500Y-14868750D02*
G75*
G02*
X34207500Y-14818750I50000J0D01*
G01*
X33408750Y-11393750D02*
G75*
G02*
X33358750Y-11443750I-50000J0D01*
G01*
X5985000Y-9138750D02*
X5985000Y-10438750D01*
X30732500Y-9088750D02*
X29432500Y-9088750D01*
X23683750Y-14718750D02*
G75*
G02*
X23733750Y-14768750I0J-50000D01*
G01*
X33170000Y-9899950D02*
X33170000Y-10043750D01*
X20182450Y-14818250D02*
X17256250Y-14818750D01*
X11237500Y-7228750D02*
X11237500Y-8528750D01*
X21232500Y-10438750D02*
G75*
G02*
X21182500Y-10488750I-50000J0D01*
G01*
X6857500Y-7178750D02*
X5557500Y-7178750D01*
X21710000Y-12348750D02*
G75*
G02*
X21660000Y-12398750I-50000J0D01*
G01*
X30448700Y-8578750D02*
X30448700Y-8628750D01*
X16935000Y-14258750D02*
X16935000Y-12958750D01*
X5796250Y-16218750D02*
G75*
G02*
X5746250Y-16168750I0J50000D01*
G01*
X35557500Y-8528750D02*
G75*
G02*
X35507500Y-8578750I-50000J0D01*
G01*
X16540000Y-12398750D02*
X17840000Y-12398750D01*
X18317500Y-7178750D02*
X17017500Y-7178750D01*
X19800000Y-12348750D02*
G75*
G02*
X19750000Y-12398750I-50000J0D01*
G01*
X6857500Y-7178750D02*
G75*
G02*
X6907500Y-7228750I0J-50000D01*
G01*
X11765000Y-14308750D02*
X13065000Y-14308750D01*
X5907450Y-14408750D02*
G75*
G02*
X5857450Y-14358750I0J50000D01*
G01*
X34207500Y-8578750D02*
G75*
G02*
X34157500Y-8528750I0J50000D01*
G01*
X8900000Y-12398750D02*
X10200000Y-12398750D01*
X9327500Y-7228750D02*
X9327500Y-8528750D01*
X8900000Y-12398750D02*
G75*
G02*
X8850000Y-12348750I0J50000D01*
G01*
X8372500Y-9138750D02*
X8372500Y-10438750D01*
X31820000Y-10488750D02*
G75*
G02*
X31770000Y-10438750I0J50000D01*
G01*
X10200000Y-10998750D02*
G75*
G02*
X10250000Y-11048750I0J-50000D01*
G01*
X7335000Y-9088750D02*
X6035000Y-9088750D01*
X24130000Y-11048750D02*
G75*
G02*
X24180000Y-10998750I50000J0D01*
G01*
X34207500Y-8578750D02*
X35507500Y-8578750D01*
X28583750Y-14818750D02*
G75*
G02*
X28633750Y-14868750I0J-50000D01*
G01*
X9722500Y-14818750D02*
X8183750Y-14818750D01*
X11682500Y-10438750D02*
X11682500Y-9138750D01*
X15502500Y-10438750D02*
X15502500Y-9138750D01*
X32647550Y-12498750D02*
G75*
G02*
X32597550Y-12448750I0J50000D01*
G01*
X24607500Y-7228750D02*
G75*
G02*
X24657500Y-7178750I50000J0D01*
G01*
X33358750Y-9199950D02*
X33170000Y-9199950D01*
X14020000Y-10998750D02*
G75*
G02*
X14070000Y-11048750I0J-50000D01*
G01*
X28872500Y-10438750D02*
X28872500Y-9138750D01*
X10810000Y-12398750D02*
G75*
G02*
X10760000Y-12348750I0J50000D01*
G01*
X24942500Y-14768750D02*
G75*
G02*
X24992500Y-14718750I50000J0D01*
G01*
X15930000Y-10998750D02*
G75*
G02*
X15980000Y-11048750I0J-50000D01*
G01*
X5985000Y-9138750D02*
G75*
G02*
X6035000Y-9088750I50000J0D01*
G01*
X8817500Y-8528750D02*
X8817500Y-7228750D01*
X26517500Y-7228750D02*
G75*
G02*
X26567500Y-7178750I50000J0D01*
G01*
X29777500Y-7178750D02*
G75*
G02*
X29827500Y-7228750I0J-50000D01*
G01*
X15457550Y-16218750D02*
G75*
G02*
X15407550Y-16168750I0J50000D01*
G01*
X9722500Y-9088750D02*
X8422500Y-9088750D01*
X28477500Y-8578750D02*
G75*
G02*
X28427500Y-8528750I0J50000D01*
G01*
X13625000Y-12958750D02*
X13625000Y-14258750D01*
X7335000Y-14818750D02*
G75*
G02*
X7385000Y-14868750I0J-50000D01*
G01*
X29671250Y-14308750D02*
G75*
G02*
X29621250Y-14258750I0J50000D01*
G01*
X14020000Y-10998750D02*
X12720000Y-10998750D01*
X17017500Y-8578750D02*
X18317500Y-8578750D01*
X24047500Y-7178750D02*
G75*
G02*
X24097500Y-7228750I0J-50000D01*
G01*
X15107500Y-8578750D02*
G75*
G02*
X15057500Y-8528750I0J50000D01*
G01*
X12637500Y-8528750D02*
X12637500Y-7228750D01*
X33120000Y-9088750D02*
X31820000Y-9088750D01*
X14630000Y-12398750D02*
X15930000Y-12398750D01*
X27045000Y-14308750D02*
G75*
G02*
X26995000Y-14258750I0J50000D01*
G01*
X29350000Y-12348750D02*
G75*
G02*
X29300000Y-12398750I-50000J0D01*
G01*
X9805000Y-12958750D02*
X9805000Y-14258750D01*
X14102500Y-9138750D02*
G75*
G02*
X14152500Y-9088750I50000J0D01*
G01*
X27472500Y-9138750D02*
X27472500Y-10438750D01*
X24097500Y-8528750D02*
G75*
G02*
X24047500Y-8578750I-50000J0D01*
G01*
X20310000Y-11048750D02*
G75*
G02*
X20360000Y-10998750I50000J0D01*
G01*
X21742500Y-9138750D02*
X21742500Y-10438750D01*
X7335000Y-9088750D02*
G75*
G02*
X7385000Y-9138750I0J-50000D01*
G01*
X10521250Y-14868750D02*
G75*
G02*
X10571250Y-14818750I50000J0D01*
G01*
X15057500Y-7228750D02*
G75*
G02*
X15107500Y-7178750I50000J0D01*
G01*
X29382500Y-9138750D02*
G75*
G02*
X29432500Y-9088750I50000J0D01*
G01*
X20277500Y-8528750D02*
X20277500Y-7228750D01*
X32247500Y-12958750D02*
X32247500Y-14258750D01*
X23683750Y-14718750D02*
X22620050Y-14718750D01*
X31687500Y-14818750D02*
X30387500Y-14818750D01*
X32247500Y-14868750D02*
G75*
G02*
X32297500Y-14818750I50000J0D01*
G01*
X5746250Y-11048750D02*
X5746250Y-12348750D01*
X9245000Y-12908750D02*
X5796250Y-12908750D01*
X24657500Y-8578750D02*
G75*
G02*
X24607500Y-8528750I0J50000D01*
G01*
X8767500Y-7178750D02*
G75*
G02*
X8817500Y-7228750I0J-50000D01*
G01*
X15535000Y-12958750D02*
G75*
G02*
X15585000Y-12908750I50000J0D01*
G01*
X16457500Y-8528750D02*
G75*
G02*
X16407500Y-8578750I-50000J0D01*
G01*
X20705000Y-12908750D02*
X19405000Y-12908750D01*
X12160000Y-16168750D02*
X12160000Y-14868750D01*
X13197500Y-8578750D02*
X14497500Y-8578750D01*
X23225000Y-14308750D02*
X24525000Y-14308750D01*
X8422500Y-10488750D02*
X9722500Y-10488750D01*
X35507500Y-10998750D02*
X34207500Y-10998750D01*
X16967500Y-7228750D02*
X16967500Y-8528750D01*
X9772500Y-10438750D02*
X9772500Y-9138750D01*
X23142500Y-10438750D02*
G75*
G02*
X23092500Y-10488750I-50000J0D01*
G01*
X34157500Y-7228750D02*
G75*
G02*
X34207500Y-7178750I50000J0D01*
G01*
X33408750Y-9849950D02*
X33408750Y-9249950D01*
X29621250Y-12958750D02*
X29621250Y-14258750D01*
X19800000Y-12348750D02*
X19800000Y-11048750D01*
X24525000Y-12908750D02*
X23225000Y-12908750D01*
X5907450Y-14408750D02*
X6507450Y-14408750D01*
X18877500Y-7228750D02*
G75*
G02*
X18927500Y-7178750I50000J0D01*
G01*
X21660000Y-10998750D02*
X20360000Y-10998750D01*
X7467500Y-8578750D02*
G75*
G02*
X7417500Y-8528750I0J50000D01*
G01*
X29350000Y-12348750D02*
X29350000Y-11048750D01*
X22665000Y-14258750D02*
X22665000Y-12958750D01*
X10810000Y-12398750D02*
X12110000Y-12398750D01*
X28872500Y-10438750D02*
G75*
G02*
X28822500Y-10488750I-50000J0D01*
G01*
X15930000Y-10998750D02*
X14630000Y-10998750D01*
X17495000Y-14308750D02*
G75*
G02*
X17445000Y-14258750I0J50000D01*
G01*
X16107550Y-16168750D02*
X16107550Y-14768750D01*
X14497500Y-7178750D02*
X13197500Y-7178750D01*
X12160000Y-12348750D02*
X12160000Y-11048750D01*
X21792500Y-10488750D02*
X23092500Y-10488750D01*
X10332500Y-10488750D02*
G75*
G02*
X10282500Y-10438750I0J50000D01*
G01*
X15407550Y-14768750D02*
G75*
G02*
X15457550Y-14718750I50000J0D01*
G01*
X30909950Y-12448750D02*
X30909950Y-12398750D01*
X28583750Y-14818750D02*
X27045000Y-14818750D01*
X20277500Y-8528750D02*
G75*
G02*
X20227500Y-8578750I-50000J0D01*
G01*
X35507500Y-10998750D02*
G75*
G02*
X35557500Y-11048750I0J-50000D01*
G01*
X21265000Y-12958750D02*
G75*
G02*
X21315000Y-12908750I50000J0D01*
G01*
X18927500Y-8578750D02*
G75*
G02*
X18877500Y-8528750I0J50000D01*
G01*
X18400000Y-11048750D02*
G75*
G02*
X18450000Y-10998750I50000J0D01*
G01*
X9377500Y-8578750D02*
X10677500Y-8578750D01*
X24846250Y-14868750D02*
X24846250Y-16168750D01*
X25562500Y-9138750D02*
X25562500Y-10438750D01*
X9377500Y-8578750D02*
G75*
G02*
X9327500Y-8528750I0J50000D01*
G01*
X21265000Y-12958750D02*
X21265000Y-14258750D01*
X13069950Y-16218750D02*
G75*
G02*
X13019950Y-16168750I0J50000D01*
G01*
X34157500Y-14868750D02*
X34157500Y-16168750D01*
X23092500Y-9088750D02*
X21792500Y-9088750D01*
X25592500Y-14718750D02*
G75*
G02*
X25642500Y-14768750I0J-50000D01*
G01*
X15585000Y-14308750D02*
X16885000Y-14308750D01*
X15980000Y-12348750D02*
X15980000Y-11048750D01*
X33647500Y-14258750D02*
G75*
G02*
X33597500Y-14308750I-50000J0D01*
G01*
X13675000Y-14308750D02*
G75*
G02*
X13625000Y-14258750I0J50000D01*
G01*
X16057550Y-14718750D02*
G75*
G02*
X16107550Y-14768750I0J-50000D01*
G01*
X35507500Y-14818750D02*
X34207500Y-14818750D01*
X11205000Y-14258750D02*
X11205000Y-12958750D01*
X29432500Y-10488750D02*
X30732500Y-10488750D01*
X24942500Y-14818250D02*
X24942500Y-14768750D01*
X22747500Y-8578750D02*
G75*
G02*
X22697500Y-8528750I0J50000D01*
G01*
X33297550Y-11587550D02*
X33297550Y-11443750D01*
X29300000Y-10998750D02*
X28000000Y-10998750D01*
X17890000Y-12348750D02*
G75*
G02*
X17840000Y-12398750I-50000J0D01*
G01*
X11237500Y-7228750D02*
G75*
G02*
X11287500Y-7178750I50000J0D01*
G01*
X10250000Y-12348750D02*
X10250000Y-11048750D01*
X23702500Y-10488750D02*
G75*
G02*
X23652500Y-10438750I0J50000D01*
G01*
X12110000Y-10998750D02*
X10810000Y-10998750D01*
X33647500Y-8528750D02*
G75*
G02*
X33597500Y-8578750I-50000J0D01*
G01*
X17445000Y-12958750D02*
G75*
G02*
X17495000Y-12908750I50000J0D01*
G01*
X17362500Y-9088750D02*
X16062500Y-9088750D01*
X20227500Y-7178750D02*
X18927500Y-7178750D01*
X22620050Y-16218750D02*
G75*
G02*
X22570050Y-16168750I0J50000D01*
G01*
X14162500Y-14718750D02*
X13069950Y-14718750D01*
X29910000Y-12398750D02*
X30209950Y-12398750D01*
X33597500Y-14818750D02*
G75*
G02*
X33647500Y-14868750I0J-50000D01*
G01*
X7335000Y-14818750D02*
X5796250Y-14818750D01*
X29432500Y-10488750D02*
G75*
G02*
X29382500Y-10438750I0J50000D01*
G01*
X22376250Y-14818750D02*
G75*
G02*
X22426250Y-14868750I0J-50000D01*
G01*
X10727500Y-8528750D02*
X10727500Y-7228750D01*
X26196250Y-14818750D02*
G75*
G02*
X26246250Y-14868750I0J-50000D01*
G01*
X26962500Y-10438750D02*
X26962500Y-9138750D01*
X34207500Y-10488750D02*
X35507500Y-10488750D01*
X21026250Y-14868750D02*
X21026250Y-16168750D01*
X28822500Y-9088750D02*
G75*
G02*
X28872500Y-9138750I0J-50000D01*
G01*
X8945000Y-14309250D02*
X9245000Y-14308750D01*
X9245000Y-12908750D02*
G75*
G02*
X9295000Y-12958750I0J-50000D01*
G01*
X10760000Y-11048750D02*
G75*
G02*
X10810000Y-10998750I50000J0D01*
G01*
X28395000Y-14258750D02*
G75*
G02*
X28345000Y-14308750I-50000J0D01*
G01*
X31687500Y-14818750D02*
G75*
G02*
X31737500Y-14868750I0J-50000D01*
G01*
D11*
X5013750Y-6923750D02*
X36051250Y-6923750D01*
D10*
X22620050Y-16218750D02*
X23683750Y-16218750D01*
X31148700Y-8628750D02*
X31148700Y-8578750D01*
X30732500Y-9088750D02*
G75*
G02*
X30782500Y-9138750I0J-50000D01*
G01*
X19405000Y-14308750D02*
G75*
G02*
X19355000Y-14258750I0J50000D01*
G01*
X24180000Y-12398750D02*
G75*
G02*
X24130000Y-12348750I0J50000D01*
G01*
D12*
X4789527Y-17508984D02*
X4789527Y-17308984D01*
X4789527Y-17308984D02*
X4837146Y-17308984D01*
X4837146Y-17308984D02*
X4865717Y-17318508D01*
X4865717Y-17318508D02*
X4884765Y-17337555D01*
X4884765Y-17337555D02*
X4894289Y-17356603D01*
X4894289Y-17356603D02*
X4903813Y-17394698D01*
X4903813Y-17394698D02*
X4903813Y-17423270D01*
X4903813Y-17423270D02*
X4894289Y-17461365D01*
X4894289Y-17461365D02*
X4884765Y-17480412D01*
X4884765Y-17480412D02*
X4865717Y-17499460D01*
X4865717Y-17499460D02*
X4837146Y-17508984D01*
X4837146Y-17508984D02*
X4789527Y-17508984D01*
X4989527Y-17508984D02*
X4989527Y-17375650D01*
X4989527Y-17413746D02*
X4999051Y-17394698D01*
X4999051Y-17394698D02*
X5008574Y-17385174D01*
X5008574Y-17385174D02*
X5027622Y-17375650D01*
X5027622Y-17375650D02*
X5046670Y-17375650D01*
X5113336Y-17508984D02*
X5113336Y-17375650D01*
X5113336Y-17308984D02*
X5103813Y-17318508D01*
X5103813Y-17318508D02*
X5113336Y-17328031D01*
X5113336Y-17328031D02*
X5122860Y-17318508D01*
X5122860Y-17318508D02*
X5113336Y-17308984D01*
X5113336Y-17308984D02*
X5113336Y-17328031D01*
X5237146Y-17508984D02*
X5218098Y-17499460D01*
X5218098Y-17499460D02*
X5208574Y-17480412D01*
X5208574Y-17480412D02*
X5208574Y-17308984D01*
X5341908Y-17508984D02*
X5322860Y-17499460D01*
X5322860Y-17499460D02*
X5313336Y-17480412D01*
X5313336Y-17480412D02*
X5313336Y-17308984D01*
X5570479Y-17508984D02*
X5570479Y-17308984D01*
X5570479Y-17308984D02*
X5637146Y-17451841D01*
X5637146Y-17451841D02*
X5703812Y-17308984D01*
X5703812Y-17308984D02*
X5703812Y-17508984D01*
X5884765Y-17508984D02*
X5884765Y-17404222D01*
X5884765Y-17404222D02*
X5875241Y-17385174D01*
X5875241Y-17385174D02*
X5856193Y-17375650D01*
X5856193Y-17375650D02*
X5818098Y-17375650D01*
X5818098Y-17375650D02*
X5799051Y-17385174D01*
X5884765Y-17499460D02*
X5865717Y-17508984D01*
X5865717Y-17508984D02*
X5818098Y-17508984D01*
X5818098Y-17508984D02*
X5799051Y-17499460D01*
X5799051Y-17499460D02*
X5789527Y-17480412D01*
X5789527Y-17480412D02*
X5789527Y-17461365D01*
X5789527Y-17461365D02*
X5799051Y-17442317D01*
X5799051Y-17442317D02*
X5818098Y-17432793D01*
X5818098Y-17432793D02*
X5865717Y-17432793D01*
X5865717Y-17432793D02*
X5884765Y-17423270D01*
X5980003Y-17375650D02*
X5980003Y-17575650D01*
X5980003Y-17385174D02*
X5999051Y-17375650D01*
X5999051Y-17375650D02*
X6037146Y-17375650D01*
X6037146Y-17375650D02*
X6056193Y-17385174D01*
X6056193Y-17385174D02*
X6065717Y-17394698D01*
X6065717Y-17394698D02*
X6075241Y-17413746D01*
X6075241Y-17413746D02*
X6075241Y-17470889D01*
X6075241Y-17470889D02*
X6065717Y-17489936D01*
X6065717Y-17489936D02*
X6056193Y-17499460D01*
X6056193Y-17499460D02*
X6037146Y-17508984D01*
X6037146Y-17508984D02*
X5999051Y-17508984D01*
X5999051Y-17508984D02*
X5980003Y-17499460D01*
X6160955Y-17489936D02*
X6170479Y-17499460D01*
X6170479Y-17499460D02*
X6160955Y-17508984D01*
X6160955Y-17508984D02*
X6151432Y-17499460D01*
X6151432Y-17499460D02*
X6160955Y-17489936D01*
X6160955Y-17489936D02*
X6160955Y-17508984D01*
X6160955Y-17385174D02*
X6170479Y-17394698D01*
X6170479Y-17394698D02*
X6160955Y-17404222D01*
X6160955Y-17404222D02*
X6151432Y-17394698D01*
X6151432Y-17394698D02*
X6160955Y-17385174D01*
X6160955Y-17385174D02*
X6160955Y-17404222D01*
M02*
