G04 #@! TF.GenerationSoftware,KiCad,Pcbnew,8.0.4*
G04 #@! TF.CreationDate,2024-08-20T13:39:42+02:00*
G04 #@! TF.ProjectId,lagom,6c61676f-6d2e-46b6-9963-61645f706362,rev?*
G04 #@! TF.SameCoordinates,Original*
G04 #@! TF.FileFunction,Legend,Bot*
G04 #@! TF.FilePolarity,Positive*
%FSLAX46Y46*%
G04 Gerber Fmt 4.6, Leading zero omitted, Abs format (unit mm)*
G04 Created by KiCad (PCBNEW 8.0.4) date 2024-08-20 13:39:42*
%MOMM*%
%LPD*%
G01*
G04 APERTURE LIST*
G04 Aperture macros list*
%AMRoundRect*
0 Rectangle with rounded corners*
0 $1 Rounding radius*
0 $2 $3 $4 $5 $6 $7 $8 $9 X,Y pos of 4 corners*
0 Add a 4 corners polygon primitive as box body*
4,1,4,$2,$3,$4,$5,$6,$7,$8,$9,$2,$3,0*
0 Add four circle primitives for the rounded corners*
1,1,$1+$1,$2,$3*
1,1,$1+$1,$4,$5*
1,1,$1+$1,$6,$7*
1,1,$1+$1,$8,$9*
0 Add four rect primitives between the rounded corners*
20,1,$1+$1,$2,$3,$4,$5,0*
20,1,$1+$1,$4,$5,$6,$7,0*
20,1,$1+$1,$6,$7,$8,$9,0*
20,1,$1+$1,$8,$9,$2,$3,0*%
G04 Aperture macros list end*
%ADD10C,0.150000*%
%ADD11C,0.120000*%
%ADD12C,0.381000*%
%ADD13C,1.700000*%
%ADD14C,4.000000*%
%ADD15R,2.550000X2.500000*%
%ADD16C,3.050000*%
%ADD17R,1.700000X1.700000*%
%ADD18O,1.700000X1.700000*%
%ADD19R,2.000000X1.800000*%
%ADD20R,2.000000X2.000000*%
%ADD21C,2.000000*%
%ADD22R,2.000000X3.200000*%
%ADD23R,2.250000X2.250000*%
%ADD24C,2.250000*%
%ADD25RoundRect,0.250000X-0.625000X0.350000X-0.625000X-0.350000X0.625000X-0.350000X0.625000X0.350000X0*%
%ADD26O,1.750000X1.200000*%
%ADD27R,1.752600X1.752600*%
%ADD28C,1.752600*%
G04 APERTURE END LIST*
D10*
X212762381Y-118932228D02*
X212619524Y-118979847D01*
X212619524Y-118979847D02*
X212381429Y-118979847D01*
X212381429Y-118979847D02*
X212286191Y-118932228D01*
X212286191Y-118932228D02*
X212238572Y-118884608D01*
X212238572Y-118884608D02*
X212190953Y-118789370D01*
X212190953Y-118789370D02*
X212190953Y-118694132D01*
X212190953Y-118694132D02*
X212238572Y-118598894D01*
X212238572Y-118598894D02*
X212286191Y-118551275D01*
X212286191Y-118551275D02*
X212381429Y-118503656D01*
X212381429Y-118503656D02*
X212571905Y-118456037D01*
X212571905Y-118456037D02*
X212667143Y-118408418D01*
X212667143Y-118408418D02*
X212714762Y-118360799D01*
X212714762Y-118360799D02*
X212762381Y-118265561D01*
X212762381Y-118265561D02*
X212762381Y-118170323D01*
X212762381Y-118170323D02*
X212714762Y-118075085D01*
X212714762Y-118075085D02*
X212667143Y-118027466D01*
X212667143Y-118027466D02*
X212571905Y-117979847D01*
X212571905Y-117979847D02*
X212333810Y-117979847D01*
X212333810Y-117979847D02*
X212190953Y-118027466D01*
X211905238Y-117979847D02*
X211333810Y-117979847D01*
X211619524Y-118979847D02*
X211619524Y-117979847D01*
X211000476Y-118979847D02*
X211000476Y-117979847D01*
X211000476Y-118456037D02*
X210429048Y-118456037D01*
X210429048Y-118979847D02*
X210429048Y-117979847D01*
X209476667Y-118979847D02*
X209952857Y-118979847D01*
X209952857Y-118979847D02*
X209952857Y-117979847D01*
X209143333Y-118979847D02*
X209143333Y-117979847D01*
X209143333Y-117979847D02*
X208810000Y-118694132D01*
X208810000Y-118694132D02*
X208476667Y-117979847D01*
X208476667Y-117979847D02*
X208476667Y-118979847D01*
X207238571Y-118979847D02*
X207238571Y-117979847D01*
X206667143Y-118979847D02*
X207095714Y-118408418D01*
X206667143Y-117979847D02*
X207238571Y-118551275D01*
X205905238Y-118456037D02*
X205762381Y-118503656D01*
X205762381Y-118503656D02*
X205714762Y-118551275D01*
X205714762Y-118551275D02*
X205667143Y-118646513D01*
X205667143Y-118646513D02*
X205667143Y-118789370D01*
X205667143Y-118789370D02*
X205714762Y-118884608D01*
X205714762Y-118884608D02*
X205762381Y-118932228D01*
X205762381Y-118932228D02*
X205857619Y-118979847D01*
X205857619Y-118979847D02*
X206238571Y-118979847D01*
X206238571Y-118979847D02*
X206238571Y-117979847D01*
X206238571Y-117979847D02*
X205905238Y-117979847D01*
X205905238Y-117979847D02*
X205810000Y-118027466D01*
X205810000Y-118027466D02*
X205762381Y-118075085D01*
X205762381Y-118075085D02*
X205714762Y-118170323D01*
X205714762Y-118170323D02*
X205714762Y-118265561D01*
X205714762Y-118265561D02*
X205762381Y-118360799D01*
X205762381Y-118360799D02*
X205810000Y-118408418D01*
X205810000Y-118408418D02*
X205905238Y-118456037D01*
X205905238Y-118456037D02*
X206238571Y-118456037D01*
X204333809Y-118979847D02*
X204429047Y-118932228D01*
X204429047Y-118932228D02*
X204476666Y-118836989D01*
X204476666Y-118836989D02*
X204476666Y-117979847D01*
X203524285Y-118979847D02*
X203524285Y-118456037D01*
X203524285Y-118456037D02*
X203571904Y-118360799D01*
X203571904Y-118360799D02*
X203667142Y-118313180D01*
X203667142Y-118313180D02*
X203857618Y-118313180D01*
X203857618Y-118313180D02*
X203952856Y-118360799D01*
X203524285Y-118932228D02*
X203619523Y-118979847D01*
X203619523Y-118979847D02*
X203857618Y-118979847D01*
X203857618Y-118979847D02*
X203952856Y-118932228D01*
X203952856Y-118932228D02*
X204000475Y-118836989D01*
X204000475Y-118836989D02*
X204000475Y-118741751D01*
X204000475Y-118741751D02*
X203952856Y-118646513D01*
X203952856Y-118646513D02*
X203857618Y-118598894D01*
X203857618Y-118598894D02*
X203619523Y-118598894D01*
X203619523Y-118598894D02*
X203524285Y-118551275D01*
X202619523Y-118313180D02*
X202619523Y-119122704D01*
X202619523Y-119122704D02*
X202667142Y-119217942D01*
X202667142Y-119217942D02*
X202714761Y-119265561D01*
X202714761Y-119265561D02*
X202809999Y-119313180D01*
X202809999Y-119313180D02*
X202952856Y-119313180D01*
X202952856Y-119313180D02*
X203048094Y-119265561D01*
X202619523Y-118932228D02*
X202714761Y-118979847D01*
X202714761Y-118979847D02*
X202905237Y-118979847D01*
X202905237Y-118979847D02*
X203000475Y-118932228D01*
X203000475Y-118932228D02*
X203048094Y-118884608D01*
X203048094Y-118884608D02*
X203095713Y-118789370D01*
X203095713Y-118789370D02*
X203095713Y-118503656D01*
X203095713Y-118503656D02*
X203048094Y-118408418D01*
X203048094Y-118408418D02*
X203000475Y-118360799D01*
X203000475Y-118360799D02*
X202905237Y-118313180D01*
X202905237Y-118313180D02*
X202714761Y-118313180D01*
X202714761Y-118313180D02*
X202619523Y-118360799D01*
X202000475Y-118979847D02*
X202095713Y-118932228D01*
X202095713Y-118932228D02*
X202143332Y-118884608D01*
X202143332Y-118884608D02*
X202190951Y-118789370D01*
X202190951Y-118789370D02*
X202190951Y-118503656D01*
X202190951Y-118503656D02*
X202143332Y-118408418D01*
X202143332Y-118408418D02*
X202095713Y-118360799D01*
X202095713Y-118360799D02*
X202000475Y-118313180D01*
X202000475Y-118313180D02*
X201857618Y-118313180D01*
X201857618Y-118313180D02*
X201762380Y-118360799D01*
X201762380Y-118360799D02*
X201714761Y-118408418D01*
X201714761Y-118408418D02*
X201667142Y-118503656D01*
X201667142Y-118503656D02*
X201667142Y-118789370D01*
X201667142Y-118789370D02*
X201714761Y-118884608D01*
X201714761Y-118884608D02*
X201762380Y-118932228D01*
X201762380Y-118932228D02*
X201857618Y-118979847D01*
X201857618Y-118979847D02*
X202000475Y-118979847D01*
X201238570Y-118979847D02*
X201238570Y-118313180D01*
X201238570Y-118408418D02*
X201190951Y-118360799D01*
X201190951Y-118360799D02*
X201095713Y-118313180D01*
X201095713Y-118313180D02*
X200952856Y-118313180D01*
X200952856Y-118313180D02*
X200857618Y-118360799D01*
X200857618Y-118360799D02*
X200809999Y-118456037D01*
X200809999Y-118456037D02*
X200809999Y-118979847D01*
X200809999Y-118456037D02*
X200762380Y-118360799D01*
X200762380Y-118360799D02*
X200667142Y-118313180D01*
X200667142Y-118313180D02*
X200524285Y-118313180D01*
X200524285Y-118313180D02*
X200429046Y-118360799D01*
X200429046Y-118360799D02*
X200381427Y-118456037D01*
X200381427Y-118456037D02*
X200381427Y-118979847D01*
X199238570Y-118313180D02*
X199000475Y-118979847D01*
X199000475Y-118979847D02*
X198762380Y-118313180D01*
X197857618Y-118979847D02*
X198429046Y-118979847D01*
X198143332Y-118979847D02*
X198143332Y-117979847D01*
X198143332Y-117979847D02*
X198238570Y-118122704D01*
X198238570Y-118122704D02*
X198333808Y-118217942D01*
X198333808Y-118217942D02*
X198429046Y-118265561D01*
X211357619Y-120589791D02*
X211357619Y-119589791D01*
X211357619Y-120542172D02*
X211452857Y-120589791D01*
X211452857Y-120589791D02*
X211643333Y-120589791D01*
X211643333Y-120589791D02*
X211738571Y-120542172D01*
X211738571Y-120542172D02*
X211786190Y-120494552D01*
X211786190Y-120494552D02*
X211833809Y-120399314D01*
X211833809Y-120399314D02*
X211833809Y-120113600D01*
X211833809Y-120113600D02*
X211786190Y-120018362D01*
X211786190Y-120018362D02*
X211738571Y-119970743D01*
X211738571Y-119970743D02*
X211643333Y-119923124D01*
X211643333Y-119923124D02*
X211452857Y-119923124D01*
X211452857Y-119923124D02*
X211357619Y-119970743D01*
X210500476Y-120542172D02*
X210595714Y-120589791D01*
X210595714Y-120589791D02*
X210786190Y-120589791D01*
X210786190Y-120589791D02*
X210881428Y-120542172D01*
X210881428Y-120542172D02*
X210929047Y-120446933D01*
X210929047Y-120446933D02*
X210929047Y-120065981D01*
X210929047Y-120065981D02*
X210881428Y-119970743D01*
X210881428Y-119970743D02*
X210786190Y-119923124D01*
X210786190Y-119923124D02*
X210595714Y-119923124D01*
X210595714Y-119923124D02*
X210500476Y-119970743D01*
X210500476Y-119970743D02*
X210452857Y-120065981D01*
X210452857Y-120065981D02*
X210452857Y-120161219D01*
X210452857Y-120161219D02*
X210929047Y-120256457D01*
X210071904Y-120542172D02*
X209976666Y-120589791D01*
X209976666Y-120589791D02*
X209786190Y-120589791D01*
X209786190Y-120589791D02*
X209690952Y-120542172D01*
X209690952Y-120542172D02*
X209643333Y-120446933D01*
X209643333Y-120446933D02*
X209643333Y-120399314D01*
X209643333Y-120399314D02*
X209690952Y-120304076D01*
X209690952Y-120304076D02*
X209786190Y-120256457D01*
X209786190Y-120256457D02*
X209929047Y-120256457D01*
X209929047Y-120256457D02*
X210024285Y-120208838D01*
X210024285Y-120208838D02*
X210071904Y-120113600D01*
X210071904Y-120113600D02*
X210071904Y-120065981D01*
X210071904Y-120065981D02*
X210024285Y-119970743D01*
X210024285Y-119970743D02*
X209929047Y-119923124D01*
X209929047Y-119923124D02*
X209786190Y-119923124D01*
X209786190Y-119923124D02*
X209690952Y-119970743D01*
X209214761Y-120589791D02*
X209214761Y-119923124D01*
X209214761Y-119589791D02*
X209262380Y-119637410D01*
X209262380Y-119637410D02*
X209214761Y-119685029D01*
X209214761Y-119685029D02*
X209167142Y-119637410D01*
X209167142Y-119637410D02*
X209214761Y-119589791D01*
X209214761Y-119589791D02*
X209214761Y-119685029D01*
X208310000Y-119923124D02*
X208310000Y-120732648D01*
X208310000Y-120732648D02*
X208357619Y-120827886D01*
X208357619Y-120827886D02*
X208405238Y-120875505D01*
X208405238Y-120875505D02*
X208500476Y-120923124D01*
X208500476Y-120923124D02*
X208643333Y-120923124D01*
X208643333Y-120923124D02*
X208738571Y-120875505D01*
X208310000Y-120542172D02*
X208405238Y-120589791D01*
X208405238Y-120589791D02*
X208595714Y-120589791D01*
X208595714Y-120589791D02*
X208690952Y-120542172D01*
X208690952Y-120542172D02*
X208738571Y-120494552D01*
X208738571Y-120494552D02*
X208786190Y-120399314D01*
X208786190Y-120399314D02*
X208786190Y-120113600D01*
X208786190Y-120113600D02*
X208738571Y-120018362D01*
X208738571Y-120018362D02*
X208690952Y-119970743D01*
X208690952Y-119970743D02*
X208595714Y-119923124D01*
X208595714Y-119923124D02*
X208405238Y-119923124D01*
X208405238Y-119923124D02*
X208310000Y-119970743D01*
X207833809Y-119923124D02*
X207833809Y-120589791D01*
X207833809Y-120018362D02*
X207786190Y-119970743D01*
X207786190Y-119970743D02*
X207690952Y-119923124D01*
X207690952Y-119923124D02*
X207548095Y-119923124D01*
X207548095Y-119923124D02*
X207452857Y-119970743D01*
X207452857Y-119970743D02*
X207405238Y-120065981D01*
X207405238Y-120065981D02*
X207405238Y-120589791D01*
X206167142Y-120589791D02*
X206167142Y-119589791D01*
X206167142Y-119970743D02*
X206071904Y-119923124D01*
X206071904Y-119923124D02*
X205881428Y-119923124D01*
X205881428Y-119923124D02*
X205786190Y-119970743D01*
X205786190Y-119970743D02*
X205738571Y-120018362D01*
X205738571Y-120018362D02*
X205690952Y-120113600D01*
X205690952Y-120113600D02*
X205690952Y-120399314D01*
X205690952Y-120399314D02*
X205738571Y-120494552D01*
X205738571Y-120494552D02*
X205786190Y-120542172D01*
X205786190Y-120542172D02*
X205881428Y-120589791D01*
X205881428Y-120589791D02*
X206071904Y-120589791D01*
X206071904Y-120589791D02*
X206167142Y-120542172D01*
X205357618Y-119923124D02*
X205119523Y-120589791D01*
X204881428Y-119923124D02*
X205119523Y-120589791D01*
X205119523Y-120589791D02*
X205214761Y-120827886D01*
X205214761Y-120827886D02*
X205262380Y-120875505D01*
X205262380Y-120875505D02*
X205357618Y-120923124D01*
X203738570Y-120589791D02*
X203738570Y-119923124D01*
X203738570Y-120018362D02*
X203690951Y-119970743D01*
X203690951Y-119970743D02*
X203595713Y-119923124D01*
X203595713Y-119923124D02*
X203452856Y-119923124D01*
X203452856Y-119923124D02*
X203357618Y-119970743D01*
X203357618Y-119970743D02*
X203309999Y-120065981D01*
X203309999Y-120065981D02*
X203309999Y-120589791D01*
X203309999Y-120065981D02*
X203262380Y-119970743D01*
X203262380Y-119970743D02*
X203167142Y-119923124D01*
X203167142Y-119923124D02*
X203024285Y-119923124D01*
X203024285Y-119923124D02*
X202929046Y-119970743D01*
X202929046Y-119970743D02*
X202881427Y-120065981D01*
X202881427Y-120065981D02*
X202881427Y-120589791D01*
X202262380Y-120589791D02*
X202357618Y-120542172D01*
X202357618Y-120542172D02*
X202405237Y-120494552D01*
X202405237Y-120494552D02*
X202452856Y-120399314D01*
X202452856Y-120399314D02*
X202452856Y-120113600D01*
X202452856Y-120113600D02*
X202405237Y-120018362D01*
X202405237Y-120018362D02*
X202357618Y-119970743D01*
X202357618Y-119970743D02*
X202262380Y-119923124D01*
X202262380Y-119923124D02*
X202119523Y-119923124D01*
X202119523Y-119923124D02*
X202024285Y-119970743D01*
X202024285Y-119970743D02*
X201976666Y-120018362D01*
X201976666Y-120018362D02*
X201929047Y-120113600D01*
X201929047Y-120113600D02*
X201929047Y-120399314D01*
X201929047Y-120399314D02*
X201976666Y-120494552D01*
X201976666Y-120494552D02*
X202024285Y-120542172D01*
X202024285Y-120542172D02*
X202119523Y-120589791D01*
X202119523Y-120589791D02*
X202262380Y-120589791D01*
X201500475Y-120589791D02*
X201500475Y-119589791D01*
X201071904Y-120589791D02*
X201071904Y-120065981D01*
X201071904Y-120065981D02*
X201119523Y-119970743D01*
X201119523Y-119970743D02*
X201214761Y-119923124D01*
X201214761Y-119923124D02*
X201357618Y-119923124D01*
X201357618Y-119923124D02*
X201452856Y-119970743D01*
X201452856Y-119970743D02*
X201500475Y-120018362D01*
X200452856Y-120589791D02*
X200548094Y-120542172D01*
X200548094Y-120542172D02*
X200595713Y-120494552D01*
X200595713Y-120494552D02*
X200643332Y-120399314D01*
X200643332Y-120399314D02*
X200643332Y-120113600D01*
X200643332Y-120113600D02*
X200595713Y-120018362D01*
X200595713Y-120018362D02*
X200548094Y-119970743D01*
X200548094Y-119970743D02*
X200452856Y-119923124D01*
X200452856Y-119923124D02*
X200309999Y-119923124D01*
X200309999Y-119923124D02*
X200214761Y-119970743D01*
X200214761Y-119970743D02*
X200167142Y-120018362D01*
X200167142Y-120018362D02*
X200119523Y-120113600D01*
X200119523Y-120113600D02*
X200119523Y-120399314D01*
X200119523Y-120399314D02*
X200167142Y-120494552D01*
X200167142Y-120494552D02*
X200214761Y-120542172D01*
X200214761Y-120542172D02*
X200309999Y-120589791D01*
X200309999Y-120589791D02*
X200452856Y-120589791D01*
X199786189Y-119923124D02*
X199548094Y-120589791D01*
X199309999Y-119923124D02*
X199548094Y-120589791D01*
X199548094Y-120589791D02*
X199643332Y-120827886D01*
X199643332Y-120827886D02*
X199690951Y-120875505D01*
X199690951Y-120875505D02*
X199786189Y-120923124D01*
X199071903Y-119923124D02*
X198690951Y-119923124D01*
X198929046Y-119589791D02*
X198929046Y-120446933D01*
X198929046Y-120446933D02*
X198881427Y-120542172D01*
X198881427Y-120542172D02*
X198786189Y-120589791D01*
X198786189Y-120589791D02*
X198690951Y-120589791D01*
X83092680Y-110422857D02*
X83092680Y-110899047D01*
X83092680Y-110899047D02*
X84092680Y-110899047D01*
X83616490Y-110089523D02*
X83616490Y-109756190D01*
X83092680Y-109613333D02*
X83092680Y-110089523D01*
X83092680Y-110089523D02*
X84092680Y-110089523D01*
X84092680Y-110089523D02*
X84092680Y-109613333D01*
X83092680Y-109184761D02*
X84092680Y-109184761D01*
X84092680Y-109184761D02*
X84092680Y-108946666D01*
X84092680Y-108946666D02*
X84045061Y-108803809D01*
X84045061Y-108803809D02*
X83949823Y-108708571D01*
X83949823Y-108708571D02*
X83854585Y-108660952D01*
X83854585Y-108660952D02*
X83664109Y-108613333D01*
X83664109Y-108613333D02*
X83521252Y-108613333D01*
X83521252Y-108613333D02*
X83330776Y-108660952D01*
X83330776Y-108660952D02*
X83235538Y-108708571D01*
X83235538Y-108708571D02*
X83140300Y-108803809D01*
X83140300Y-108803809D02*
X83092680Y-108946666D01*
X83092680Y-108946666D02*
X83092680Y-109184761D01*
X61407200Y-47489286D02*
X61454819Y-47632143D01*
X61454819Y-47632143D02*
X61454819Y-47870238D01*
X61454819Y-47870238D02*
X61407200Y-47965476D01*
X61407200Y-47965476D02*
X61359580Y-48013095D01*
X61359580Y-48013095D02*
X61264342Y-48060714D01*
X61264342Y-48060714D02*
X61169104Y-48060714D01*
X61169104Y-48060714D02*
X61073866Y-48013095D01*
X61073866Y-48013095D02*
X61026247Y-47965476D01*
X61026247Y-47965476D02*
X60978628Y-47870238D01*
X60978628Y-47870238D02*
X60931009Y-47679762D01*
X60931009Y-47679762D02*
X60883390Y-47584524D01*
X60883390Y-47584524D02*
X60835771Y-47536905D01*
X60835771Y-47536905D02*
X60740533Y-47489286D01*
X60740533Y-47489286D02*
X60645295Y-47489286D01*
X60645295Y-47489286D02*
X60550057Y-47536905D01*
X60550057Y-47536905D02*
X60502438Y-47584524D01*
X60502438Y-47584524D02*
X60454819Y-47679762D01*
X60454819Y-47679762D02*
X60454819Y-47917857D01*
X60454819Y-47917857D02*
X60502438Y-48060714D01*
X60454819Y-48394048D02*
X61454819Y-48632143D01*
X61454819Y-48632143D02*
X60740533Y-48822619D01*
X60740533Y-48822619D02*
X61454819Y-49013095D01*
X61454819Y-49013095D02*
X60454819Y-49251191D01*
X61550057Y-49394048D02*
X61550057Y-50155952D01*
X61454819Y-50394048D02*
X60454819Y-50394048D01*
X60454819Y-50394048D02*
X60454819Y-50775000D01*
X60454819Y-50775000D02*
X60502438Y-50870238D01*
X60502438Y-50870238D02*
X60550057Y-50917857D01*
X60550057Y-50917857D02*
X60645295Y-50965476D01*
X60645295Y-50965476D02*
X60788152Y-50965476D01*
X60788152Y-50965476D02*
X60883390Y-50917857D01*
X60883390Y-50917857D02*
X60931009Y-50870238D01*
X60931009Y-50870238D02*
X60978628Y-50775000D01*
X60978628Y-50775000D02*
X60978628Y-50394048D01*
X60454819Y-51298810D02*
X61454819Y-51536905D01*
X61454819Y-51536905D02*
X60740533Y-51727381D01*
X60740533Y-51727381D02*
X61454819Y-51917857D01*
X61454819Y-51917857D02*
X60454819Y-52155953D01*
X61454819Y-53060714D02*
X61454819Y-52489286D01*
X61454819Y-52775000D02*
X60454819Y-52775000D01*
X60454819Y-52775000D02*
X60597676Y-52679762D01*
X60597676Y-52679762D02*
X60692914Y-52584524D01*
X60692914Y-52584524D02*
X60740533Y-52489286D01*
X70731009Y-49314285D02*
X70778628Y-49457142D01*
X70778628Y-49457142D02*
X70826247Y-49504761D01*
X70826247Y-49504761D02*
X70921485Y-49552380D01*
X70921485Y-49552380D02*
X71064342Y-49552380D01*
X71064342Y-49552380D02*
X71159580Y-49504761D01*
X71159580Y-49504761D02*
X71207200Y-49457142D01*
X71207200Y-49457142D02*
X71254819Y-49361904D01*
X71254819Y-49361904D02*
X71254819Y-48980952D01*
X71254819Y-48980952D02*
X70254819Y-48980952D01*
X70254819Y-48980952D02*
X70254819Y-49314285D01*
X70254819Y-49314285D02*
X70302438Y-49409523D01*
X70302438Y-49409523D02*
X70350057Y-49457142D01*
X70350057Y-49457142D02*
X70445295Y-49504761D01*
X70445295Y-49504761D02*
X70540533Y-49504761D01*
X70540533Y-49504761D02*
X70635771Y-49457142D01*
X70635771Y-49457142D02*
X70683390Y-49409523D01*
X70683390Y-49409523D02*
X70731009Y-49314285D01*
X70731009Y-49314285D02*
X70731009Y-48980952D01*
X70254819Y-49838095D02*
X70254819Y-50409523D01*
X71254819Y-50123809D02*
X70254819Y-50123809D01*
X71254819Y-51266666D02*
X71254819Y-50695238D01*
X71254819Y-50980952D02*
X70254819Y-50980952D01*
X70254819Y-50980952D02*
X70397676Y-50885714D01*
X70397676Y-50885714D02*
X70492914Y-50790476D01*
X70492914Y-50790476D02*
X70540533Y-50695238D01*
X59190476Y-44562295D02*
X58733333Y-44562295D01*
X58961905Y-45362295D02*
X58961905Y-44562295D01*
X58542857Y-44562295D02*
X58009523Y-45362295D01*
X58009523Y-44562295D02*
X58542857Y-45362295D01*
X57552380Y-44562295D02*
X57476190Y-44562295D01*
X57476190Y-44562295D02*
X57399999Y-44600390D01*
X57399999Y-44600390D02*
X57361904Y-44638485D01*
X57361904Y-44638485D02*
X57323809Y-44714676D01*
X57323809Y-44714676D02*
X57285714Y-44867057D01*
X57285714Y-44867057D02*
X57285714Y-45057533D01*
X57285714Y-45057533D02*
X57323809Y-45209914D01*
X57323809Y-45209914D02*
X57361904Y-45286104D01*
X57361904Y-45286104D02*
X57399999Y-45324200D01*
X57399999Y-45324200D02*
X57476190Y-45362295D01*
X57476190Y-45362295D02*
X57552380Y-45362295D01*
X57552380Y-45362295D02*
X57628571Y-45324200D01*
X57628571Y-45324200D02*
X57666666Y-45286104D01*
X57666666Y-45286104D02*
X57704761Y-45209914D01*
X57704761Y-45209914D02*
X57742857Y-45057533D01*
X57742857Y-45057533D02*
X57742857Y-44867057D01*
X57742857Y-44867057D02*
X57704761Y-44714676D01*
X57704761Y-44714676D02*
X57666666Y-44638485D01*
X57666666Y-44638485D02*
X57628571Y-44600390D01*
X57628571Y-44600390D02*
X57552380Y-44562295D01*
X56371428Y-44524200D02*
X57057142Y-45552771D01*
X56104761Y-45362295D02*
X56104761Y-44562295D01*
X56104761Y-44562295D02*
X55914285Y-44562295D01*
X55914285Y-44562295D02*
X55799999Y-44600390D01*
X55799999Y-44600390D02*
X55723809Y-44676580D01*
X55723809Y-44676580D02*
X55685714Y-44752771D01*
X55685714Y-44752771D02*
X55647618Y-44905152D01*
X55647618Y-44905152D02*
X55647618Y-45019438D01*
X55647618Y-45019438D02*
X55685714Y-45171819D01*
X55685714Y-45171819D02*
X55723809Y-45248009D01*
X55723809Y-45248009D02*
X55799999Y-45324200D01*
X55799999Y-45324200D02*
X55914285Y-45362295D01*
X55914285Y-45362295D02*
X56104761Y-45362295D01*
X55380952Y-44562295D02*
X54885714Y-44562295D01*
X54885714Y-44562295D02*
X55152380Y-44867057D01*
X55152380Y-44867057D02*
X55038095Y-44867057D01*
X55038095Y-44867057D02*
X54961904Y-44905152D01*
X54961904Y-44905152D02*
X54923809Y-44943247D01*
X54923809Y-44943247D02*
X54885714Y-45019438D01*
X54885714Y-45019438D02*
X54885714Y-45209914D01*
X54885714Y-45209914D02*
X54923809Y-45286104D01*
X54923809Y-45286104D02*
X54961904Y-45324200D01*
X54961904Y-45324200D02*
X55038095Y-45362295D01*
X55038095Y-45362295D02*
X55266666Y-45362295D01*
X55266666Y-45362295D02*
X55342857Y-45324200D01*
X55342857Y-45324200D02*
X55380952Y-45286104D01*
X80443247Y-44079119D02*
X80443247Y-44345785D01*
X80862295Y-44460071D02*
X80862295Y-44079119D01*
X80862295Y-44079119D02*
X80062295Y-44079119D01*
X80062295Y-44079119D02*
X80062295Y-44460071D01*
X80062295Y-45145786D02*
X80062295Y-44993405D01*
X80062295Y-44993405D02*
X80100390Y-44917214D01*
X80100390Y-44917214D02*
X80138485Y-44879119D01*
X80138485Y-44879119D02*
X80252771Y-44802929D01*
X80252771Y-44802929D02*
X80405152Y-44764833D01*
X80405152Y-44764833D02*
X80709914Y-44764833D01*
X80709914Y-44764833D02*
X80786104Y-44802929D01*
X80786104Y-44802929D02*
X80824200Y-44841024D01*
X80824200Y-44841024D02*
X80862295Y-44917214D01*
X80862295Y-44917214D02*
X80862295Y-45069595D01*
X80862295Y-45069595D02*
X80824200Y-45145786D01*
X80824200Y-45145786D02*
X80786104Y-45183881D01*
X80786104Y-45183881D02*
X80709914Y-45221976D01*
X80709914Y-45221976D02*
X80519438Y-45221976D01*
X80519438Y-45221976D02*
X80443247Y-45183881D01*
X80443247Y-45183881D02*
X80405152Y-45145786D01*
X80405152Y-45145786D02*
X80367057Y-45069595D01*
X80367057Y-45069595D02*
X80367057Y-44917214D01*
X80367057Y-44917214D02*
X80405152Y-44841024D01*
X80405152Y-44841024D02*
X80443247Y-44802929D01*
X80443247Y-44802929D02*
X80519438Y-44764833D01*
X75363247Y-55286833D02*
X75363247Y-55020167D01*
X75782295Y-55020167D02*
X74982295Y-55020167D01*
X74982295Y-55020167D02*
X74982295Y-55401119D01*
X74982295Y-55629690D02*
X74982295Y-56163024D01*
X74982295Y-56163024D02*
X75782295Y-55820166D01*
X82983247Y-44307690D02*
X83021342Y-44421976D01*
X83021342Y-44421976D02*
X83059438Y-44460071D01*
X83059438Y-44460071D02*
X83135628Y-44498167D01*
X83135628Y-44498167D02*
X83249914Y-44498167D01*
X83249914Y-44498167D02*
X83326104Y-44460071D01*
X83326104Y-44460071D02*
X83364200Y-44421976D01*
X83364200Y-44421976D02*
X83402295Y-44345786D01*
X83402295Y-44345786D02*
X83402295Y-44041024D01*
X83402295Y-44041024D02*
X82602295Y-44041024D01*
X82602295Y-44041024D02*
X82602295Y-44307690D01*
X82602295Y-44307690D02*
X82640390Y-44383881D01*
X82640390Y-44383881D02*
X82678485Y-44421976D01*
X82678485Y-44421976D02*
X82754676Y-44460071D01*
X82754676Y-44460071D02*
X82830866Y-44460071D01*
X82830866Y-44460071D02*
X82907057Y-44421976D01*
X82907057Y-44421976D02*
X82945152Y-44383881D01*
X82945152Y-44383881D02*
X82983247Y-44307690D01*
X82983247Y-44307690D02*
X82983247Y-44041024D01*
X82868961Y-45183881D02*
X83402295Y-45183881D01*
X82564200Y-44993405D02*
X83135628Y-44802928D01*
X83135628Y-44802928D02*
X83135628Y-45298167D01*
X70702295Y-44041024D02*
X69902295Y-44041024D01*
X69902295Y-44041024D02*
X69902295Y-44231500D01*
X69902295Y-44231500D02*
X69940390Y-44345786D01*
X69940390Y-44345786D02*
X70016580Y-44421976D01*
X70016580Y-44421976D02*
X70092771Y-44460071D01*
X70092771Y-44460071D02*
X70245152Y-44498167D01*
X70245152Y-44498167D02*
X70359438Y-44498167D01*
X70359438Y-44498167D02*
X70511819Y-44460071D01*
X70511819Y-44460071D02*
X70588009Y-44421976D01*
X70588009Y-44421976D02*
X70664200Y-44345786D01*
X70664200Y-44345786D02*
X70702295Y-44231500D01*
X70702295Y-44231500D02*
X70702295Y-44041024D01*
X69902295Y-44993405D02*
X69902295Y-45069595D01*
X69902295Y-45069595D02*
X69940390Y-45145786D01*
X69940390Y-45145786D02*
X69978485Y-45183881D01*
X69978485Y-45183881D02*
X70054676Y-45221976D01*
X70054676Y-45221976D02*
X70207057Y-45260071D01*
X70207057Y-45260071D02*
X70397533Y-45260071D01*
X70397533Y-45260071D02*
X70549914Y-45221976D01*
X70549914Y-45221976D02*
X70626104Y-45183881D01*
X70626104Y-45183881D02*
X70664200Y-45145786D01*
X70664200Y-45145786D02*
X70702295Y-45069595D01*
X70702295Y-45069595D02*
X70702295Y-44993405D01*
X70702295Y-44993405D02*
X70664200Y-44917214D01*
X70664200Y-44917214D02*
X70626104Y-44879119D01*
X70626104Y-44879119D02*
X70549914Y-44841024D01*
X70549914Y-44841024D02*
X70397533Y-44802928D01*
X70397533Y-44802928D02*
X70207057Y-44802928D01*
X70207057Y-44802928D02*
X70054676Y-44841024D01*
X70054676Y-44841024D02*
X69978485Y-44879119D01*
X69978485Y-44879119D02*
X69940390Y-44917214D01*
X69940390Y-44917214D02*
X69902295Y-44993405D01*
X60542295Y-44041024D02*
X59742295Y-44041024D01*
X59742295Y-44041024D02*
X59742295Y-44231500D01*
X59742295Y-44231500D02*
X59780390Y-44345786D01*
X59780390Y-44345786D02*
X59856580Y-44421976D01*
X59856580Y-44421976D02*
X59932771Y-44460071D01*
X59932771Y-44460071D02*
X60085152Y-44498167D01*
X60085152Y-44498167D02*
X60199438Y-44498167D01*
X60199438Y-44498167D02*
X60351819Y-44460071D01*
X60351819Y-44460071D02*
X60428009Y-44421976D01*
X60428009Y-44421976D02*
X60504200Y-44345786D01*
X60504200Y-44345786D02*
X60542295Y-44231500D01*
X60542295Y-44231500D02*
X60542295Y-44041024D01*
X59818485Y-44802928D02*
X59780390Y-44841024D01*
X59780390Y-44841024D02*
X59742295Y-44917214D01*
X59742295Y-44917214D02*
X59742295Y-45107690D01*
X59742295Y-45107690D02*
X59780390Y-45183881D01*
X59780390Y-45183881D02*
X59818485Y-45221976D01*
X59818485Y-45221976D02*
X59894676Y-45260071D01*
X59894676Y-45260071D02*
X59970866Y-45260071D01*
X59970866Y-45260071D02*
X60085152Y-45221976D01*
X60085152Y-45221976D02*
X60542295Y-44764833D01*
X60542295Y-44764833D02*
X60542295Y-45260071D01*
X63329523Y-43700390D02*
X63405713Y-43662295D01*
X63405713Y-43662295D02*
X63519999Y-43662295D01*
X63519999Y-43662295D02*
X63634285Y-43700390D01*
X63634285Y-43700390D02*
X63710475Y-43776580D01*
X63710475Y-43776580D02*
X63748570Y-43852771D01*
X63748570Y-43852771D02*
X63786666Y-44005152D01*
X63786666Y-44005152D02*
X63786666Y-44119438D01*
X63786666Y-44119438D02*
X63748570Y-44271819D01*
X63748570Y-44271819D02*
X63710475Y-44348009D01*
X63710475Y-44348009D02*
X63634285Y-44424200D01*
X63634285Y-44424200D02*
X63519999Y-44462295D01*
X63519999Y-44462295D02*
X63443808Y-44462295D01*
X63443808Y-44462295D02*
X63329523Y-44424200D01*
X63329523Y-44424200D02*
X63291427Y-44386104D01*
X63291427Y-44386104D02*
X63291427Y-44119438D01*
X63291427Y-44119438D02*
X63443808Y-44119438D01*
X62948570Y-44462295D02*
X62948570Y-43662295D01*
X62948570Y-43662295D02*
X62491427Y-44462295D01*
X62491427Y-44462295D02*
X62491427Y-43662295D01*
X62110475Y-44462295D02*
X62110475Y-43662295D01*
X62110475Y-43662295D02*
X61919999Y-43662295D01*
X61919999Y-43662295D02*
X61805713Y-43700390D01*
X61805713Y-43700390D02*
X61729523Y-43776580D01*
X61729523Y-43776580D02*
X61691428Y-43852771D01*
X61691428Y-43852771D02*
X61653332Y-44005152D01*
X61653332Y-44005152D02*
X61653332Y-44119438D01*
X61653332Y-44119438D02*
X61691428Y-44271819D01*
X61691428Y-44271819D02*
X61729523Y-44348009D01*
X61729523Y-44348009D02*
X61805713Y-44424200D01*
X61805713Y-44424200D02*
X61919999Y-44462295D01*
X61919999Y-44462295D02*
X62110475Y-44462295D01*
X80443247Y-55229690D02*
X80481342Y-55343976D01*
X80481342Y-55343976D02*
X80519438Y-55382071D01*
X80519438Y-55382071D02*
X80595628Y-55420167D01*
X80595628Y-55420167D02*
X80709914Y-55420167D01*
X80709914Y-55420167D02*
X80786104Y-55382071D01*
X80786104Y-55382071D02*
X80824200Y-55343976D01*
X80824200Y-55343976D02*
X80862295Y-55267786D01*
X80862295Y-55267786D02*
X80862295Y-54963024D01*
X80862295Y-54963024D02*
X80062295Y-54963024D01*
X80062295Y-54963024D02*
X80062295Y-55229690D01*
X80062295Y-55229690D02*
X80100390Y-55305881D01*
X80100390Y-55305881D02*
X80138485Y-55343976D01*
X80138485Y-55343976D02*
X80214676Y-55382071D01*
X80214676Y-55382071D02*
X80290866Y-55382071D01*
X80290866Y-55382071D02*
X80367057Y-55343976D01*
X80367057Y-55343976D02*
X80405152Y-55305881D01*
X80405152Y-55305881D02*
X80443247Y-55229690D01*
X80443247Y-55229690D02*
X80443247Y-54963024D01*
X80062295Y-55686833D02*
X80062295Y-56182071D01*
X80062295Y-56182071D02*
X80367057Y-55915405D01*
X80367057Y-55915405D02*
X80367057Y-56029690D01*
X80367057Y-56029690D02*
X80405152Y-56105881D01*
X80405152Y-56105881D02*
X80443247Y-56143976D01*
X80443247Y-56143976D02*
X80519438Y-56182071D01*
X80519438Y-56182071D02*
X80709914Y-56182071D01*
X80709914Y-56182071D02*
X80786104Y-56143976D01*
X80786104Y-56143976D02*
X80824200Y-56105881D01*
X80824200Y-56105881D02*
X80862295Y-56029690D01*
X80862295Y-56029690D02*
X80862295Y-55801119D01*
X80862295Y-55801119D02*
X80824200Y-55724928D01*
X80824200Y-55724928D02*
X80786104Y-55686833D01*
X67743247Y-55286833D02*
X67743247Y-55020167D01*
X68162295Y-55020167D02*
X67362295Y-55020167D01*
X67362295Y-55020167D02*
X67362295Y-55401119D01*
X67628961Y-56048738D02*
X68162295Y-56048738D01*
X67324200Y-55858262D02*
X67895628Y-55667785D01*
X67895628Y-55667785D02*
X67895628Y-56163024D01*
X78322295Y-44041024D02*
X77522295Y-44041024D01*
X77522295Y-44041024D02*
X77522295Y-44231500D01*
X77522295Y-44231500D02*
X77560390Y-44345786D01*
X77560390Y-44345786D02*
X77636580Y-44421976D01*
X77636580Y-44421976D02*
X77712771Y-44460071D01*
X77712771Y-44460071D02*
X77865152Y-44498167D01*
X77865152Y-44498167D02*
X77979438Y-44498167D01*
X77979438Y-44498167D02*
X78131819Y-44460071D01*
X78131819Y-44460071D02*
X78208009Y-44421976D01*
X78208009Y-44421976D02*
X78284200Y-44345786D01*
X78284200Y-44345786D02*
X78322295Y-44231500D01*
X78322295Y-44231500D02*
X78322295Y-44041024D01*
X77522295Y-44764833D02*
X77522295Y-45298167D01*
X77522295Y-45298167D02*
X78322295Y-44955309D01*
X70283247Y-55286833D02*
X70283247Y-55020167D01*
X70702295Y-55020167D02*
X69902295Y-55020167D01*
X69902295Y-55020167D02*
X69902295Y-55401119D01*
X69902295Y-56086833D02*
X69902295Y-55705881D01*
X69902295Y-55705881D02*
X70283247Y-55667785D01*
X70283247Y-55667785D02*
X70245152Y-55705881D01*
X70245152Y-55705881D02*
X70207057Y-55782071D01*
X70207057Y-55782071D02*
X70207057Y-55972547D01*
X70207057Y-55972547D02*
X70245152Y-56048738D01*
X70245152Y-56048738D02*
X70283247Y-56086833D01*
X70283247Y-56086833D02*
X70359438Y-56124928D01*
X70359438Y-56124928D02*
X70549914Y-56124928D01*
X70549914Y-56124928D02*
X70626104Y-56086833D01*
X70626104Y-56086833D02*
X70664200Y-56048738D01*
X70664200Y-56048738D02*
X70702295Y-55972547D01*
X70702295Y-55972547D02*
X70702295Y-55782071D01*
X70702295Y-55782071D02*
X70664200Y-55705881D01*
X70664200Y-55705881D02*
X70626104Y-55667785D01*
X72823247Y-55286833D02*
X72823247Y-55020167D01*
X73242295Y-55020167D02*
X72442295Y-55020167D01*
X72442295Y-55020167D02*
X72442295Y-55401119D01*
X72442295Y-56048738D02*
X72442295Y-55896357D01*
X72442295Y-55896357D02*
X72480390Y-55820166D01*
X72480390Y-55820166D02*
X72518485Y-55782071D01*
X72518485Y-55782071D02*
X72632771Y-55705881D01*
X72632771Y-55705881D02*
X72785152Y-55667785D01*
X72785152Y-55667785D02*
X73089914Y-55667785D01*
X73089914Y-55667785D02*
X73166104Y-55705881D01*
X73166104Y-55705881D02*
X73204200Y-55743976D01*
X73204200Y-55743976D02*
X73242295Y-55820166D01*
X73242295Y-55820166D02*
X73242295Y-55972547D01*
X73242295Y-55972547D02*
X73204200Y-56048738D01*
X73204200Y-56048738D02*
X73166104Y-56086833D01*
X73166104Y-56086833D02*
X73089914Y-56124928D01*
X73089914Y-56124928D02*
X72899438Y-56124928D01*
X72899438Y-56124928D02*
X72823247Y-56086833D01*
X72823247Y-56086833D02*
X72785152Y-56048738D01*
X72785152Y-56048738D02*
X72747057Y-55972547D01*
X72747057Y-55972547D02*
X72747057Y-55820166D01*
X72747057Y-55820166D02*
X72785152Y-55743976D01*
X72785152Y-55743976D02*
X72823247Y-55705881D01*
X72823247Y-55705881D02*
X72899438Y-55667785D01*
X82983247Y-55229690D02*
X83021342Y-55343976D01*
X83021342Y-55343976D02*
X83059438Y-55382071D01*
X83059438Y-55382071D02*
X83135628Y-55420167D01*
X83135628Y-55420167D02*
X83249914Y-55420167D01*
X83249914Y-55420167D02*
X83326104Y-55382071D01*
X83326104Y-55382071D02*
X83364200Y-55343976D01*
X83364200Y-55343976D02*
X83402295Y-55267786D01*
X83402295Y-55267786D02*
X83402295Y-54963024D01*
X83402295Y-54963024D02*
X82602295Y-54963024D01*
X82602295Y-54963024D02*
X82602295Y-55229690D01*
X82602295Y-55229690D02*
X82640390Y-55305881D01*
X82640390Y-55305881D02*
X82678485Y-55343976D01*
X82678485Y-55343976D02*
X82754676Y-55382071D01*
X82754676Y-55382071D02*
X82830866Y-55382071D01*
X82830866Y-55382071D02*
X82907057Y-55343976D01*
X82907057Y-55343976D02*
X82945152Y-55305881D01*
X82945152Y-55305881D02*
X82983247Y-55229690D01*
X82983247Y-55229690D02*
X82983247Y-54963024D01*
X82678485Y-55724928D02*
X82640390Y-55763024D01*
X82640390Y-55763024D02*
X82602295Y-55839214D01*
X82602295Y-55839214D02*
X82602295Y-56029690D01*
X82602295Y-56029690D02*
X82640390Y-56105881D01*
X82640390Y-56105881D02*
X82678485Y-56143976D01*
X82678485Y-56143976D02*
X82754676Y-56182071D01*
X82754676Y-56182071D02*
X82830866Y-56182071D01*
X82830866Y-56182071D02*
X82945152Y-56143976D01*
X82945152Y-56143976D02*
X83402295Y-55686833D01*
X83402295Y-55686833D02*
X83402295Y-56182071D01*
X64860390Y-44182976D02*
X64822295Y-44106786D01*
X64822295Y-44106786D02*
X64822295Y-43992500D01*
X64822295Y-43992500D02*
X64860390Y-43878214D01*
X64860390Y-43878214D02*
X64936580Y-43802024D01*
X64936580Y-43802024D02*
X65012771Y-43763929D01*
X65012771Y-43763929D02*
X65165152Y-43725833D01*
X65165152Y-43725833D02*
X65279438Y-43725833D01*
X65279438Y-43725833D02*
X65431819Y-43763929D01*
X65431819Y-43763929D02*
X65508009Y-43802024D01*
X65508009Y-43802024D02*
X65584200Y-43878214D01*
X65584200Y-43878214D02*
X65622295Y-43992500D01*
X65622295Y-43992500D02*
X65622295Y-44068691D01*
X65622295Y-44068691D02*
X65584200Y-44182976D01*
X65584200Y-44182976D02*
X65546104Y-44221072D01*
X65546104Y-44221072D02*
X65279438Y-44221072D01*
X65279438Y-44221072D02*
X65279438Y-44068691D01*
X65622295Y-44563929D02*
X64822295Y-44563929D01*
X64822295Y-44563929D02*
X65622295Y-45021072D01*
X65622295Y-45021072D02*
X64822295Y-45021072D01*
X65622295Y-45402024D02*
X64822295Y-45402024D01*
X64822295Y-45402024D02*
X64822295Y-45592500D01*
X64822295Y-45592500D02*
X64860390Y-45706786D01*
X64860390Y-45706786D02*
X64936580Y-45782976D01*
X64936580Y-45782976D02*
X65012771Y-45821071D01*
X65012771Y-45821071D02*
X65165152Y-45859167D01*
X65165152Y-45859167D02*
X65279438Y-45859167D01*
X65279438Y-45859167D02*
X65431819Y-45821071D01*
X65431819Y-45821071D02*
X65508009Y-45782976D01*
X65508009Y-45782976D02*
X65584200Y-45706786D01*
X65584200Y-45706786D02*
X65622295Y-45592500D01*
X65622295Y-45592500D02*
X65622295Y-45402024D01*
X73242295Y-44041024D02*
X72442295Y-44041024D01*
X72442295Y-44041024D02*
X72442295Y-44231500D01*
X72442295Y-44231500D02*
X72480390Y-44345786D01*
X72480390Y-44345786D02*
X72556580Y-44421976D01*
X72556580Y-44421976D02*
X72632771Y-44460071D01*
X72632771Y-44460071D02*
X72785152Y-44498167D01*
X72785152Y-44498167D02*
X72899438Y-44498167D01*
X72899438Y-44498167D02*
X73051819Y-44460071D01*
X73051819Y-44460071D02*
X73128009Y-44421976D01*
X73128009Y-44421976D02*
X73204200Y-44345786D01*
X73204200Y-44345786D02*
X73242295Y-44231500D01*
X73242295Y-44231500D02*
X73242295Y-44041024D01*
X72708961Y-45183881D02*
X73242295Y-45183881D01*
X72404200Y-44993405D02*
X72975628Y-44802928D01*
X72975628Y-44802928D02*
X72975628Y-45298167D01*
X58002295Y-55001119D02*
X57621342Y-54734452D01*
X58002295Y-54543976D02*
X57202295Y-54543976D01*
X57202295Y-54543976D02*
X57202295Y-54848738D01*
X57202295Y-54848738D02*
X57240390Y-54924928D01*
X57240390Y-54924928D02*
X57278485Y-54963023D01*
X57278485Y-54963023D02*
X57354676Y-55001119D01*
X57354676Y-55001119D02*
X57468961Y-55001119D01*
X57468961Y-55001119D02*
X57545152Y-54963023D01*
X57545152Y-54963023D02*
X57583247Y-54924928D01*
X57583247Y-54924928D02*
X57621342Y-54848738D01*
X57621342Y-54848738D02*
X57621342Y-54543976D01*
X57773723Y-55305880D02*
X57773723Y-55686833D01*
X58002295Y-55229690D02*
X57202295Y-55496357D01*
X57202295Y-55496357D02*
X58002295Y-55763023D01*
X57202295Y-55953499D02*
X58002295Y-56143975D01*
X58002295Y-56143975D02*
X57430866Y-56296356D01*
X57430866Y-56296356D02*
X58002295Y-56448737D01*
X58002295Y-56448737D02*
X57202295Y-56639214D01*
X75706104Y-44498167D02*
X75744200Y-44460071D01*
X75744200Y-44460071D02*
X75782295Y-44345786D01*
X75782295Y-44345786D02*
X75782295Y-44269595D01*
X75782295Y-44269595D02*
X75744200Y-44155309D01*
X75744200Y-44155309D02*
X75668009Y-44079119D01*
X75668009Y-44079119D02*
X75591819Y-44041024D01*
X75591819Y-44041024D02*
X75439438Y-44002928D01*
X75439438Y-44002928D02*
X75325152Y-44002928D01*
X75325152Y-44002928D02*
X75172771Y-44041024D01*
X75172771Y-44041024D02*
X75096580Y-44079119D01*
X75096580Y-44079119D02*
X75020390Y-44155309D01*
X75020390Y-44155309D02*
X74982295Y-44269595D01*
X74982295Y-44269595D02*
X74982295Y-44345786D01*
X74982295Y-44345786D02*
X75020390Y-44460071D01*
X75020390Y-44460071D02*
X75058485Y-44498167D01*
X74982295Y-45183881D02*
X74982295Y-45031500D01*
X74982295Y-45031500D02*
X75020390Y-44955309D01*
X75020390Y-44955309D02*
X75058485Y-44917214D01*
X75058485Y-44917214D02*
X75172771Y-44841024D01*
X75172771Y-44841024D02*
X75325152Y-44802928D01*
X75325152Y-44802928D02*
X75629914Y-44802928D01*
X75629914Y-44802928D02*
X75706104Y-44841024D01*
X75706104Y-44841024D02*
X75744200Y-44879119D01*
X75744200Y-44879119D02*
X75782295Y-44955309D01*
X75782295Y-44955309D02*
X75782295Y-45107690D01*
X75782295Y-45107690D02*
X75744200Y-45183881D01*
X75744200Y-45183881D02*
X75706104Y-45221976D01*
X75706104Y-45221976D02*
X75629914Y-45260071D01*
X75629914Y-45260071D02*
X75439438Y-45260071D01*
X75439438Y-45260071D02*
X75363247Y-45221976D01*
X75363247Y-45221976D02*
X75325152Y-45183881D01*
X75325152Y-45183881D02*
X75287057Y-45107690D01*
X75287057Y-45107690D02*
X75287057Y-44955309D01*
X75287057Y-44955309D02*
X75325152Y-44879119D01*
X75325152Y-44879119D02*
X75363247Y-44841024D01*
X75363247Y-44841024D02*
X75439438Y-44802928D01*
X64822295Y-54325833D02*
X65622295Y-54592500D01*
X65622295Y-54592500D02*
X64822295Y-54859166D01*
X65546104Y-55582976D02*
X65584200Y-55544880D01*
X65584200Y-55544880D02*
X65622295Y-55430595D01*
X65622295Y-55430595D02*
X65622295Y-55354404D01*
X65622295Y-55354404D02*
X65584200Y-55240118D01*
X65584200Y-55240118D02*
X65508009Y-55163928D01*
X65508009Y-55163928D02*
X65431819Y-55125833D01*
X65431819Y-55125833D02*
X65279438Y-55087737D01*
X65279438Y-55087737D02*
X65165152Y-55087737D01*
X65165152Y-55087737D02*
X65012771Y-55125833D01*
X65012771Y-55125833D02*
X64936580Y-55163928D01*
X64936580Y-55163928D02*
X64860390Y-55240118D01*
X64860390Y-55240118D02*
X64822295Y-55354404D01*
X64822295Y-55354404D02*
X64822295Y-55430595D01*
X64822295Y-55430595D02*
X64860390Y-55544880D01*
X64860390Y-55544880D02*
X64898485Y-55582976D01*
X65546104Y-56382976D02*
X65584200Y-56344880D01*
X65584200Y-56344880D02*
X65622295Y-56230595D01*
X65622295Y-56230595D02*
X65622295Y-56154404D01*
X65622295Y-56154404D02*
X65584200Y-56040118D01*
X65584200Y-56040118D02*
X65508009Y-55963928D01*
X65508009Y-55963928D02*
X65431819Y-55925833D01*
X65431819Y-55925833D02*
X65279438Y-55887737D01*
X65279438Y-55887737D02*
X65165152Y-55887737D01*
X65165152Y-55887737D02*
X65012771Y-55925833D01*
X65012771Y-55925833D02*
X64936580Y-55963928D01*
X64936580Y-55963928D02*
X64860390Y-56040118D01*
X64860390Y-56040118D02*
X64822295Y-56154404D01*
X64822295Y-56154404D02*
X64822295Y-56230595D01*
X64822295Y-56230595D02*
X64860390Y-56344880D01*
X64860390Y-56344880D02*
X64898485Y-56382976D01*
X59780390Y-54782976D02*
X59742295Y-54706786D01*
X59742295Y-54706786D02*
X59742295Y-54592500D01*
X59742295Y-54592500D02*
X59780390Y-54478214D01*
X59780390Y-54478214D02*
X59856580Y-54402024D01*
X59856580Y-54402024D02*
X59932771Y-54363929D01*
X59932771Y-54363929D02*
X60085152Y-54325833D01*
X60085152Y-54325833D02*
X60199438Y-54325833D01*
X60199438Y-54325833D02*
X60351819Y-54363929D01*
X60351819Y-54363929D02*
X60428009Y-54402024D01*
X60428009Y-54402024D02*
X60504200Y-54478214D01*
X60504200Y-54478214D02*
X60542295Y-54592500D01*
X60542295Y-54592500D02*
X60542295Y-54668691D01*
X60542295Y-54668691D02*
X60504200Y-54782976D01*
X60504200Y-54782976D02*
X60466104Y-54821072D01*
X60466104Y-54821072D02*
X60199438Y-54821072D01*
X60199438Y-54821072D02*
X60199438Y-54668691D01*
X60542295Y-55163929D02*
X59742295Y-55163929D01*
X59742295Y-55163929D02*
X60542295Y-55621072D01*
X60542295Y-55621072D02*
X59742295Y-55621072D01*
X60542295Y-56002024D02*
X59742295Y-56002024D01*
X59742295Y-56002024D02*
X59742295Y-56192500D01*
X59742295Y-56192500D02*
X59780390Y-56306786D01*
X59780390Y-56306786D02*
X59856580Y-56382976D01*
X59856580Y-56382976D02*
X59932771Y-56421071D01*
X59932771Y-56421071D02*
X60085152Y-56459167D01*
X60085152Y-56459167D02*
X60199438Y-56459167D01*
X60199438Y-56459167D02*
X60351819Y-56421071D01*
X60351819Y-56421071D02*
X60428009Y-56382976D01*
X60428009Y-56382976D02*
X60504200Y-56306786D01*
X60504200Y-56306786D02*
X60542295Y-56192500D01*
X60542295Y-56192500D02*
X60542295Y-56002024D01*
X63138094Y-56662295D02*
X63404761Y-56281342D01*
X63595237Y-56662295D02*
X63595237Y-55862295D01*
X63595237Y-55862295D02*
X63290475Y-55862295D01*
X63290475Y-55862295D02*
X63214285Y-55900390D01*
X63214285Y-55900390D02*
X63176190Y-55938485D01*
X63176190Y-55938485D02*
X63138094Y-56014676D01*
X63138094Y-56014676D02*
X63138094Y-56128961D01*
X63138094Y-56128961D02*
X63176190Y-56205152D01*
X63176190Y-56205152D02*
X63214285Y-56243247D01*
X63214285Y-56243247D02*
X63290475Y-56281342D01*
X63290475Y-56281342D02*
X63595237Y-56281342D01*
X62833333Y-56624200D02*
X62719047Y-56662295D01*
X62719047Y-56662295D02*
X62528571Y-56662295D01*
X62528571Y-56662295D02*
X62452380Y-56624200D01*
X62452380Y-56624200D02*
X62414285Y-56586104D01*
X62414285Y-56586104D02*
X62376190Y-56509914D01*
X62376190Y-56509914D02*
X62376190Y-56433723D01*
X62376190Y-56433723D02*
X62414285Y-56357533D01*
X62414285Y-56357533D02*
X62452380Y-56319438D01*
X62452380Y-56319438D02*
X62528571Y-56281342D01*
X62528571Y-56281342D02*
X62680952Y-56243247D01*
X62680952Y-56243247D02*
X62757142Y-56205152D01*
X62757142Y-56205152D02*
X62795237Y-56167057D01*
X62795237Y-56167057D02*
X62833333Y-56090866D01*
X62833333Y-56090866D02*
X62833333Y-56014676D01*
X62833333Y-56014676D02*
X62795237Y-55938485D01*
X62795237Y-55938485D02*
X62757142Y-55900390D01*
X62757142Y-55900390D02*
X62680952Y-55862295D01*
X62680952Y-55862295D02*
X62490475Y-55862295D01*
X62490475Y-55862295D02*
X62376190Y-55900390D01*
X62147618Y-55862295D02*
X61690475Y-55862295D01*
X61919047Y-56662295D02*
X61919047Y-55862295D01*
X85523247Y-55229690D02*
X85561342Y-55343976D01*
X85561342Y-55343976D02*
X85599438Y-55382071D01*
X85599438Y-55382071D02*
X85675628Y-55420167D01*
X85675628Y-55420167D02*
X85789914Y-55420167D01*
X85789914Y-55420167D02*
X85866104Y-55382071D01*
X85866104Y-55382071D02*
X85904200Y-55343976D01*
X85904200Y-55343976D02*
X85942295Y-55267786D01*
X85942295Y-55267786D02*
X85942295Y-54963024D01*
X85942295Y-54963024D02*
X85142295Y-54963024D01*
X85142295Y-54963024D02*
X85142295Y-55229690D01*
X85142295Y-55229690D02*
X85180390Y-55305881D01*
X85180390Y-55305881D02*
X85218485Y-55343976D01*
X85218485Y-55343976D02*
X85294676Y-55382071D01*
X85294676Y-55382071D02*
X85370866Y-55382071D01*
X85370866Y-55382071D02*
X85447057Y-55343976D01*
X85447057Y-55343976D02*
X85485152Y-55305881D01*
X85485152Y-55305881D02*
X85523247Y-55229690D01*
X85523247Y-55229690D02*
X85523247Y-54963024D01*
X85142295Y-56105881D02*
X85142295Y-55953500D01*
X85142295Y-55953500D02*
X85180390Y-55877309D01*
X85180390Y-55877309D02*
X85218485Y-55839214D01*
X85218485Y-55839214D02*
X85332771Y-55763024D01*
X85332771Y-55763024D02*
X85485152Y-55724928D01*
X85485152Y-55724928D02*
X85789914Y-55724928D01*
X85789914Y-55724928D02*
X85866104Y-55763024D01*
X85866104Y-55763024D02*
X85904200Y-55801119D01*
X85904200Y-55801119D02*
X85942295Y-55877309D01*
X85942295Y-55877309D02*
X85942295Y-56029690D01*
X85942295Y-56029690D02*
X85904200Y-56105881D01*
X85904200Y-56105881D02*
X85866104Y-56143976D01*
X85866104Y-56143976D02*
X85789914Y-56182071D01*
X85789914Y-56182071D02*
X85599438Y-56182071D01*
X85599438Y-56182071D02*
X85523247Y-56143976D01*
X85523247Y-56143976D02*
X85485152Y-56105881D01*
X85485152Y-56105881D02*
X85447057Y-56029690D01*
X85447057Y-56029690D02*
X85447057Y-55877309D01*
X85447057Y-55877309D02*
X85485152Y-55801119D01*
X85485152Y-55801119D02*
X85523247Y-55763024D01*
X85523247Y-55763024D02*
X85599438Y-55724928D01*
X68162295Y-44041024D02*
X67362295Y-44041024D01*
X67362295Y-44041024D02*
X67362295Y-44231500D01*
X67362295Y-44231500D02*
X67400390Y-44345786D01*
X67400390Y-44345786D02*
X67476580Y-44421976D01*
X67476580Y-44421976D02*
X67552771Y-44460071D01*
X67552771Y-44460071D02*
X67705152Y-44498167D01*
X67705152Y-44498167D02*
X67819438Y-44498167D01*
X67819438Y-44498167D02*
X67971819Y-44460071D01*
X67971819Y-44460071D02*
X68048009Y-44421976D01*
X68048009Y-44421976D02*
X68124200Y-44345786D01*
X68124200Y-44345786D02*
X68162295Y-44231500D01*
X68162295Y-44231500D02*
X68162295Y-44041024D01*
X68162295Y-45260071D02*
X68162295Y-44802928D01*
X68162295Y-45031500D02*
X67362295Y-45031500D01*
X67362295Y-45031500D02*
X67476580Y-44955309D01*
X67476580Y-44955309D02*
X67552771Y-44879119D01*
X67552771Y-44879119D02*
X67590866Y-44802928D01*
X77903247Y-55229690D02*
X77941342Y-55343976D01*
X77941342Y-55343976D02*
X77979438Y-55382071D01*
X77979438Y-55382071D02*
X78055628Y-55420167D01*
X78055628Y-55420167D02*
X78169914Y-55420167D01*
X78169914Y-55420167D02*
X78246104Y-55382071D01*
X78246104Y-55382071D02*
X78284200Y-55343976D01*
X78284200Y-55343976D02*
X78322295Y-55267786D01*
X78322295Y-55267786D02*
X78322295Y-54963024D01*
X78322295Y-54963024D02*
X77522295Y-54963024D01*
X77522295Y-54963024D02*
X77522295Y-55229690D01*
X77522295Y-55229690D02*
X77560390Y-55305881D01*
X77560390Y-55305881D02*
X77598485Y-55343976D01*
X77598485Y-55343976D02*
X77674676Y-55382071D01*
X77674676Y-55382071D02*
X77750866Y-55382071D01*
X77750866Y-55382071D02*
X77827057Y-55343976D01*
X77827057Y-55343976D02*
X77865152Y-55305881D01*
X77865152Y-55305881D02*
X77903247Y-55229690D01*
X77903247Y-55229690D02*
X77903247Y-54963024D01*
X78322295Y-56182071D02*
X78322295Y-55724928D01*
X78322295Y-55953500D02*
X77522295Y-55953500D01*
X77522295Y-55953500D02*
X77636580Y-55877309D01*
X77636580Y-55877309D02*
X77712771Y-55801119D01*
X77712771Y-55801119D02*
X77750866Y-55724928D01*
X85523247Y-44307690D02*
X85561342Y-44421976D01*
X85561342Y-44421976D02*
X85599438Y-44460071D01*
X85599438Y-44460071D02*
X85675628Y-44498167D01*
X85675628Y-44498167D02*
X85789914Y-44498167D01*
X85789914Y-44498167D02*
X85866104Y-44460071D01*
X85866104Y-44460071D02*
X85904200Y-44421976D01*
X85904200Y-44421976D02*
X85942295Y-44345786D01*
X85942295Y-44345786D02*
X85942295Y-44041024D01*
X85942295Y-44041024D02*
X85142295Y-44041024D01*
X85142295Y-44041024D02*
X85142295Y-44307690D01*
X85142295Y-44307690D02*
X85180390Y-44383881D01*
X85180390Y-44383881D02*
X85218485Y-44421976D01*
X85218485Y-44421976D02*
X85294676Y-44460071D01*
X85294676Y-44460071D02*
X85370866Y-44460071D01*
X85370866Y-44460071D02*
X85447057Y-44421976D01*
X85447057Y-44421976D02*
X85485152Y-44383881D01*
X85485152Y-44383881D02*
X85523247Y-44307690D01*
X85523247Y-44307690D02*
X85523247Y-44041024D01*
X85142295Y-45221976D02*
X85142295Y-44841024D01*
X85142295Y-44841024D02*
X85523247Y-44802928D01*
X85523247Y-44802928D02*
X85485152Y-44841024D01*
X85485152Y-44841024D02*
X85447057Y-44917214D01*
X85447057Y-44917214D02*
X85447057Y-45107690D01*
X85447057Y-45107690D02*
X85485152Y-45183881D01*
X85485152Y-45183881D02*
X85523247Y-45221976D01*
X85523247Y-45221976D02*
X85599438Y-45260071D01*
X85599438Y-45260071D02*
X85789914Y-45260071D01*
X85789914Y-45260071D02*
X85866104Y-45221976D01*
X85866104Y-45221976D02*
X85904200Y-45183881D01*
X85904200Y-45183881D02*
X85942295Y-45107690D01*
X85942295Y-45107690D02*
X85942295Y-44917214D01*
X85942295Y-44917214D02*
X85904200Y-44841024D01*
X85904200Y-44841024D02*
X85866104Y-44802928D01*
D11*
X56870000Y-46190000D02*
X56870000Y-51330000D01*
X56870000Y-53930000D02*
X56870000Y-52600000D01*
X58200000Y-53930000D02*
X56870000Y-53930000D01*
X59530000Y-46190000D02*
X56870000Y-46190000D01*
X59530000Y-46190000D02*
X59530000Y-51330000D01*
X59530000Y-51330000D02*
X56870000Y-51330000D01*
X71890000Y-47040000D02*
X71890000Y-47960000D01*
X71890000Y-47960000D02*
X73490000Y-47960000D01*
X71890000Y-52240000D02*
X71890000Y-53160000D01*
X71890000Y-53160000D02*
X79710000Y-53160000D01*
X72275000Y-48240000D02*
X73490000Y-48240000D01*
X73490000Y-47960000D02*
X73490000Y-47040000D01*
X73490000Y-47960000D02*
X73490000Y-48240000D01*
X73490000Y-51960000D02*
X73490000Y-52240000D01*
X73490000Y-52240000D02*
X71890000Y-52240000D01*
X73490000Y-52240000D02*
X73490000Y-53160000D01*
X75350000Y-49600000D02*
X79710000Y-49600000D01*
X75350000Y-50600000D02*
X75350000Y-49600000D01*
X75850000Y-47800000D02*
X75850000Y-48800000D01*
X75850000Y-48800000D02*
X77450000Y-48800000D01*
X75850000Y-51400000D02*
X77450000Y-51400000D01*
X75850000Y-52400000D02*
X75850000Y-51400000D01*
X77450000Y-47800000D02*
X75850000Y-47800000D01*
X77450000Y-48800000D02*
X77450000Y-47800000D01*
X77450000Y-51400000D02*
X77450000Y-52400000D01*
X77450000Y-52400000D02*
X75850000Y-52400000D01*
X79710000Y-47040000D02*
X71890000Y-47040000D01*
X79710000Y-48300000D02*
X77450000Y-48300000D01*
X79710000Y-48800000D02*
X77450000Y-48800000D01*
X79710000Y-50600000D02*
X75350000Y-50600000D01*
X79710000Y-53160000D02*
X79710000Y-47040000D01*
D12*
X53830000Y-59092500D02*
X56370000Y-59092500D01*
X53840000Y-41092500D02*
X53830000Y-59092500D01*
X56370000Y-41092500D02*
X56370000Y-43742500D01*
X56370000Y-59092500D02*
X86850000Y-59092500D01*
X56380000Y-41092500D02*
X53840000Y-41092500D01*
X58910000Y-41092500D02*
X58910000Y-43742500D01*
X58910000Y-43742500D02*
X56370000Y-43742500D01*
X86850000Y-41092500D02*
X56370000Y-41092500D01*
X86850000Y-59092500D02*
X86850000Y-41092500D01*
D11*
X79830000Y-105910000D02*
X81160000Y-105910000D01*
X79830000Y-107240000D02*
X79830000Y-105910000D01*
X79830000Y-108510000D02*
X82490000Y-108510000D01*
X79830000Y-113650000D02*
X79830000Y-108510000D01*
X79830000Y-113650000D02*
X82490000Y-113650000D01*
X82490000Y-113650000D02*
X82490000Y-108510000D01*
%LPC*%
D13*
X267080000Y-71580000D03*
D14*
X272160000Y-71580000D03*
D13*
X277240000Y-71580000D03*
D15*
X278250000Y-66500000D03*
X264800000Y-69040000D03*
D13*
X324380000Y-147980000D03*
D14*
X329460000Y-147980000D03*
D13*
X334540000Y-147980000D03*
D15*
X335550000Y-142900000D03*
X322100000Y-145440000D03*
D13*
X142930000Y-90680000D03*
D14*
X148010000Y-90680000D03*
D13*
X153090000Y-90680000D03*
D15*
X154100000Y-85600000D03*
X140650000Y-88140000D03*
D16*
X308010000Y-64580000D03*
D14*
X308010000Y-79820000D03*
D13*
X314830000Y-71580000D03*
D14*
X319910000Y-71580000D03*
D13*
X324990000Y-71580000D03*
D16*
X331810000Y-64580000D03*
D14*
X331810000Y-79820000D03*
D15*
X326000000Y-66500000D03*
X312550000Y-69040000D03*
D13*
X185905000Y-109780000D03*
D14*
X190985000Y-109780000D03*
D13*
X196065000Y-109780000D03*
D15*
X197075000Y-104700000D03*
X183625000Y-107240000D03*
D13*
X104730000Y-90680000D03*
D14*
X109810000Y-90680000D03*
D13*
X114890000Y-90680000D03*
D15*
X115900000Y-85600000D03*
X102450000Y-88140000D03*
D13*
X298117500Y-128880000D03*
D14*
X303197500Y-128880000D03*
D13*
X308277500Y-128880000D03*
D15*
X309287500Y-123800000D03*
X295837500Y-126340000D03*
D13*
X343480000Y-109780000D03*
D14*
X348560000Y-109780000D03*
D13*
X353640000Y-109780000D03*
D15*
X354650000Y-104700000D03*
X341200000Y-107240000D03*
D17*
X315160000Y-47400000D03*
D18*
X315160000Y-49940000D03*
X315160000Y-52480000D03*
X315160000Y-55020000D03*
D13*
X99955000Y-128880000D03*
D14*
X105035000Y-128880000D03*
D13*
X110115000Y-128880000D03*
D15*
X111125000Y-123800000D03*
X97675000Y-126340000D03*
D13*
X281405000Y-109780000D03*
D14*
X286485000Y-109780000D03*
D13*
X291565000Y-109780000D03*
D15*
X292575000Y-104700000D03*
X279125000Y-107240000D03*
D13*
X157255000Y-128880000D03*
D14*
X162335000Y-128880000D03*
D13*
X167415000Y-128880000D03*
D15*
X168425000Y-123800000D03*
X154975000Y-126340000D03*
D13*
X162030000Y-90680000D03*
D14*
X167110000Y-90680000D03*
D13*
X172190000Y-90680000D03*
D15*
X173200000Y-85600000D03*
X159750000Y-88140000D03*
D13*
X56980000Y-71580000D03*
D14*
X62060000Y-71580000D03*
D13*
X67140000Y-71580000D03*
D15*
X68150000Y-66500000D03*
X54700000Y-69040000D03*
D13*
X114280000Y-71580000D03*
D14*
X119360000Y-71580000D03*
D13*
X124440000Y-71580000D03*
D15*
X125450000Y-66500000D03*
X112000000Y-69040000D03*
D13*
X295730000Y-90680000D03*
D14*
X300810000Y-90680000D03*
D13*
X305890000Y-90680000D03*
D15*
X306900000Y-85600000D03*
X293450000Y-88140000D03*
D13*
X128605000Y-109780000D03*
D14*
X133685000Y-109780000D03*
D13*
X138765000Y-109780000D03*
D15*
X139775000Y-104700000D03*
X126325000Y-107240000D03*
D13*
X147705000Y-109780000D03*
D14*
X152785000Y-109780000D03*
D13*
X157865000Y-109780000D03*
D15*
X158875000Y-104700000D03*
X145425000Y-107240000D03*
D14*
X133728750Y-139740000D03*
D16*
X133728750Y-154980000D03*
D13*
X140548750Y-147980000D03*
D14*
X145628750Y-147980000D03*
D13*
X150708750Y-147980000D03*
D14*
X157528750Y-139740000D03*
D16*
X157528750Y-154980000D03*
D15*
X151718750Y-142900000D03*
X138268750Y-145440000D03*
D13*
X152480000Y-71580000D03*
D14*
X157560000Y-71580000D03*
D13*
X162640000Y-71580000D03*
D15*
X163650000Y-66500000D03*
X150200000Y-69040000D03*
D13*
X107123750Y-147980000D03*
D14*
X112203750Y-147980000D03*
D13*
X117283750Y-147980000D03*
D15*
X118293750Y-142900000D03*
X104843750Y-145440000D03*
D13*
X228880000Y-71580000D03*
D14*
X233960000Y-71580000D03*
D13*
X239040000Y-71580000D03*
D15*
X240050000Y-66500000D03*
X226600000Y-69040000D03*
D13*
X59367500Y-128880000D03*
D14*
X64447500Y-128880000D03*
D13*
X69527500Y-128880000D03*
D15*
X70537500Y-123800000D03*
X57087500Y-126340000D03*
D13*
X76080000Y-71580000D03*
D14*
X81160000Y-71580000D03*
D13*
X86240000Y-71580000D03*
D15*
X87250000Y-66500000D03*
X73800000Y-69040000D03*
D13*
X181130000Y-90680000D03*
D14*
X186210000Y-90680000D03*
D13*
X191290000Y-90680000D03*
D15*
X192300000Y-85600000D03*
X178850000Y-88140000D03*
D13*
X171580000Y-71580000D03*
D14*
X176660000Y-71580000D03*
D13*
X181740000Y-71580000D03*
D15*
X182750000Y-66500000D03*
X169300000Y-69040000D03*
D13*
X343480000Y-128880000D03*
D14*
X348560000Y-128880000D03*
D13*
X353640000Y-128880000D03*
D15*
X354650000Y-123800000D03*
X341200000Y-126340000D03*
D13*
X166805000Y-109780000D03*
D14*
X171885000Y-109780000D03*
D13*
X176965000Y-109780000D03*
D15*
X177975000Y-104700000D03*
X164525000Y-107240000D03*
D14*
X133828750Y-139740000D03*
D16*
X133828750Y-154980000D03*
D13*
X178748750Y-147980000D03*
D14*
X183828750Y-147980000D03*
D13*
X188908750Y-147980000D03*
D14*
X233828750Y-139740000D03*
D16*
X233828750Y-154980000D03*
D15*
X189918750Y-142900000D03*
D19*
X176468750Y-145440000D03*
D13*
X252755000Y-128880000D03*
D14*
X257835000Y-128880000D03*
D13*
X262915000Y-128880000D03*
D15*
X263925000Y-123800000D03*
X250475000Y-126340000D03*
D13*
X286180000Y-71580000D03*
D14*
X291260000Y-71580000D03*
D13*
X296340000Y-71580000D03*
D15*
X297350000Y-66500000D03*
X283900000Y-69040000D03*
D13*
X176355000Y-128880000D03*
D14*
X181435000Y-128880000D03*
D13*
X186515000Y-128880000D03*
D15*
X187525000Y-123800000D03*
X174075000Y-126340000D03*
D13*
X324380000Y-128880000D03*
D14*
X329460000Y-128880000D03*
D13*
X334540000Y-128880000D03*
D15*
X335550000Y-123800000D03*
X322100000Y-126340000D03*
D13*
X305280000Y-147980000D03*
D14*
X310360000Y-147980000D03*
D13*
X315440000Y-147980000D03*
D15*
X316450000Y-142900000D03*
X303000000Y-145440000D03*
D13*
X250367500Y-147980000D03*
D14*
X255447500Y-147980000D03*
D13*
X260527500Y-147980000D03*
D15*
X261537500Y-142900000D03*
X248087500Y-145440000D03*
D13*
X133380000Y-71580000D03*
D14*
X138460000Y-71580000D03*
D13*
X143540000Y-71580000D03*
D15*
X144550000Y-66500000D03*
X131100000Y-69040000D03*
D13*
X80855000Y-128880000D03*
D14*
X85935000Y-128880000D03*
D13*
X91015000Y-128880000D03*
D15*
X92025000Y-123800000D03*
X78575000Y-126340000D03*
D13*
X243205000Y-109780000D03*
D14*
X248285000Y-109780000D03*
D13*
X253365000Y-109780000D03*
D15*
X254375000Y-104700000D03*
X240925000Y-107240000D03*
D13*
X83242500Y-147980000D03*
D14*
X88322500Y-147980000D03*
D13*
X93402500Y-147980000D03*
D15*
X94412500Y-142900000D03*
X80962500Y-145440000D03*
D13*
X233655000Y-128880000D03*
D14*
X238735000Y-128880000D03*
D13*
X243815000Y-128880000D03*
D15*
X244825000Y-123800000D03*
X231375000Y-126340000D03*
D13*
X300505000Y-109780000D03*
D14*
X305585000Y-109780000D03*
D13*
X310665000Y-109780000D03*
D15*
X311675000Y-104700000D03*
X298225000Y-107240000D03*
D13*
X343480000Y-71580000D03*
D14*
X348560000Y-71580000D03*
D13*
X353640000Y-71580000D03*
D15*
X354650000Y-66500000D03*
X341200000Y-69040000D03*
D13*
X138155000Y-128880000D03*
D14*
X143235000Y-128880000D03*
D13*
X148315000Y-128880000D03*
D15*
X149325000Y-123800000D03*
X135875000Y-126340000D03*
D16*
X320072500Y-88330000D03*
X320072500Y-112130000D03*
D13*
X321992500Y-100230000D03*
D14*
X327072500Y-100230000D03*
D13*
X332152500Y-100230000D03*
D14*
X335312500Y-88330000D03*
X335312500Y-112130000D03*
D15*
X333162500Y-95150000D03*
X319712500Y-97690000D03*
D13*
X247980000Y-71580000D03*
D14*
X253060000Y-71580000D03*
D13*
X258140000Y-71580000D03*
D15*
X259150000Y-66500000D03*
X245700000Y-69040000D03*
D13*
X95180000Y-71580000D03*
D14*
X100260000Y-71580000D03*
D13*
X105340000Y-71580000D03*
D15*
X106350000Y-66500000D03*
X92900000Y-69040000D03*
D13*
X90405000Y-109780000D03*
D14*
X95485000Y-109780000D03*
D13*
X100565000Y-109780000D03*
D15*
X101575000Y-104700000D03*
X88125000Y-107240000D03*
D13*
X214555000Y-128880000D03*
D14*
X219635000Y-128880000D03*
D13*
X224715000Y-128880000D03*
D15*
X225725000Y-123800000D03*
X212275000Y-126340000D03*
D13*
X190680000Y-71580000D03*
D14*
X195760000Y-71580000D03*
D13*
X200840000Y-71580000D03*
D15*
X201850000Y-66500000D03*
X188400000Y-69040000D03*
D20*
X332000000Y-42700000D03*
D21*
X327000000Y-42700000D03*
X329500000Y-42700000D03*
D22*
X335100000Y-50200000D03*
X323900000Y-50200000D03*
D21*
X327000000Y-57200000D03*
X332000000Y-57200000D03*
D20*
X351000000Y-42700000D03*
D21*
X346000000Y-42700000D03*
X348500000Y-42700000D03*
D22*
X354100000Y-50200000D03*
X342900000Y-50200000D03*
D21*
X346000000Y-57200000D03*
X351000000Y-57200000D03*
D23*
X62700000Y-46850000D03*
D24*
X62700000Y-53350000D03*
D13*
X119055000Y-128880000D03*
D14*
X124135000Y-128880000D03*
D13*
X129215000Y-128880000D03*
D15*
X130225000Y-123800000D03*
X116775000Y-126340000D03*
D13*
X209780000Y-71580000D03*
D14*
X214860000Y-71580000D03*
D13*
X219940000Y-71580000D03*
D15*
X220950000Y-66500000D03*
X207500000Y-69040000D03*
D13*
X276630000Y-90680000D03*
D14*
X281710000Y-90680000D03*
D13*
X286790000Y-90680000D03*
D15*
X287800000Y-85600000D03*
X274350000Y-88140000D03*
D13*
X257530000Y-90680000D03*
D14*
X262610000Y-90680000D03*
D13*
X267690000Y-90680000D03*
D15*
X268700000Y-85600000D03*
X255250000Y-88140000D03*
D13*
X205005000Y-109780000D03*
D14*
X210085000Y-109780000D03*
D13*
X215165000Y-109780000D03*
D15*
X216175000Y-104700000D03*
X202725000Y-107240000D03*
D13*
X224105000Y-109780000D03*
D14*
X229185000Y-109780000D03*
D13*
X234265000Y-109780000D03*
D15*
X235275000Y-104700000D03*
X221825000Y-107240000D03*
D13*
X200230000Y-90680000D03*
D14*
X205310000Y-90680000D03*
D13*
X210390000Y-90680000D03*
D15*
X211400000Y-85600000D03*
X197950000Y-88140000D03*
D13*
X343480000Y-90680000D03*
D14*
X348560000Y-90680000D03*
D13*
X353640000Y-90680000D03*
D15*
X354650000Y-85600000D03*
X341200000Y-88140000D03*
D13*
X274242500Y-147980000D03*
D14*
X279322500Y-147980000D03*
D13*
X284402500Y-147980000D03*
D15*
X285412500Y-142900000D03*
X271962500Y-145440000D03*
D13*
X271855000Y-128880000D03*
D14*
X276935000Y-128880000D03*
D13*
X282015000Y-128880000D03*
D15*
X283025000Y-123800000D03*
X269575000Y-126340000D03*
D13*
X219330000Y-90680000D03*
D14*
X224410000Y-90680000D03*
D13*
X229490000Y-90680000D03*
D15*
X230500000Y-85600000D03*
X217050000Y-88140000D03*
D13*
X123830000Y-90680000D03*
D14*
X128910000Y-90680000D03*
D13*
X133990000Y-90680000D03*
D15*
X135000000Y-85600000D03*
X121550000Y-88140000D03*
D13*
X343480000Y-147980000D03*
D14*
X348560000Y-147980000D03*
D13*
X353640000Y-147980000D03*
D15*
X354650000Y-142900000D03*
X341200000Y-145440000D03*
D13*
X262305000Y-109780000D03*
D14*
X267385000Y-109780000D03*
D13*
X272465000Y-109780000D03*
D15*
X273475000Y-104700000D03*
X260025000Y-107240000D03*
D13*
X238430000Y-90680000D03*
D14*
X243510000Y-90680000D03*
D13*
X248590000Y-90680000D03*
D15*
X249600000Y-85600000D03*
X236150000Y-88140000D03*
D13*
X184127500Y-147980000D03*
D14*
X179047500Y-147980000D03*
D13*
X173967500Y-147980000D03*
D15*
X172957500Y-153060000D03*
D19*
X186407500Y-150520000D03*
D13*
X195455000Y-128880000D03*
D14*
X200535000Y-128880000D03*
D13*
X205615000Y-128880000D03*
D15*
X206625000Y-123800000D03*
X193175000Y-126340000D03*
D13*
X61755000Y-90680000D03*
D14*
X66835000Y-90680000D03*
D13*
X71915000Y-90680000D03*
D15*
X72925000Y-85600000D03*
X59475000Y-88140000D03*
D13*
X59367500Y-147980000D03*
D14*
X64447500Y-147980000D03*
D13*
X69527500Y-147980000D03*
D15*
X70537500Y-142900000D03*
X57087500Y-145440000D03*
D13*
X64142500Y-109780000D03*
D14*
X69222500Y-109780000D03*
D13*
X74302500Y-109780000D03*
D15*
X75312500Y-104700000D03*
X61862500Y-107240000D03*
D14*
X205353750Y-139740000D03*
D16*
X205353750Y-154980000D03*
D13*
X212173750Y-147980000D03*
D14*
X217253750Y-147980000D03*
D13*
X222333750Y-147980000D03*
D14*
X229153750Y-139740000D03*
D16*
X229153750Y-154980000D03*
D15*
X223343750Y-142900000D03*
X209893750Y-145440000D03*
D13*
X85630000Y-90680000D03*
D14*
X90710000Y-90680000D03*
D13*
X95790000Y-90680000D03*
D15*
X96800000Y-85600000D03*
X83350000Y-88140000D03*
D13*
X109505000Y-109780000D03*
D14*
X114585000Y-109780000D03*
D13*
X119665000Y-109780000D03*
D15*
X120675000Y-104700000D03*
X107225000Y-107240000D03*
D17*
X58200000Y-52600000D03*
D18*
X58200000Y-50060000D03*
X58200000Y-47520000D03*
D25*
X73350000Y-49100000D03*
D26*
X73350000Y-51100000D03*
D27*
X57640000Y-42243900D03*
D28*
X60180000Y-42701100D03*
X62720000Y-42243900D03*
X65260000Y-42701100D03*
X67800000Y-42243900D03*
X70340000Y-42701100D03*
X72880000Y-42243900D03*
X75420000Y-42701100D03*
X77960000Y-42243900D03*
X80500000Y-42701100D03*
X83040000Y-42243900D03*
X85580000Y-42701100D03*
X85580000Y-57483900D03*
X83040000Y-57941100D03*
X80500000Y-57483900D03*
X77960000Y-57941100D03*
X75420000Y-57483900D03*
X72880000Y-57941100D03*
X70340000Y-57483900D03*
X67800000Y-57941100D03*
X65260000Y-57483900D03*
X62720000Y-57941100D03*
X60180000Y-57483900D03*
X57640000Y-57941100D03*
D17*
X81160000Y-107240000D03*
D18*
X81160000Y-109780000D03*
X81160000Y-112320000D03*
%LPD*%
M02*
