M48
; DRILL file {KiCad 8.0.4} date 2024-08-20T13:39:48+0200
; FORMAT={-:-/ absolute / metric / decimal}
; #@! TF.CreationDate,2024-08-20T13:39:48+02:00
; #@! TF.GenerationSoftware,Kicad,Pcbnew,8.0.4
; #@! TF.FileFunction,Plated,1,2,PTH
FMAT,2
METRIC
; #@! TA.AperFunction,Plated,PTH,ViaDrill
T1C0.400
; #@! TA.AperFunction,Plated,PTH,ComponentDrill
T2C0.750
; #@! TA.AperFunction,Plated,PTH,ComponentDrill
T3C1.000
; #@! TA.AperFunction,Plated,PTH,ComponentDrill
T4C1.092
; #@! TA.AperFunction,Plated,PTH,ComponentDrill
T5C1.300
; #@! TA.AperFunction,Plated,PTH,ComponentDrill
T6C1.500
%
G90
G05
T1
X54.7Y-67.5
X62.8Y-61.6
X73.8Y-67.2
X82.0Y-50.3
X84.9Y-68.9
X88.2Y-58.8
X89.6Y-58.9
X90.7Y-53.2
X91.4Y-45.7
X91.4Y-46.9
X91.4Y-48.2
X91.4Y-49.5
X96.0Y-40.0
X97.4Y-80.0
X98.817Y-80.503
X99.5Y-81.3
X100.316Y-50.584
X100.4Y-82.2
X102.5Y-52.005
X102.6Y-45.7
X102.6Y-46.925
X102.6Y-48.195
X107.6Y-40.0
X113.5Y-45.5
X115.1Y-54.7
X116.4Y-132.5
X117.7Y-55.05
X119.5Y-45.6
X119.9Y-55.95
X121.8Y-46.7
X122.4Y-56.7
X124.3Y-47.6
X126.6Y-57.262
X126.7Y-48.6
X129.0Y-57.262
X131.4Y-45.6
X133.8Y-46.7
X135.9Y-133.2
X136.2Y-47.6
X138.6Y-48.6
X139.4Y-58.15
X142.1Y-58.8
X143.3Y-45.6
X144.4Y-59.45
X145.7Y-46.7
X147.1Y-60.1
X148.1Y-47.6
X149.9Y-60.75
X150.5Y-48.6
X151.9Y-61.2
X153.198Y-61.698
X154.399Y-61.699
X154.6Y-133.7
X155.3Y-45.5
X155.499Y-61.699
X156.699Y-61.699
X157.6Y-46.7
X157.9Y-61.7
X160.0Y-47.6
X161.9Y-61.7
X163.9Y-61.7
X164.8Y-45.6
X167.2Y-46.7
X169.6Y-47.7
X170.9Y-61.3
X172.0Y-48.6
X173.3Y-61.7
X175.7Y-61.7
X176.5Y-136.2
X176.7Y-45.6
X177.9Y-61.7
X179.1Y-46.7
X179.8Y-61.7
X181.5Y-47.6
X182.75Y-61.7
X185.5Y-61.7
X186.3Y-45.6
X187.7Y-61.7
X188.7Y-46.7
X189.8Y-61.7
X191.1Y-47.6
X191.8Y-61.7
X193.1Y-130.8
X193.5Y-48.6
X195.7Y-60.7
X198.2Y-45.6
X200.6Y-46.7
X201.0Y-61.7
X202.9Y-61.7
X203.0Y-47.6
X204.8Y-61.7
X206.95Y-61.65
X207.8Y-45.5
X208.55Y-61.65
X210.1Y-61.6
X210.2Y-46.7
X212.6Y-47.6
X213.3Y-61.2
X214.9Y-58.2
X215.0Y-48.6
X217.2Y-58.4
X219.6Y-58.3
X219.7Y-45.6
X220.5Y-120.6
X222.1Y-46.7
X223.261Y-59.539
X224.5Y-47.6
X227.25Y-62.25
X228.6Y-61.7
X229.3Y-45.6
X231.1Y-61.05
X231.7Y-46.7
X232.9Y-60.4
X234.0Y-47.6
X234.0Y-59.75
X236.4Y-48.6
X236.4Y-58.3
X238.4Y-120.6
X238.7Y-58.2
X241.1Y-56.0
X241.2Y-45.6
X243.6Y-46.7
X245.599Y-59.201
X246.0Y-47.6
X247.15Y-58.6
X248.3Y-48.6
X248.3Y-57.9
X250.7Y-57.2
X253.1Y-45.6
X253.1Y-56.4
X255.5Y-46.7
X255.5Y-55.7
X257.8Y-55.3
X257.9Y-47.6
X260.0Y-119.2
X260.2Y-48.6
X262.7Y-46.7
X265.0Y-47.6
X267.4Y-48.6
X267.6Y-58.35
X268.6Y-57.7
X269.6Y-54.8
X269.7Y-57.0
X271.5Y-55.0
X272.1Y-47.6
X272.2Y-54.0
X274.5Y-52.7
X276.1Y-46.7
X276.9Y-53.3
X277.0Y-45.6
X279.1Y-115.5
X281.1Y-55.1
X284.1Y-45.6
X286.5Y-46.7
X291.5Y-39.9
X295.7Y-39.8
X297.4Y-55.5
X298.2Y-116.6
X298.8Y-55.5
X300.2Y-55.5
X302.0Y-39.9
X310.7Y-51.4
X322.4Y-117.1
X341.2Y-71.1
X341.2Y-119.3
X346.0Y-46.1
T2
X73.35Y-49.1
X73.35Y-51.1
T3
X58.2Y-47.52
X58.2Y-50.06
X58.2Y-52.6
X81.16Y-107.24
X81.16Y-109.78
X81.16Y-112.32
X315.16Y-47.4
X315.16Y-49.94
X315.16Y-52.48
X315.16Y-55.02
X327.0Y-42.7
X327.0Y-57.2
X329.5Y-42.7
X332.0Y-42.7
X332.0Y-57.2
X346.0Y-42.7
X346.0Y-57.2
X348.5Y-42.7
X351.0Y-42.7
X351.0Y-57.2
T4
X57.64Y-42.244
X57.64Y-57.941
X60.18Y-42.701
X60.18Y-57.484
X62.72Y-42.244
X62.72Y-57.941
X65.26Y-42.701
X65.26Y-57.484
X67.8Y-42.244
X67.8Y-57.941
X70.34Y-42.701
X70.34Y-57.484
X72.88Y-42.244
X72.88Y-57.941
X75.42Y-42.701
X75.42Y-57.484
X77.96Y-42.244
X77.96Y-57.941
X80.5Y-42.701
X80.5Y-57.484
X83.04Y-42.244
X83.04Y-57.941
X85.58Y-42.701
X85.58Y-57.484
T5
X62.7Y-46.85
X62.7Y-53.35
T6
G00X323.9Y-49.55
M15
G01X323.9Y-50.85
M16
G05
G00X335.1Y-49.55
M15
G01X335.1Y-50.85
M16
G05
G00X342.9Y-49.55
M15
G01X342.9Y-50.85
M16
G05
G00X354.1Y-49.55
M15
G01X354.1Y-50.85
M16
G05
M30
