%TF.GenerationSoftware,KiCad,Pcbnew,8.0.4*%
%TF.CreationDate,2024-08-20T13:39:49+02:00*%
%TF.ProjectId,lagom,6c61676f-6d2e-46b6-9963-61645f706362,rev?*%
%TF.SameCoordinates,Original*%
%TF.FileFunction,Drillmap*%
%TF.FilePolarity,Positive*%
%FSLAX45Y45*%
G04 Gerber Fmt 4.5, Leading zero omitted, Abs format (unit mm)*
G04 Created by KiCad (PCBNEW 8.0.4) date 2024-08-20 13:39:49*
%MOMM*%
%LPD*%
G01*
G04 APERTURE LIST*
%ADD10C,0.100000*%
%ADD11C,0.200000*%
%ADD12C,0.170000*%
%ADD13C,0.300000*%
%ADD14C,0.305000*%
%ADD15C,0.400000*%
G04 APERTURE END LIST*
D10*
X5251000Y-4054250D02*
G75*
G02*
X5728500Y-3576750I477500J0D01*
G01*
X5251000Y-15753000D02*
X35811000Y-15753000D01*
X5251000Y-4054250D02*
X5251000Y-15753000D01*
X35333500Y-3576750D02*
X5728500Y-3576750D01*
X35811000Y-15753000D02*
X35811000Y-4054250D01*
X35333500Y-3576750D02*
G75*
G02*
X35811000Y-4054250I0J-477500D01*
G01*
D11*
D12*
X5613000Y-7073000D02*
X5783000Y-7243000D01*
X5783000Y-7073000D02*
X5613000Y-7243000D01*
X5851750Y-12803000D02*
X6021750Y-12973000D01*
X6021750Y-12803000D02*
X5851750Y-12973000D01*
X5851750Y-14713000D02*
X6021750Y-14883000D01*
X6021750Y-14713000D02*
X5851750Y-14883000D01*
X6090500Y-8983000D02*
X6260500Y-9153000D01*
X6260500Y-8983000D02*
X6090500Y-9153000D01*
X6329250Y-10893000D02*
X6499250Y-11063000D01*
X6499250Y-10893000D02*
X6329250Y-11063000D01*
X6629000Y-7073000D02*
X6799000Y-7243000D01*
X6799000Y-7073000D02*
X6629000Y-7243000D01*
X6867750Y-12803000D02*
X7037750Y-12973000D01*
X7037750Y-12803000D02*
X6867750Y-12973000D01*
X6867750Y-14713000D02*
X7037750Y-14883000D01*
X7037750Y-14713000D02*
X6867750Y-14883000D01*
X7106500Y-8983000D02*
X7276500Y-9153000D01*
X7276500Y-8983000D02*
X7106500Y-9153000D01*
X7345250Y-10893000D02*
X7515250Y-11063000D01*
X7515250Y-10893000D02*
X7345250Y-11063000D01*
X7523000Y-7073000D02*
X7693000Y-7243000D01*
X7693000Y-7073000D02*
X7523000Y-7243000D01*
X8000500Y-12803000D02*
X8170500Y-12973000D01*
X8170500Y-12803000D02*
X8000500Y-12973000D01*
X8239250Y-14713000D02*
X8409250Y-14883000D01*
X8409250Y-14713000D02*
X8239250Y-14883000D01*
X8478000Y-8983000D02*
X8648000Y-9153000D01*
X8648000Y-8983000D02*
X8478000Y-9153000D01*
X8539000Y-7073000D02*
X8709000Y-7243000D01*
X8709000Y-7073000D02*
X8539000Y-7243000D01*
X8955500Y-10893000D02*
X9125500Y-11063000D01*
X9125500Y-10893000D02*
X8955500Y-11063000D01*
X9016500Y-12803000D02*
X9186500Y-12973000D01*
X9186500Y-12803000D02*
X9016500Y-12973000D01*
X9255250Y-14713000D02*
X9425250Y-14883000D01*
X9425250Y-14713000D02*
X9255250Y-14883000D01*
X9433000Y-7073000D02*
X9603000Y-7243000D01*
X9603000Y-7073000D02*
X9433000Y-7243000D01*
X9494000Y-8983000D02*
X9664000Y-9153000D01*
X9664000Y-8983000D02*
X9494000Y-9153000D01*
X9910500Y-12803000D02*
X10080500Y-12973000D01*
X10080500Y-12803000D02*
X9910500Y-12973000D01*
X9971500Y-10893000D02*
X10141500Y-11063000D01*
X10141500Y-10893000D02*
X9971500Y-11063000D01*
X10388000Y-8983000D02*
X10558000Y-9153000D01*
X10558000Y-8983000D02*
X10388000Y-9153000D01*
X10449000Y-7073000D02*
X10619000Y-7243000D01*
X10619000Y-7073000D02*
X10449000Y-7243000D01*
X10627375Y-14713000D02*
X10797375Y-14883000D01*
X10797375Y-14713000D02*
X10627375Y-14883000D01*
X10865500Y-10893000D02*
X11035500Y-11063000D01*
X11035500Y-10893000D02*
X10865500Y-11063000D01*
X10926500Y-12803000D02*
X11096500Y-12973000D01*
X11096500Y-12803000D02*
X10926500Y-12973000D01*
X11343000Y-7073000D02*
X11513000Y-7243000D01*
X11513000Y-7073000D02*
X11343000Y-7243000D01*
X11404000Y-8983000D02*
X11574000Y-9153000D01*
X11574000Y-8983000D02*
X11404000Y-9153000D01*
X11643375Y-14713000D02*
X11813375Y-14883000D01*
X11813375Y-14713000D02*
X11643375Y-14883000D01*
X11820500Y-12803000D02*
X11990500Y-12973000D01*
X11990500Y-12803000D02*
X11820500Y-12973000D01*
X11881500Y-10893000D02*
X12051500Y-11063000D01*
X12051500Y-10893000D02*
X11881500Y-11063000D01*
X12298000Y-8983000D02*
X12468000Y-9153000D01*
X12468000Y-8983000D02*
X12298000Y-9153000D01*
X12359000Y-7073000D02*
X12529000Y-7243000D01*
X12529000Y-7073000D02*
X12359000Y-7243000D01*
X12775500Y-10893000D02*
X12945500Y-11063000D01*
X12945500Y-10893000D02*
X12775500Y-11063000D01*
X12836500Y-12803000D02*
X13006500Y-12973000D01*
X13006500Y-12803000D02*
X12836500Y-12973000D01*
X13253000Y-7073000D02*
X13423000Y-7243000D01*
X13423000Y-7073000D02*
X13253000Y-7243000D01*
X13314000Y-8983000D02*
X13484000Y-9153000D01*
X13484000Y-8983000D02*
X13314000Y-9153000D01*
X13730500Y-12803000D02*
X13900500Y-12973000D01*
X13900500Y-12803000D02*
X13730500Y-12973000D01*
X13791500Y-10893000D02*
X13961500Y-11063000D01*
X13961500Y-10893000D02*
X13791500Y-11063000D01*
X13969875Y-14713000D02*
X14139875Y-14883000D01*
X14139875Y-14713000D02*
X13969875Y-14883000D01*
X14208000Y-8983000D02*
X14378000Y-9153000D01*
X14378000Y-8983000D02*
X14208000Y-9153000D01*
X14269000Y-7073000D02*
X14439000Y-7243000D01*
X14439000Y-7073000D02*
X14269000Y-7243000D01*
X14685500Y-10893000D02*
X14855500Y-11063000D01*
X14855500Y-10893000D02*
X14685500Y-11063000D01*
X14746500Y-12803000D02*
X14916500Y-12973000D01*
X14916500Y-12803000D02*
X14746500Y-12973000D01*
X14985875Y-14713000D02*
X15155875Y-14883000D01*
X15155875Y-14713000D02*
X14985875Y-14883000D01*
X15163000Y-7073000D02*
X15333000Y-7243000D01*
X15333000Y-7073000D02*
X15163000Y-7243000D01*
X15224000Y-8983000D02*
X15394000Y-9153000D01*
X15394000Y-8983000D02*
X15224000Y-9153000D01*
X15640500Y-12803000D02*
X15810500Y-12973000D01*
X15810500Y-12803000D02*
X15640500Y-12973000D01*
X15701500Y-10893000D02*
X15871500Y-11063000D01*
X15871500Y-10893000D02*
X15701500Y-11063000D01*
X16118000Y-8983000D02*
X16288000Y-9153000D01*
X16288000Y-8983000D02*
X16118000Y-9153000D01*
X16179000Y-7073000D02*
X16349000Y-7243000D01*
X16349000Y-7073000D02*
X16179000Y-7243000D01*
X16595500Y-10893000D02*
X16765500Y-11063000D01*
X16765500Y-10893000D02*
X16595500Y-11063000D01*
X16656500Y-12803000D02*
X16826500Y-12973000D01*
X16826500Y-12803000D02*
X16656500Y-12973000D01*
X17073000Y-7073000D02*
X17243000Y-7243000D01*
X17243000Y-7073000D02*
X17073000Y-7243000D01*
X17134000Y-8983000D02*
X17304000Y-9153000D01*
X17304000Y-8983000D02*
X17134000Y-9153000D01*
X17311750Y-14713000D02*
X17481750Y-14883000D01*
X17481750Y-14713000D02*
X17311750Y-14883000D01*
X17550500Y-12803000D02*
X17720500Y-12973000D01*
X17720500Y-12803000D02*
X17550500Y-12973000D01*
X17611500Y-10893000D02*
X17781500Y-11063000D01*
X17781500Y-10893000D02*
X17611500Y-11063000D01*
X17789875Y-14713000D02*
X17959875Y-14883000D01*
X17959875Y-14713000D02*
X17789875Y-14883000D01*
X18028000Y-8983000D02*
X18198000Y-9153000D01*
X18198000Y-8983000D02*
X18028000Y-9153000D01*
X18089000Y-7073000D02*
X18259000Y-7243000D01*
X18259000Y-7073000D02*
X18089000Y-7243000D01*
X18327750Y-14713000D02*
X18497750Y-14883000D01*
X18497750Y-14713000D02*
X18327750Y-14883000D01*
X18505500Y-10893000D02*
X18675500Y-11063000D01*
X18675500Y-10893000D02*
X18505500Y-11063000D01*
X18566500Y-12803000D02*
X18736500Y-12973000D01*
X18736500Y-12803000D02*
X18566500Y-12973000D01*
X18805875Y-14713000D02*
X18975875Y-14883000D01*
X18975875Y-14713000D02*
X18805875Y-14883000D01*
X18983000Y-7073000D02*
X19153000Y-7243000D01*
X19153000Y-7073000D02*
X18983000Y-7243000D01*
X19044000Y-8983000D02*
X19214000Y-9153000D01*
X19214000Y-8983000D02*
X19044000Y-9153000D01*
X19460500Y-12803000D02*
X19630500Y-12973000D01*
X19630500Y-12803000D02*
X19460500Y-12973000D01*
X19521500Y-10893000D02*
X19691500Y-11063000D01*
X19691500Y-10893000D02*
X19521500Y-11063000D01*
X19938000Y-8983000D02*
X20108000Y-9153000D01*
X20108000Y-8983000D02*
X19938000Y-9153000D01*
X19999000Y-7073000D02*
X20169000Y-7243000D01*
X20169000Y-7073000D02*
X19999000Y-7243000D01*
X20415500Y-10893000D02*
X20585500Y-11063000D01*
X20585500Y-10893000D02*
X20415500Y-11063000D01*
X20476500Y-12803000D02*
X20646500Y-12973000D01*
X20646500Y-12803000D02*
X20476500Y-12973000D01*
X20893000Y-7073000D02*
X21063000Y-7243000D01*
X21063000Y-7073000D02*
X20893000Y-7243000D01*
X20954000Y-8983000D02*
X21124000Y-9153000D01*
X21124000Y-8983000D02*
X20954000Y-9153000D01*
X21132375Y-14713000D02*
X21302375Y-14883000D01*
X21302375Y-14713000D02*
X21132375Y-14883000D01*
X21370500Y-12803000D02*
X21540500Y-12973000D01*
X21540500Y-12803000D02*
X21370500Y-12973000D01*
X21431500Y-10893000D02*
X21601500Y-11063000D01*
X21601500Y-10893000D02*
X21431500Y-11063000D01*
X21848000Y-8983000D02*
X22018000Y-9153000D01*
X22018000Y-8983000D02*
X21848000Y-9153000D01*
X21909000Y-7073000D02*
X22079000Y-7243000D01*
X22079000Y-7073000D02*
X21909000Y-7243000D01*
X22148375Y-14713000D02*
X22318375Y-14883000D01*
X22318375Y-14713000D02*
X22148375Y-14883000D01*
X22325500Y-10893000D02*
X22495500Y-11063000D01*
X22495500Y-10893000D02*
X22325500Y-11063000D01*
X22386500Y-12803000D02*
X22556500Y-12973000D01*
X22556500Y-12803000D02*
X22386500Y-12973000D01*
X22803000Y-7073000D02*
X22973000Y-7243000D01*
X22973000Y-7073000D02*
X22803000Y-7243000D01*
X22864000Y-8983000D02*
X23034000Y-9153000D01*
X23034000Y-8983000D02*
X22864000Y-9153000D01*
X23280500Y-12803000D02*
X23450500Y-12973000D01*
X23450500Y-12803000D02*
X23280500Y-12973000D01*
X23341500Y-10893000D02*
X23511500Y-11063000D01*
X23511500Y-10893000D02*
X23341500Y-11063000D01*
X23758000Y-8983000D02*
X23928000Y-9153000D01*
X23928000Y-8983000D02*
X23758000Y-9153000D01*
X23819000Y-7073000D02*
X23989000Y-7243000D01*
X23989000Y-7073000D02*
X23819000Y-7243000D01*
X24235500Y-10893000D02*
X24405500Y-11063000D01*
X24405500Y-10893000D02*
X24235500Y-11063000D01*
X24296500Y-12803000D02*
X24466500Y-12973000D01*
X24466500Y-12803000D02*
X24296500Y-12973000D01*
X24713000Y-7073000D02*
X24883000Y-7243000D01*
X24883000Y-7073000D02*
X24713000Y-7243000D01*
X24774000Y-8983000D02*
X24944000Y-9153000D01*
X24944000Y-8983000D02*
X24774000Y-9153000D01*
X24951750Y-14713000D02*
X25121750Y-14883000D01*
X25121750Y-14713000D02*
X24951750Y-14883000D01*
X25190500Y-12803000D02*
X25360500Y-12973000D01*
X25360500Y-12803000D02*
X25190500Y-12973000D01*
X25251500Y-10893000D02*
X25421500Y-11063000D01*
X25421500Y-10893000D02*
X25251500Y-11063000D01*
X25668000Y-8983000D02*
X25838000Y-9153000D01*
X25838000Y-8983000D02*
X25668000Y-9153000D01*
X25729000Y-7073000D02*
X25899000Y-7243000D01*
X25899000Y-7073000D02*
X25729000Y-7243000D01*
X25967750Y-14713000D02*
X26137750Y-14883000D01*
X26137750Y-14713000D02*
X25967750Y-14883000D01*
X26145500Y-10893000D02*
X26315500Y-11063000D01*
X26315500Y-10893000D02*
X26145500Y-11063000D01*
X26206500Y-12803000D02*
X26376500Y-12973000D01*
X26376500Y-12803000D02*
X26206500Y-12973000D01*
X26623000Y-7073000D02*
X26793000Y-7243000D01*
X26793000Y-7073000D02*
X26623000Y-7243000D01*
X26684000Y-8983000D02*
X26854000Y-9153000D01*
X26854000Y-8983000D02*
X26684000Y-9153000D01*
X27100500Y-12803000D02*
X27270500Y-12973000D01*
X27270500Y-12803000D02*
X27100500Y-12973000D01*
X27161500Y-10893000D02*
X27331500Y-11063000D01*
X27331500Y-10893000D02*
X27161500Y-11063000D01*
X27339250Y-14713000D02*
X27509250Y-14883000D01*
X27509250Y-14713000D02*
X27339250Y-14883000D01*
X27578000Y-8983000D02*
X27748000Y-9153000D01*
X27748000Y-8983000D02*
X27578000Y-9153000D01*
X27639000Y-7073000D02*
X27809000Y-7243000D01*
X27809000Y-7073000D02*
X27639000Y-7243000D01*
X28055500Y-10893000D02*
X28225500Y-11063000D01*
X28225500Y-10893000D02*
X28055500Y-11063000D01*
X28116500Y-12803000D02*
X28286500Y-12973000D01*
X28286500Y-12803000D02*
X28116500Y-12973000D01*
X28355250Y-14713000D02*
X28525250Y-14883000D01*
X28525250Y-14713000D02*
X28355250Y-14883000D01*
X28533000Y-7073000D02*
X28703000Y-7243000D01*
X28703000Y-7073000D02*
X28533000Y-7243000D01*
X28594000Y-8983000D02*
X28764000Y-9153000D01*
X28764000Y-8983000D02*
X28594000Y-9153000D01*
X29071500Y-10893000D02*
X29241500Y-11063000D01*
X29241500Y-10893000D02*
X29071500Y-11063000D01*
X29488000Y-8983000D02*
X29658000Y-9153000D01*
X29658000Y-8983000D02*
X29488000Y-9153000D01*
X29549000Y-7073000D02*
X29719000Y-7243000D01*
X29719000Y-7073000D02*
X29549000Y-7243000D01*
X29726750Y-12803000D02*
X29896750Y-12973000D01*
X29896750Y-12803000D02*
X29726750Y-12973000D01*
X29965500Y-10893000D02*
X30135500Y-11063000D01*
X30135500Y-10893000D02*
X29965500Y-11063000D01*
X30443000Y-14713000D02*
X30613000Y-14883000D01*
X30613000Y-14713000D02*
X30443000Y-14883000D01*
X30504000Y-8983000D02*
X30674000Y-9153000D01*
X30674000Y-8983000D02*
X30504000Y-9153000D01*
X30742750Y-12803000D02*
X30912750Y-12973000D01*
X30912750Y-12803000D02*
X30742750Y-12973000D01*
X30981500Y-10893000D02*
X31151500Y-11063000D01*
X31151500Y-10893000D02*
X30981500Y-11063000D01*
X31398000Y-7073000D02*
X31568000Y-7243000D01*
X31568000Y-7073000D02*
X31398000Y-7243000D01*
X31459000Y-14713000D02*
X31629000Y-14883000D01*
X31629000Y-14713000D02*
X31459000Y-14883000D01*
X32114250Y-9938000D02*
X32284250Y-10108000D01*
X32284250Y-9938000D02*
X32114250Y-10108000D01*
X32353000Y-12803000D02*
X32523000Y-12973000D01*
X32523000Y-12803000D02*
X32353000Y-12973000D01*
X32353000Y-14713000D02*
X32523000Y-14883000D01*
X32523000Y-14713000D02*
X32353000Y-14883000D01*
X32414000Y-7073000D02*
X32584000Y-7243000D01*
X32584000Y-7073000D02*
X32414000Y-7243000D01*
X33130250Y-9938000D02*
X33300250Y-10108000D01*
X33300250Y-9938000D02*
X33130250Y-10108000D01*
X33369000Y-12803000D02*
X33539000Y-12973000D01*
X33539000Y-12803000D02*
X33369000Y-12973000D01*
X33369000Y-14713000D02*
X33539000Y-14883000D01*
X33539000Y-14713000D02*
X33369000Y-14883000D01*
X34263000Y-7073000D02*
X34433000Y-7243000D01*
X34433000Y-7073000D02*
X34263000Y-7243000D01*
X34263000Y-8983000D02*
X34433000Y-9153000D01*
X34433000Y-8983000D02*
X34263000Y-9153000D01*
X34263000Y-10893000D02*
X34433000Y-11063000D01*
X34433000Y-10893000D02*
X34263000Y-11063000D01*
X34263000Y-12803000D02*
X34433000Y-12973000D01*
X34433000Y-12803000D02*
X34263000Y-12973000D01*
X34263000Y-14713000D02*
X34433000Y-14883000D01*
X34433000Y-14713000D02*
X34263000Y-14883000D01*
X35279000Y-7073000D02*
X35449000Y-7243000D01*
X35449000Y-7073000D02*
X35279000Y-7243000D01*
X35279000Y-8983000D02*
X35449000Y-9153000D01*
X35449000Y-8983000D02*
X35279000Y-9153000D01*
X35279000Y-10893000D02*
X35449000Y-11063000D01*
X35449000Y-10893000D02*
X35279000Y-11063000D01*
X35279000Y-12803000D02*
X35449000Y-12973000D01*
X35449000Y-12803000D02*
X35279000Y-12973000D01*
X35279000Y-14713000D02*
X35449000Y-14883000D01*
X35449000Y-14713000D02*
X35279000Y-14883000D01*
D13*
X5975000Y-6904000D02*
G75*
G02*
X5675000Y-6904000I-150000J0D01*
G01*
X5675000Y-6904000D02*
G75*
G02*
X5975000Y-6904000I150000J0D01*
G01*
X6213750Y-12634000D02*
G75*
G02*
X5913750Y-12634000I-150000J0D01*
G01*
X5913750Y-12634000D02*
G75*
G02*
X6213750Y-12634000I150000J0D01*
G01*
X6213750Y-14544000D02*
G75*
G02*
X5913750Y-14544000I-150000J0D01*
G01*
X5913750Y-14544000D02*
G75*
G02*
X6213750Y-14544000I150000J0D01*
G01*
X6452500Y-8814000D02*
G75*
G02*
X6152500Y-8814000I-150000J0D01*
G01*
X6152500Y-8814000D02*
G75*
G02*
X6452500Y-8814000I150000J0D01*
G01*
X6610000Y-6650000D02*
G75*
G02*
X6310000Y-6650000I-150000J0D01*
G01*
X6310000Y-6650000D02*
G75*
G02*
X6610000Y-6650000I150000J0D01*
G01*
X6691250Y-10724000D02*
G75*
G02*
X6391250Y-10724000I-150000J0D01*
G01*
X6391250Y-10724000D02*
G75*
G02*
X6691250Y-10724000I150000J0D01*
G01*
X6848750Y-12380000D02*
G75*
G02*
X6548750Y-12380000I-150000J0D01*
G01*
X6548750Y-12380000D02*
G75*
G02*
X6848750Y-12380000I150000J0D01*
G01*
X6848750Y-14290000D02*
G75*
G02*
X6548750Y-14290000I-150000J0D01*
G01*
X6548750Y-14290000D02*
G75*
G02*
X6848750Y-14290000I150000J0D01*
G01*
X7087500Y-8560000D02*
G75*
G02*
X6787500Y-8560000I-150000J0D01*
G01*
X6787500Y-8560000D02*
G75*
G02*
X7087500Y-8560000I150000J0D01*
G01*
X7326250Y-10470000D02*
G75*
G02*
X7026250Y-10470000I-150000J0D01*
G01*
X7026250Y-10470000D02*
G75*
G02*
X7326250Y-10470000I150000J0D01*
G01*
X7885000Y-6904000D02*
G75*
G02*
X7585000Y-6904000I-150000J0D01*
G01*
X7585000Y-6904000D02*
G75*
G02*
X7885000Y-6904000I150000J0D01*
G01*
X8362500Y-12634000D02*
G75*
G02*
X8062500Y-12634000I-150000J0D01*
G01*
X8062500Y-12634000D02*
G75*
G02*
X8362500Y-12634000I150000J0D01*
G01*
X8520000Y-6650000D02*
G75*
G02*
X8220000Y-6650000I-150000J0D01*
G01*
X8220000Y-6650000D02*
G75*
G02*
X8520000Y-6650000I150000J0D01*
G01*
X8601250Y-14544000D02*
G75*
G02*
X8301250Y-14544000I-150000J0D01*
G01*
X8301250Y-14544000D02*
G75*
G02*
X8601250Y-14544000I150000J0D01*
G01*
X8840000Y-8814000D02*
G75*
G02*
X8540000Y-8814000I-150000J0D01*
G01*
X8540000Y-8814000D02*
G75*
G02*
X8840000Y-8814000I150000J0D01*
G01*
X8997500Y-12380000D02*
G75*
G02*
X8697500Y-12380000I-150000J0D01*
G01*
X8697500Y-12380000D02*
G75*
G02*
X8997500Y-12380000I150000J0D01*
G01*
X9236250Y-14290000D02*
G75*
G02*
X8936250Y-14290000I-150000J0D01*
G01*
X8936250Y-14290000D02*
G75*
G02*
X9236250Y-14290000I150000J0D01*
G01*
X9317500Y-10724000D02*
G75*
G02*
X9017500Y-10724000I-150000J0D01*
G01*
X9017500Y-10724000D02*
G75*
G02*
X9317500Y-10724000I150000J0D01*
G01*
X9475000Y-8560000D02*
G75*
G02*
X9175000Y-8560000I-150000J0D01*
G01*
X9175000Y-8560000D02*
G75*
G02*
X9475000Y-8560000I150000J0D01*
G01*
X9795000Y-6904000D02*
G75*
G02*
X9495000Y-6904000I-150000J0D01*
G01*
X9495000Y-6904000D02*
G75*
G02*
X9795000Y-6904000I150000J0D01*
G01*
X9952500Y-10470000D02*
G75*
G02*
X9652500Y-10470000I-150000J0D01*
G01*
X9652500Y-10470000D02*
G75*
G02*
X9952500Y-10470000I150000J0D01*
G01*
X10272500Y-12634000D02*
G75*
G02*
X9972500Y-12634000I-150000J0D01*
G01*
X9972500Y-12634000D02*
G75*
G02*
X10272500Y-12634000I150000J0D01*
G01*
X10430000Y-6650000D02*
G75*
G02*
X10130000Y-6650000I-150000J0D01*
G01*
X10130000Y-6650000D02*
G75*
G02*
X10430000Y-6650000I150000J0D01*
G01*
X10750000Y-8814000D02*
G75*
G02*
X10450000Y-8814000I-150000J0D01*
G01*
X10450000Y-8814000D02*
G75*
G02*
X10750000Y-8814000I150000J0D01*
G01*
X10907500Y-12380000D02*
G75*
G02*
X10607500Y-12380000I-150000J0D01*
G01*
X10607500Y-12380000D02*
G75*
G02*
X10907500Y-12380000I150000J0D01*
G01*
X10989375Y-14544000D02*
G75*
G02*
X10689375Y-14544000I-150000J0D01*
G01*
X10689375Y-14544000D02*
G75*
G02*
X10989375Y-14544000I150000J0D01*
G01*
X11227500Y-10724000D02*
G75*
G02*
X10927500Y-10724000I-150000J0D01*
G01*
X10927500Y-10724000D02*
G75*
G02*
X11227500Y-10724000I150000J0D01*
G01*
X11385000Y-8560000D02*
G75*
G02*
X11085000Y-8560000I-150000J0D01*
G01*
X11085000Y-8560000D02*
G75*
G02*
X11385000Y-8560000I150000J0D01*
G01*
X11624375Y-14290000D02*
G75*
G02*
X11324375Y-14290000I-150000J0D01*
G01*
X11324375Y-14290000D02*
G75*
G02*
X11624375Y-14290000I150000J0D01*
G01*
X11705000Y-6904000D02*
G75*
G02*
X11405000Y-6904000I-150000J0D01*
G01*
X11405000Y-6904000D02*
G75*
G02*
X11705000Y-6904000I150000J0D01*
G01*
X11862500Y-10470000D02*
G75*
G02*
X11562500Y-10470000I-150000J0D01*
G01*
X11562500Y-10470000D02*
G75*
G02*
X11862500Y-10470000I150000J0D01*
G01*
X12182500Y-12634000D02*
G75*
G02*
X11882500Y-12634000I-150000J0D01*
G01*
X11882500Y-12634000D02*
G75*
G02*
X12182500Y-12634000I150000J0D01*
G01*
X12340000Y-6650000D02*
G75*
G02*
X12040000Y-6650000I-150000J0D01*
G01*
X12040000Y-6650000D02*
G75*
G02*
X12340000Y-6650000I150000J0D01*
G01*
X12660000Y-8814000D02*
G75*
G02*
X12360000Y-8814000I-150000J0D01*
G01*
X12360000Y-8814000D02*
G75*
G02*
X12660000Y-8814000I150000J0D01*
G01*
X12817500Y-12380000D02*
G75*
G02*
X12517500Y-12380000I-150000J0D01*
G01*
X12517500Y-12380000D02*
G75*
G02*
X12817500Y-12380000I150000J0D01*
G01*
X13137500Y-10724000D02*
G75*
G02*
X12837500Y-10724000I-150000J0D01*
G01*
X12837500Y-10724000D02*
G75*
G02*
X13137500Y-10724000I150000J0D01*
G01*
X13295000Y-8560000D02*
G75*
G02*
X12995000Y-8560000I-150000J0D01*
G01*
X12995000Y-8560000D02*
G75*
G02*
X13295000Y-8560000I150000J0D01*
G01*
X13615000Y-6904000D02*
G75*
G02*
X13315000Y-6904000I-150000J0D01*
G01*
X13315000Y-6904000D02*
G75*
G02*
X13615000Y-6904000I150000J0D01*
G01*
X13772500Y-10470000D02*
G75*
G02*
X13472500Y-10470000I-150000J0D01*
G01*
X13472500Y-10470000D02*
G75*
G02*
X13772500Y-10470000I150000J0D01*
G01*
X14092500Y-12634000D02*
G75*
G02*
X13792500Y-12634000I-150000J0D01*
G01*
X13792500Y-12634000D02*
G75*
G02*
X14092500Y-12634000I150000J0D01*
G01*
X14250000Y-6650000D02*
G75*
G02*
X13950000Y-6650000I-150000J0D01*
G01*
X13950000Y-6650000D02*
G75*
G02*
X14250000Y-6650000I150000J0D01*
G01*
X14331875Y-14544000D02*
G75*
G02*
X14031875Y-14544000I-150000J0D01*
G01*
X14031875Y-14544000D02*
G75*
G02*
X14331875Y-14544000I150000J0D01*
G01*
X14570000Y-8814000D02*
G75*
G02*
X14270000Y-8814000I-150000J0D01*
G01*
X14270000Y-8814000D02*
G75*
G02*
X14570000Y-8814000I150000J0D01*
G01*
X14727500Y-12380000D02*
G75*
G02*
X14427500Y-12380000I-150000J0D01*
G01*
X14427500Y-12380000D02*
G75*
G02*
X14727500Y-12380000I150000J0D01*
G01*
X14966875Y-14290000D02*
G75*
G02*
X14666875Y-14290000I-150000J0D01*
G01*
X14666875Y-14290000D02*
G75*
G02*
X14966875Y-14290000I150000J0D01*
G01*
X15047500Y-10724000D02*
G75*
G02*
X14747500Y-10724000I-150000J0D01*
G01*
X14747500Y-10724000D02*
G75*
G02*
X15047500Y-10724000I150000J0D01*
G01*
X15205000Y-8560000D02*
G75*
G02*
X14905000Y-8560000I-150000J0D01*
G01*
X14905000Y-8560000D02*
G75*
G02*
X15205000Y-8560000I150000J0D01*
G01*
X15525000Y-6904000D02*
G75*
G02*
X15225000Y-6904000I-150000J0D01*
G01*
X15225000Y-6904000D02*
G75*
G02*
X15525000Y-6904000I150000J0D01*
G01*
X15682500Y-10470000D02*
G75*
G02*
X15382500Y-10470000I-150000J0D01*
G01*
X15382500Y-10470000D02*
G75*
G02*
X15682500Y-10470000I150000J0D01*
G01*
X16002500Y-12634000D02*
G75*
G02*
X15702500Y-12634000I-150000J0D01*
G01*
X15702500Y-12634000D02*
G75*
G02*
X16002500Y-12634000I150000J0D01*
G01*
X16160000Y-6650000D02*
G75*
G02*
X15860000Y-6650000I-150000J0D01*
G01*
X15860000Y-6650000D02*
G75*
G02*
X16160000Y-6650000I150000J0D01*
G01*
X16480000Y-8814000D02*
G75*
G02*
X16180000Y-8814000I-150000J0D01*
G01*
X16180000Y-8814000D02*
G75*
G02*
X16480000Y-8814000I150000J0D01*
G01*
X16637500Y-12380000D02*
G75*
G02*
X16337500Y-12380000I-150000J0D01*
G01*
X16337500Y-12380000D02*
G75*
G02*
X16637500Y-12380000I150000J0D01*
G01*
X16957500Y-10724000D02*
G75*
G02*
X16657500Y-10724000I-150000J0D01*
G01*
X16657500Y-10724000D02*
G75*
G02*
X16957500Y-10724000I150000J0D01*
G01*
X17115000Y-8560000D02*
G75*
G02*
X16815000Y-8560000I-150000J0D01*
G01*
X16815000Y-8560000D02*
G75*
G02*
X17115000Y-8560000I150000J0D01*
G01*
X17435000Y-6904000D02*
G75*
G02*
X17135000Y-6904000I-150000J0D01*
G01*
X17135000Y-6904000D02*
G75*
G02*
X17435000Y-6904000I150000J0D01*
G01*
X17592500Y-10470000D02*
G75*
G02*
X17292500Y-10470000I-150000J0D01*
G01*
X17292500Y-10470000D02*
G75*
G02*
X17592500Y-10470000I150000J0D01*
G01*
X17800750Y-15306000D02*
G75*
G02*
X17500750Y-15306000I-150000J0D01*
G01*
X17500750Y-15306000D02*
G75*
G02*
X17800750Y-15306000I150000J0D01*
G01*
X17912500Y-12634000D02*
G75*
G02*
X17612500Y-12634000I-150000J0D01*
G01*
X17612500Y-12634000D02*
G75*
G02*
X17912500Y-12634000I150000J0D01*
G01*
X18070000Y-6650000D02*
G75*
G02*
X17770000Y-6650000I-150000J0D01*
G01*
X17770000Y-6650000D02*
G75*
G02*
X18070000Y-6650000I150000J0D01*
G01*
X18151875Y-14544000D02*
G75*
G02*
X17851875Y-14544000I-150000J0D01*
G01*
X17851875Y-14544000D02*
G75*
G02*
X18151875Y-14544000I150000J0D01*
G01*
X18390000Y-8814000D02*
G75*
G02*
X18090000Y-8814000I-150000J0D01*
G01*
X18090000Y-8814000D02*
G75*
G02*
X18390000Y-8814000I150000J0D01*
G01*
X18435750Y-15052000D02*
G75*
G02*
X18135750Y-15052000I-150000J0D01*
G01*
X18135750Y-15052000D02*
G75*
G02*
X18435750Y-15052000I150000J0D01*
G01*
X18547500Y-12380000D02*
G75*
G02*
X18247500Y-12380000I-150000J0D01*
G01*
X18247500Y-12380000D02*
G75*
G02*
X18547500Y-12380000I150000J0D01*
G01*
X18786875Y-14290000D02*
G75*
G02*
X18486875Y-14290000I-150000J0D01*
G01*
X18486875Y-14290000D02*
G75*
G02*
X18786875Y-14290000I150000J0D01*
G01*
X18867500Y-10724000D02*
G75*
G02*
X18567500Y-10724000I-150000J0D01*
G01*
X18567500Y-10724000D02*
G75*
G02*
X18867500Y-10724000I150000J0D01*
G01*
X19025000Y-8560000D02*
G75*
G02*
X18725000Y-8560000I-150000J0D01*
G01*
X18725000Y-8560000D02*
G75*
G02*
X19025000Y-8560000I150000J0D01*
G01*
X19345000Y-6904000D02*
G75*
G02*
X19045000Y-6904000I-150000J0D01*
G01*
X19045000Y-6904000D02*
G75*
G02*
X19345000Y-6904000I150000J0D01*
G01*
X19502500Y-10470000D02*
G75*
G02*
X19202500Y-10470000I-150000J0D01*
G01*
X19202500Y-10470000D02*
G75*
G02*
X19502500Y-10470000I150000J0D01*
G01*
X19822500Y-12634000D02*
G75*
G02*
X19522500Y-12634000I-150000J0D01*
G01*
X19522500Y-12634000D02*
G75*
G02*
X19822500Y-12634000I150000J0D01*
G01*
X19980000Y-6650000D02*
G75*
G02*
X19680000Y-6650000I-150000J0D01*
G01*
X19680000Y-6650000D02*
G75*
G02*
X19980000Y-6650000I150000J0D01*
G01*
X20300000Y-8814000D02*
G75*
G02*
X20000000Y-8814000I-150000J0D01*
G01*
X20000000Y-8814000D02*
G75*
G02*
X20300000Y-8814000I150000J0D01*
G01*
X20457500Y-12380000D02*
G75*
G02*
X20157500Y-12380000I-150000J0D01*
G01*
X20157500Y-12380000D02*
G75*
G02*
X20457500Y-12380000I150000J0D01*
G01*
X20777500Y-10724000D02*
G75*
G02*
X20477500Y-10724000I-150000J0D01*
G01*
X20477500Y-10724000D02*
G75*
G02*
X20777500Y-10724000I150000J0D01*
G01*
X20935000Y-8560000D02*
G75*
G02*
X20635000Y-8560000I-150000J0D01*
G01*
X20635000Y-8560000D02*
G75*
G02*
X20935000Y-8560000I150000J0D01*
G01*
X21255000Y-6904000D02*
G75*
G02*
X20955000Y-6904000I-150000J0D01*
G01*
X20955000Y-6904000D02*
G75*
G02*
X21255000Y-6904000I150000J0D01*
G01*
X21412500Y-10470000D02*
G75*
G02*
X21112500Y-10470000I-150000J0D01*
G01*
X21112500Y-10470000D02*
G75*
G02*
X21412500Y-10470000I150000J0D01*
G01*
X21494375Y-14544000D02*
G75*
G02*
X21194375Y-14544000I-150000J0D01*
G01*
X21194375Y-14544000D02*
G75*
G02*
X21494375Y-14544000I150000J0D01*
G01*
X21732500Y-12634000D02*
G75*
G02*
X21432500Y-12634000I-150000J0D01*
G01*
X21432500Y-12634000D02*
G75*
G02*
X21732500Y-12634000I150000J0D01*
G01*
X21890000Y-6650000D02*
G75*
G02*
X21590000Y-6650000I-150000J0D01*
G01*
X21590000Y-6650000D02*
G75*
G02*
X21890000Y-6650000I150000J0D01*
G01*
X22129375Y-14290000D02*
G75*
G02*
X21829375Y-14290000I-150000J0D01*
G01*
X21829375Y-14290000D02*
G75*
G02*
X22129375Y-14290000I150000J0D01*
G01*
X22210000Y-8814000D02*
G75*
G02*
X21910000Y-8814000I-150000J0D01*
G01*
X21910000Y-8814000D02*
G75*
G02*
X22210000Y-8814000I150000J0D01*
G01*
X22367500Y-12380000D02*
G75*
G02*
X22067500Y-12380000I-150000J0D01*
G01*
X22067500Y-12380000D02*
G75*
G02*
X22367500Y-12380000I150000J0D01*
G01*
X22687500Y-10724000D02*
G75*
G02*
X22387500Y-10724000I-150000J0D01*
G01*
X22387500Y-10724000D02*
G75*
G02*
X22687500Y-10724000I150000J0D01*
G01*
X22845000Y-8560000D02*
G75*
G02*
X22545000Y-8560000I-150000J0D01*
G01*
X22545000Y-8560000D02*
G75*
G02*
X22845000Y-8560000I150000J0D01*
G01*
X23165000Y-6904000D02*
G75*
G02*
X22865000Y-6904000I-150000J0D01*
G01*
X22865000Y-6904000D02*
G75*
G02*
X23165000Y-6904000I150000J0D01*
G01*
X23322500Y-10470000D02*
G75*
G02*
X23022500Y-10470000I-150000J0D01*
G01*
X23022500Y-10470000D02*
G75*
G02*
X23322500Y-10470000I150000J0D01*
G01*
X23642500Y-12634000D02*
G75*
G02*
X23342500Y-12634000I-150000J0D01*
G01*
X23342500Y-12634000D02*
G75*
G02*
X23642500Y-12634000I150000J0D01*
G01*
X23800000Y-6650000D02*
G75*
G02*
X23500000Y-6650000I-150000J0D01*
G01*
X23500000Y-6650000D02*
G75*
G02*
X23800000Y-6650000I150000J0D01*
G01*
X24120000Y-8814000D02*
G75*
G02*
X23820000Y-8814000I-150000J0D01*
G01*
X23820000Y-8814000D02*
G75*
G02*
X24120000Y-8814000I150000J0D01*
G01*
X24277500Y-12380000D02*
G75*
G02*
X23977500Y-12380000I-150000J0D01*
G01*
X23977500Y-12380000D02*
G75*
G02*
X24277500Y-12380000I150000J0D01*
G01*
X24597500Y-10724000D02*
G75*
G02*
X24297500Y-10724000I-150000J0D01*
G01*
X24297500Y-10724000D02*
G75*
G02*
X24597500Y-10724000I150000J0D01*
G01*
X24755000Y-8560000D02*
G75*
G02*
X24455000Y-8560000I-150000J0D01*
G01*
X24455000Y-8560000D02*
G75*
G02*
X24755000Y-8560000I150000J0D01*
G01*
X25075000Y-6904000D02*
G75*
G02*
X24775000Y-6904000I-150000J0D01*
G01*
X24775000Y-6904000D02*
G75*
G02*
X25075000Y-6904000I150000J0D01*
G01*
X25232500Y-10470000D02*
G75*
G02*
X24932500Y-10470000I-150000J0D01*
G01*
X24932500Y-10470000D02*
G75*
G02*
X25232500Y-10470000I150000J0D01*
G01*
X25313750Y-14544000D02*
G75*
G02*
X25013750Y-14544000I-150000J0D01*
G01*
X25013750Y-14544000D02*
G75*
G02*
X25313750Y-14544000I150000J0D01*
G01*
X25552500Y-12634000D02*
G75*
G02*
X25252500Y-12634000I-150000J0D01*
G01*
X25252500Y-12634000D02*
G75*
G02*
X25552500Y-12634000I150000J0D01*
G01*
X25710000Y-6650000D02*
G75*
G02*
X25410000Y-6650000I-150000J0D01*
G01*
X25410000Y-6650000D02*
G75*
G02*
X25710000Y-6650000I150000J0D01*
G01*
X25948750Y-14290000D02*
G75*
G02*
X25648750Y-14290000I-150000J0D01*
G01*
X25648750Y-14290000D02*
G75*
G02*
X25948750Y-14290000I150000J0D01*
G01*
X26030000Y-8814000D02*
G75*
G02*
X25730000Y-8814000I-150000J0D01*
G01*
X25730000Y-8814000D02*
G75*
G02*
X26030000Y-8814000I150000J0D01*
G01*
X26187500Y-12380000D02*
G75*
G02*
X25887500Y-12380000I-150000J0D01*
G01*
X25887500Y-12380000D02*
G75*
G02*
X26187500Y-12380000I150000J0D01*
G01*
X26507500Y-10724000D02*
G75*
G02*
X26207500Y-10724000I-150000J0D01*
G01*
X26207500Y-10724000D02*
G75*
G02*
X26507500Y-10724000I150000J0D01*
G01*
X26665000Y-8560000D02*
G75*
G02*
X26365000Y-8560000I-150000J0D01*
G01*
X26365000Y-8560000D02*
G75*
G02*
X26665000Y-8560000I150000J0D01*
G01*
X26985000Y-6904000D02*
G75*
G02*
X26685000Y-6904000I-150000J0D01*
G01*
X26685000Y-6904000D02*
G75*
G02*
X26985000Y-6904000I150000J0D01*
G01*
X27142500Y-10470000D02*
G75*
G02*
X26842500Y-10470000I-150000J0D01*
G01*
X26842500Y-10470000D02*
G75*
G02*
X27142500Y-10470000I150000J0D01*
G01*
X27462500Y-12634000D02*
G75*
G02*
X27162500Y-12634000I-150000J0D01*
G01*
X27162500Y-12634000D02*
G75*
G02*
X27462500Y-12634000I150000J0D01*
G01*
X27620000Y-6650000D02*
G75*
G02*
X27320000Y-6650000I-150000J0D01*
G01*
X27320000Y-6650000D02*
G75*
G02*
X27620000Y-6650000I150000J0D01*
G01*
X27701250Y-14544000D02*
G75*
G02*
X27401250Y-14544000I-150000J0D01*
G01*
X27401250Y-14544000D02*
G75*
G02*
X27701250Y-14544000I150000J0D01*
G01*
X27940000Y-8814000D02*
G75*
G02*
X27640000Y-8814000I-150000J0D01*
G01*
X27640000Y-8814000D02*
G75*
G02*
X27940000Y-8814000I150000J0D01*
G01*
X28097500Y-12380000D02*
G75*
G02*
X27797500Y-12380000I-150000J0D01*
G01*
X27797500Y-12380000D02*
G75*
G02*
X28097500Y-12380000I150000J0D01*
G01*
X28336250Y-14290000D02*
G75*
G02*
X28036250Y-14290000I-150000J0D01*
G01*
X28036250Y-14290000D02*
G75*
G02*
X28336250Y-14290000I150000J0D01*
G01*
X28417500Y-10724000D02*
G75*
G02*
X28117500Y-10724000I-150000J0D01*
G01*
X28117500Y-10724000D02*
G75*
G02*
X28417500Y-10724000I150000J0D01*
G01*
X28575000Y-8560000D02*
G75*
G02*
X28275000Y-8560000I-150000J0D01*
G01*
X28275000Y-8560000D02*
G75*
G02*
X28575000Y-8560000I150000J0D01*
G01*
X28895000Y-6904000D02*
G75*
G02*
X28595000Y-6904000I-150000J0D01*
G01*
X28595000Y-6904000D02*
G75*
G02*
X28895000Y-6904000I150000J0D01*
G01*
X29052500Y-10470000D02*
G75*
G02*
X28752500Y-10470000I-150000J0D01*
G01*
X28752500Y-10470000D02*
G75*
G02*
X29052500Y-10470000I150000J0D01*
G01*
X29530000Y-6650000D02*
G75*
G02*
X29230000Y-6650000I-150000J0D01*
G01*
X29230000Y-6650000D02*
G75*
G02*
X29530000Y-6650000I150000J0D01*
G01*
X29850000Y-8814000D02*
G75*
G02*
X29550000Y-8814000I-150000J0D01*
G01*
X29550000Y-8814000D02*
G75*
G02*
X29850000Y-8814000I150000J0D01*
G01*
X30088750Y-12634000D02*
G75*
G02*
X29788750Y-12634000I-150000J0D01*
G01*
X29788750Y-12634000D02*
G75*
G02*
X30088750Y-12634000I150000J0D01*
G01*
X30327500Y-10724000D02*
G75*
G02*
X30027500Y-10724000I-150000J0D01*
G01*
X30027500Y-10724000D02*
G75*
G02*
X30327500Y-10724000I150000J0D01*
G01*
X30485000Y-8560000D02*
G75*
G02*
X30185000Y-8560000I-150000J0D01*
G01*
X30185000Y-8560000D02*
G75*
G02*
X30485000Y-8560000I150000J0D01*
G01*
X30723750Y-12380000D02*
G75*
G02*
X30423750Y-12380000I-150000J0D01*
G01*
X30423750Y-12380000D02*
G75*
G02*
X30723750Y-12380000I150000J0D01*
G01*
X30805000Y-14544000D02*
G75*
G02*
X30505000Y-14544000I-150000J0D01*
G01*
X30505000Y-14544000D02*
G75*
G02*
X30805000Y-14544000I150000J0D01*
G01*
X30962500Y-10470000D02*
G75*
G02*
X30662500Y-10470000I-150000J0D01*
G01*
X30662500Y-10470000D02*
G75*
G02*
X30962500Y-10470000I150000J0D01*
G01*
X31440000Y-14290000D02*
G75*
G02*
X31140000Y-14290000I-150000J0D01*
G01*
X31140000Y-14290000D02*
G75*
G02*
X31440000Y-14290000I150000J0D01*
G01*
X31760000Y-6904000D02*
G75*
G02*
X31460000Y-6904000I-150000J0D01*
G01*
X31460000Y-6904000D02*
G75*
G02*
X31760000Y-6904000I150000J0D01*
G01*
X32395000Y-6650000D02*
G75*
G02*
X32095000Y-6650000I-150000J0D01*
G01*
X32095000Y-6650000D02*
G75*
G02*
X32395000Y-6650000I150000J0D01*
G01*
X32476250Y-9769000D02*
G75*
G02*
X32176250Y-9769000I-150000J0D01*
G01*
X32176250Y-9769000D02*
G75*
G02*
X32476250Y-9769000I150000J0D01*
G01*
X32715000Y-12634000D02*
G75*
G02*
X32415000Y-12634000I-150000J0D01*
G01*
X32415000Y-12634000D02*
G75*
G02*
X32715000Y-12634000I150000J0D01*
G01*
X32715000Y-14544000D02*
G75*
G02*
X32415000Y-14544000I-150000J0D01*
G01*
X32415000Y-14544000D02*
G75*
G02*
X32715000Y-14544000I150000J0D01*
G01*
X33111250Y-9515000D02*
G75*
G02*
X32811250Y-9515000I-150000J0D01*
G01*
X32811250Y-9515000D02*
G75*
G02*
X33111250Y-9515000I150000J0D01*
G01*
X33350000Y-12380000D02*
G75*
G02*
X33050000Y-12380000I-150000J0D01*
G01*
X33050000Y-12380000D02*
G75*
G02*
X33350000Y-12380000I150000J0D01*
G01*
X33350000Y-14290000D02*
G75*
G02*
X33050000Y-14290000I-150000J0D01*
G01*
X33050000Y-14290000D02*
G75*
G02*
X33350000Y-14290000I150000J0D01*
G01*
X34625000Y-6904000D02*
G75*
G02*
X34325000Y-6904000I-150000J0D01*
G01*
X34325000Y-6904000D02*
G75*
G02*
X34625000Y-6904000I150000J0D01*
G01*
X34625000Y-8814000D02*
G75*
G02*
X34325000Y-8814000I-150000J0D01*
G01*
X34325000Y-8814000D02*
G75*
G02*
X34625000Y-8814000I150000J0D01*
G01*
X34625000Y-10724000D02*
G75*
G02*
X34325000Y-10724000I-150000J0D01*
G01*
X34325000Y-10724000D02*
G75*
G02*
X34625000Y-10724000I150000J0D01*
G01*
X34625000Y-12634000D02*
G75*
G02*
X34325000Y-12634000I-150000J0D01*
G01*
X34325000Y-12634000D02*
G75*
G02*
X34625000Y-12634000I150000J0D01*
G01*
X34625000Y-14544000D02*
G75*
G02*
X34325000Y-14544000I-150000J0D01*
G01*
X34325000Y-14544000D02*
G75*
G02*
X34625000Y-14544000I150000J0D01*
G01*
X35260000Y-6650000D02*
G75*
G02*
X34960000Y-6650000I-150000J0D01*
G01*
X34960000Y-6650000D02*
G75*
G02*
X35260000Y-6650000I150000J0D01*
G01*
X35260000Y-8560000D02*
G75*
G02*
X34960000Y-8560000I-150000J0D01*
G01*
X34960000Y-8560000D02*
G75*
G02*
X35260000Y-8560000I150000J0D01*
G01*
X35260000Y-10470000D02*
G75*
G02*
X34960000Y-10470000I-150000J0D01*
G01*
X34960000Y-10470000D02*
G75*
G02*
X35260000Y-10470000I150000J0D01*
G01*
X35260000Y-12380000D02*
G75*
G02*
X34960000Y-12380000I-150000J0D01*
G01*
X34960000Y-12380000D02*
G75*
G02*
X35260000Y-12380000I150000J0D01*
G01*
X35260000Y-14290000D02*
G75*
G02*
X34960000Y-14290000I-150000J0D01*
G01*
X34960000Y-14290000D02*
G75*
G02*
X35260000Y-14290000I150000J0D01*
G01*
D14*
X13372875Y-15345500D02*
X13372875Y-15650500D01*
X13220375Y-15498000D02*
X13525375Y-15498000D01*
X13382875Y-15345500D02*
X13382875Y-15650500D01*
X13230375Y-15498000D02*
X13535375Y-15498000D01*
X15752875Y-15345500D02*
X15752875Y-15650500D01*
X15600375Y-15498000D02*
X15905375Y-15498000D01*
X20535375Y-15345500D02*
X20535375Y-15650500D01*
X20382875Y-15498000D02*
X20687875Y-15498000D01*
X22915375Y-15345500D02*
X22915375Y-15650500D01*
X22762875Y-15498000D02*
X23067875Y-15498000D01*
X23382875Y-15345500D02*
X23382875Y-15650500D01*
X23230375Y-15498000D02*
X23535375Y-15498000D01*
X30801000Y-6305500D02*
X30801000Y-6610500D01*
X30648500Y-6458000D02*
X30953500Y-6458000D01*
X32007250Y-8680500D02*
X32007250Y-8985500D01*
X31854750Y-8833000D02*
X32159750Y-8833000D01*
X32007250Y-11060500D02*
X32007250Y-11365500D01*
X31854750Y-11213000D02*
X32159750Y-11213000D01*
X33181000Y-6305500D02*
X33181000Y-6610500D01*
X33028500Y-6458000D02*
X33333500Y-6458000D01*
D15*
X6347423Y-7299423D02*
X6347423Y-7016577D01*
X6064577Y-7016577D01*
X6064577Y-7299423D01*
X6347423Y-7299423D01*
X6586173Y-13029423D02*
X6586173Y-12746577D01*
X6303327Y-12746577D01*
X6303327Y-13029423D01*
X6586173Y-13029423D01*
X6586173Y-14939423D02*
X6586173Y-14656577D01*
X6303327Y-14656577D01*
X6303327Y-14939423D01*
X6586173Y-14939423D01*
X6824923Y-9209423D02*
X6824923Y-8926577D01*
X6542077Y-8926577D01*
X6542077Y-9209423D01*
X6824923Y-9209423D01*
X7063673Y-11119423D02*
X7063673Y-10836577D01*
X6780827Y-10836577D01*
X6780827Y-11119423D01*
X7063673Y-11119423D01*
X8257423Y-7299423D02*
X8257423Y-7016577D01*
X7974577Y-7016577D01*
X7974577Y-7299423D01*
X8257423Y-7299423D01*
X8734923Y-13029423D02*
X8734923Y-12746577D01*
X8452077Y-12746577D01*
X8452077Y-13029423D01*
X8734923Y-13029423D01*
X8973673Y-14939423D02*
X8973673Y-14656577D01*
X8690827Y-14656577D01*
X8690827Y-14939423D01*
X8973673Y-14939423D01*
X9212423Y-9209423D02*
X9212423Y-8926577D01*
X8929577Y-8926577D01*
X8929577Y-9209423D01*
X9212423Y-9209423D01*
X9689923Y-11119423D02*
X9689923Y-10836577D01*
X9407077Y-10836577D01*
X9407077Y-11119423D01*
X9689923Y-11119423D01*
X10167423Y-7299423D02*
X10167423Y-7016577D01*
X9884577Y-7016577D01*
X9884577Y-7299423D01*
X10167423Y-7299423D01*
X10644923Y-13029423D02*
X10644923Y-12746577D01*
X10362077Y-12746577D01*
X10362077Y-13029423D01*
X10644923Y-13029423D01*
X11122423Y-9209423D02*
X11122423Y-8926577D01*
X10839577Y-8926577D01*
X10839577Y-9209423D01*
X11122423Y-9209423D01*
X11361798Y-14939423D02*
X11361798Y-14656577D01*
X11078952Y-14656577D01*
X11078952Y-14939423D01*
X11361798Y-14939423D01*
X11599923Y-11119423D02*
X11599923Y-10836577D01*
X11317077Y-10836577D01*
X11317077Y-11119423D01*
X11599923Y-11119423D01*
X12077423Y-7299423D02*
X12077423Y-7016577D01*
X11794577Y-7016577D01*
X11794577Y-7299423D01*
X12077423Y-7299423D01*
X12554923Y-13029423D02*
X12554923Y-12746577D01*
X12272077Y-12746577D01*
X12272077Y-13029423D01*
X12554923Y-13029423D01*
X13032423Y-9209423D02*
X13032423Y-8926577D01*
X12749577Y-8926577D01*
X12749577Y-9209423D01*
X13032423Y-9209423D01*
X13509923Y-11119423D02*
X13509923Y-10836577D01*
X13227077Y-10836577D01*
X13227077Y-11119423D01*
X13509923Y-11119423D01*
X13514298Y-14115423D02*
X13514298Y-13832577D01*
X13231452Y-13832577D01*
X13231452Y-14115423D01*
X13514298Y-14115423D01*
X13524298Y-14115423D02*
X13524298Y-13832577D01*
X13241452Y-13832577D01*
X13241452Y-14115423D01*
X13524298Y-14115423D01*
X13987423Y-7299423D02*
X13987423Y-7016577D01*
X13704577Y-7016577D01*
X13704577Y-7299423D01*
X13987423Y-7299423D01*
X14464923Y-13029423D02*
X14464923Y-12746577D01*
X14182077Y-12746577D01*
X14182077Y-13029423D01*
X14464923Y-13029423D01*
X14704298Y-14939423D02*
X14704298Y-14656577D01*
X14421452Y-14656577D01*
X14421452Y-14939423D01*
X14704298Y-14939423D01*
X14942423Y-9209423D02*
X14942423Y-8926577D01*
X14659577Y-8926577D01*
X14659577Y-9209423D01*
X14942423Y-9209423D01*
X15419923Y-11119423D02*
X15419923Y-10836577D01*
X15137077Y-10836577D01*
X15137077Y-11119423D01*
X15419923Y-11119423D01*
X15894298Y-14115423D02*
X15894298Y-13832577D01*
X15611452Y-13832577D01*
X15611452Y-14115423D01*
X15894298Y-14115423D01*
X15897423Y-7299423D02*
X15897423Y-7016577D01*
X15614577Y-7016577D01*
X15614577Y-7299423D01*
X15897423Y-7299423D01*
X16374923Y-13029423D02*
X16374923Y-12746577D01*
X16092077Y-12746577D01*
X16092077Y-13029423D01*
X16374923Y-13029423D01*
X16852423Y-9209423D02*
X16852423Y-8926577D01*
X16569577Y-8926577D01*
X16569577Y-9209423D01*
X16852423Y-9209423D01*
X17329923Y-11119423D02*
X17329923Y-10836577D01*
X17047077Y-10836577D01*
X17047077Y-11119423D01*
X17329923Y-11119423D01*
X17807423Y-7299423D02*
X17807423Y-7016577D01*
X17524577Y-7016577D01*
X17524577Y-7299423D01*
X17807423Y-7299423D01*
X18046173Y-14939423D02*
X18046173Y-14656577D01*
X17763327Y-14656577D01*
X17763327Y-14939423D01*
X18046173Y-14939423D01*
X18284923Y-13029423D02*
X18284923Y-12746577D01*
X18002077Y-12746577D01*
X18002077Y-13029423D01*
X18284923Y-13029423D01*
X18524298Y-14939423D02*
X18524298Y-14656577D01*
X18241452Y-14656577D01*
X18241452Y-14939423D01*
X18524298Y-14939423D01*
X18762423Y-9209423D02*
X18762423Y-8926577D01*
X18479577Y-8926577D01*
X18479577Y-9209423D01*
X18762423Y-9209423D01*
X19239923Y-11119423D02*
X19239923Y-10836577D01*
X18957077Y-10836577D01*
X18957077Y-11119423D01*
X19239923Y-11119423D01*
X19717423Y-7299423D02*
X19717423Y-7016577D01*
X19434577Y-7016577D01*
X19434577Y-7299423D01*
X19717423Y-7299423D01*
X20194923Y-13029423D02*
X20194923Y-12746577D01*
X19912077Y-12746577D01*
X19912077Y-13029423D01*
X20194923Y-13029423D01*
X20672423Y-9209423D02*
X20672423Y-8926577D01*
X20389577Y-8926577D01*
X20389577Y-9209423D01*
X20672423Y-9209423D01*
X20676798Y-14115423D02*
X20676798Y-13832577D01*
X20393952Y-13832577D01*
X20393952Y-14115423D01*
X20676798Y-14115423D01*
X21149923Y-11119423D02*
X21149923Y-10836577D01*
X20867077Y-10836577D01*
X20867077Y-11119423D01*
X21149923Y-11119423D01*
X21627423Y-7299423D02*
X21627423Y-7016577D01*
X21344577Y-7016577D01*
X21344577Y-7299423D01*
X21627423Y-7299423D01*
X21866798Y-14939423D02*
X21866798Y-14656577D01*
X21583952Y-14656577D01*
X21583952Y-14939423D01*
X21866798Y-14939423D01*
X22104923Y-13029423D02*
X22104923Y-12746577D01*
X21822077Y-12746577D01*
X21822077Y-13029423D01*
X22104923Y-13029423D01*
X22582423Y-9209423D02*
X22582423Y-8926577D01*
X22299577Y-8926577D01*
X22299577Y-9209423D01*
X22582423Y-9209423D01*
X23056798Y-14115423D02*
X23056798Y-13832577D01*
X22773952Y-13832577D01*
X22773952Y-14115423D01*
X23056798Y-14115423D01*
X23059923Y-11119423D02*
X23059923Y-10836577D01*
X22777077Y-10836577D01*
X22777077Y-11119423D01*
X23059923Y-11119423D01*
X23524298Y-14115423D02*
X23524298Y-13832577D01*
X23241452Y-13832577D01*
X23241452Y-14115423D01*
X23524298Y-14115423D01*
X23537423Y-7299423D02*
X23537423Y-7016577D01*
X23254577Y-7016577D01*
X23254577Y-7299423D01*
X23537423Y-7299423D01*
X24014923Y-13029423D02*
X24014923Y-12746577D01*
X23732077Y-12746577D01*
X23732077Y-13029423D01*
X24014923Y-13029423D01*
X24492423Y-9209423D02*
X24492423Y-8926577D01*
X24209577Y-8926577D01*
X24209577Y-9209423D01*
X24492423Y-9209423D01*
X24969923Y-11119423D02*
X24969923Y-10836577D01*
X24687077Y-10836577D01*
X24687077Y-11119423D01*
X24969923Y-11119423D01*
X25447423Y-7299423D02*
X25447423Y-7016577D01*
X25164577Y-7016577D01*
X25164577Y-7299423D01*
X25447423Y-7299423D01*
X25686173Y-14939423D02*
X25686173Y-14656577D01*
X25403327Y-14656577D01*
X25403327Y-14939423D01*
X25686173Y-14939423D01*
X25924923Y-13029423D02*
X25924923Y-12746577D01*
X25642077Y-12746577D01*
X25642077Y-13029423D01*
X25924923Y-13029423D01*
X26402423Y-9209423D02*
X26402423Y-8926577D01*
X26119577Y-8926577D01*
X26119577Y-9209423D01*
X26402423Y-9209423D01*
X26879923Y-11119423D02*
X26879923Y-10836577D01*
X26597077Y-10836577D01*
X26597077Y-11119423D01*
X26879923Y-11119423D01*
X27357423Y-7299423D02*
X27357423Y-7016577D01*
X27074577Y-7016577D01*
X27074577Y-7299423D01*
X27357423Y-7299423D01*
X27834923Y-13029423D02*
X27834923Y-12746577D01*
X27552077Y-12746577D01*
X27552077Y-13029423D01*
X27834923Y-13029423D01*
X28073673Y-14939423D02*
X28073673Y-14656577D01*
X27790827Y-14656577D01*
X27790827Y-14939423D01*
X28073673Y-14939423D01*
X28312423Y-9209423D02*
X28312423Y-8926577D01*
X28029577Y-8926577D01*
X28029577Y-9209423D01*
X28312423Y-9209423D01*
X28789923Y-11119423D02*
X28789923Y-10836577D01*
X28507077Y-10836577D01*
X28507077Y-11119423D01*
X28789923Y-11119423D01*
X29267423Y-7299423D02*
X29267423Y-7016577D01*
X28984577Y-7016577D01*
X28984577Y-7299423D01*
X29267423Y-7299423D01*
X30222423Y-9209423D02*
X30222423Y-8926577D01*
X29939577Y-8926577D01*
X29939577Y-9209423D01*
X30222423Y-9209423D01*
X30461173Y-13029423D02*
X30461173Y-12746577D01*
X30178327Y-12746577D01*
X30178327Y-13029423D01*
X30461173Y-13029423D01*
X30699923Y-11119423D02*
X30699923Y-10836577D01*
X30417077Y-10836577D01*
X30417077Y-11119423D01*
X30699923Y-11119423D01*
X30942423Y-8123423D02*
X30942423Y-7840577D01*
X30659577Y-7840577D01*
X30659577Y-8123423D01*
X30942423Y-8123423D01*
X31177423Y-14939423D02*
X31177423Y-14656577D01*
X30894577Y-14656577D01*
X30894577Y-14939423D01*
X31177423Y-14939423D01*
X32132423Y-7299423D02*
X32132423Y-7016577D01*
X31849577Y-7016577D01*
X31849577Y-7299423D01*
X32132423Y-7299423D01*
X32848673Y-10164423D02*
X32848673Y-9881577D01*
X32565827Y-9881577D01*
X32565827Y-10164423D01*
X32848673Y-10164423D01*
X33087423Y-13029423D02*
X33087423Y-12746577D01*
X32804577Y-12746577D01*
X32804577Y-13029423D01*
X33087423Y-13029423D01*
X33087423Y-14939423D02*
X33087423Y-14656577D01*
X32804577Y-14656577D01*
X32804577Y-14939423D01*
X33087423Y-14939423D01*
X33322423Y-8123423D02*
X33322423Y-7840577D01*
X33039577Y-7840577D01*
X33039577Y-8123423D01*
X33322423Y-8123423D01*
X33672673Y-8974423D02*
X33672673Y-8691577D01*
X33389827Y-8691577D01*
X33389827Y-8974423D01*
X33672673Y-8974423D01*
X33672673Y-11354423D02*
X33672673Y-11071577D01*
X33389827Y-11071577D01*
X33389827Y-11354423D01*
X33672673Y-11354423D01*
X34997423Y-7299423D02*
X34997423Y-7016577D01*
X34714577Y-7016577D01*
X34714577Y-7299423D01*
X34997423Y-7299423D01*
X34997423Y-9209423D02*
X34997423Y-8926577D01*
X34714577Y-8926577D01*
X34714577Y-9209423D01*
X34997423Y-9209423D01*
X34997423Y-11119423D02*
X34997423Y-10836577D01*
X34714577Y-10836577D01*
X34714577Y-11119423D01*
X34997423Y-11119423D01*
X34997423Y-13029423D02*
X34997423Y-12746577D01*
X34714577Y-12746577D01*
X34714577Y-13029423D01*
X34997423Y-13029423D01*
X34997423Y-14939423D02*
X34997423Y-14656577D01*
X34714577Y-14656577D01*
X34714577Y-14939423D01*
X34997423Y-14939423D01*
D11*
X5506777Y-16069484D02*
X5506777Y-15869484D01*
X5506777Y-15869484D02*
X5554396Y-15869484D01*
X5554396Y-15869484D02*
X5582967Y-15879008D01*
X5582967Y-15879008D02*
X5602015Y-15898055D01*
X5602015Y-15898055D02*
X5611539Y-15917103D01*
X5611539Y-15917103D02*
X5621062Y-15955198D01*
X5621062Y-15955198D02*
X5621062Y-15983769D01*
X5621062Y-15983769D02*
X5611539Y-16021865D01*
X5611539Y-16021865D02*
X5602015Y-16040912D01*
X5602015Y-16040912D02*
X5582967Y-16059960D01*
X5582967Y-16059960D02*
X5554396Y-16069484D01*
X5554396Y-16069484D02*
X5506777Y-16069484D01*
X5706777Y-16069484D02*
X5706777Y-15936150D01*
X5706777Y-15974246D02*
X5716301Y-15955198D01*
X5716301Y-15955198D02*
X5725824Y-15945674D01*
X5725824Y-15945674D02*
X5744872Y-15936150D01*
X5744872Y-15936150D02*
X5763920Y-15936150D01*
X5830586Y-16069484D02*
X5830586Y-15936150D01*
X5830586Y-15869484D02*
X5821062Y-15879008D01*
X5821062Y-15879008D02*
X5830586Y-15888531D01*
X5830586Y-15888531D02*
X5840110Y-15879008D01*
X5840110Y-15879008D02*
X5830586Y-15869484D01*
X5830586Y-15869484D02*
X5830586Y-15888531D01*
X5954396Y-16069484D02*
X5935348Y-16059960D01*
X5935348Y-16059960D02*
X5925824Y-16040912D01*
X5925824Y-16040912D02*
X5925824Y-15869484D01*
X6059158Y-16069484D02*
X6040110Y-16059960D01*
X6040110Y-16059960D02*
X6030586Y-16040912D01*
X6030586Y-16040912D02*
X6030586Y-15869484D01*
X6287729Y-16069484D02*
X6287729Y-15869484D01*
X6287729Y-15869484D02*
X6354396Y-16012341D01*
X6354396Y-16012341D02*
X6421062Y-15869484D01*
X6421062Y-15869484D02*
X6421062Y-16069484D01*
X6602015Y-16069484D02*
X6602015Y-15964722D01*
X6602015Y-15964722D02*
X6592491Y-15945674D01*
X6592491Y-15945674D02*
X6573443Y-15936150D01*
X6573443Y-15936150D02*
X6535348Y-15936150D01*
X6535348Y-15936150D02*
X6516301Y-15945674D01*
X6602015Y-16059960D02*
X6582967Y-16069484D01*
X6582967Y-16069484D02*
X6535348Y-16069484D01*
X6535348Y-16069484D02*
X6516301Y-16059960D01*
X6516301Y-16059960D02*
X6506777Y-16040912D01*
X6506777Y-16040912D02*
X6506777Y-16021865D01*
X6506777Y-16021865D02*
X6516301Y-16002817D01*
X6516301Y-16002817D02*
X6535348Y-15993293D01*
X6535348Y-15993293D02*
X6582967Y-15993293D01*
X6582967Y-15993293D02*
X6602015Y-15983769D01*
X6697253Y-15936150D02*
X6697253Y-16136150D01*
X6697253Y-15945674D02*
X6716301Y-15936150D01*
X6716301Y-15936150D02*
X6754396Y-15936150D01*
X6754396Y-15936150D02*
X6773443Y-15945674D01*
X6773443Y-15945674D02*
X6782967Y-15955198D01*
X6782967Y-15955198D02*
X6792491Y-15974246D01*
X6792491Y-15974246D02*
X6792491Y-16031388D01*
X6792491Y-16031388D02*
X6782967Y-16050436D01*
X6782967Y-16050436D02*
X6773443Y-16059960D01*
X6773443Y-16059960D02*
X6754396Y-16069484D01*
X6754396Y-16069484D02*
X6716301Y-16069484D01*
X6716301Y-16069484D02*
X6697253Y-16059960D01*
X6878205Y-16050436D02*
X6887729Y-16059960D01*
X6887729Y-16059960D02*
X6878205Y-16069484D01*
X6878205Y-16069484D02*
X6868682Y-16059960D01*
X6868682Y-16059960D02*
X6878205Y-16050436D01*
X6878205Y-16050436D02*
X6878205Y-16069484D01*
X6878205Y-15945674D02*
X6887729Y-15955198D01*
X6887729Y-15955198D02*
X6878205Y-15964722D01*
X6878205Y-15964722D02*
X6868682Y-15955198D01*
X6868682Y-15955198D02*
X6878205Y-15945674D01*
X6878205Y-15945674D02*
X6878205Y-15964722D01*
D12*
X5076000Y-16313000D02*
X5246000Y-16483000D01*
X5246000Y-16313000D02*
X5076000Y-16483000D01*
D11*
X5611539Y-16489484D02*
X5497253Y-16489484D01*
X5554396Y-16489484D02*
X5554396Y-16289484D01*
X5554396Y-16289484D02*
X5535348Y-16318055D01*
X5535348Y-16318055D02*
X5516301Y-16337103D01*
X5516301Y-16337103D02*
X5497253Y-16346627D01*
X5697253Y-16470436D02*
X5706777Y-16479960D01*
X5706777Y-16479960D02*
X5697253Y-16489484D01*
X5697253Y-16489484D02*
X5687729Y-16479960D01*
X5687729Y-16479960D02*
X5697253Y-16470436D01*
X5697253Y-16470436D02*
X5697253Y-16489484D01*
X5773443Y-16289484D02*
X5906777Y-16289484D01*
X5906777Y-16289484D02*
X5821062Y-16489484D01*
X6021062Y-16289484D02*
X6040110Y-16289484D01*
X6040110Y-16289484D02*
X6059158Y-16299008D01*
X6059158Y-16299008D02*
X6068682Y-16308531D01*
X6068682Y-16308531D02*
X6078205Y-16327579D01*
X6078205Y-16327579D02*
X6087729Y-16365674D01*
X6087729Y-16365674D02*
X6087729Y-16413293D01*
X6087729Y-16413293D02*
X6078205Y-16451388D01*
X6078205Y-16451388D02*
X6068682Y-16470436D01*
X6068682Y-16470436D02*
X6059158Y-16479960D01*
X6059158Y-16479960D02*
X6040110Y-16489484D01*
X6040110Y-16489484D02*
X6021062Y-16489484D01*
X6021062Y-16489484D02*
X6002015Y-16479960D01*
X6002015Y-16479960D02*
X5992491Y-16470436D01*
X5992491Y-16470436D02*
X5982967Y-16451388D01*
X5982967Y-16451388D02*
X5973443Y-16413293D01*
X5973443Y-16413293D02*
X5973443Y-16365674D01*
X5973443Y-16365674D02*
X5982967Y-16327579D01*
X5982967Y-16327579D02*
X5992491Y-16308531D01*
X5992491Y-16308531D02*
X6002015Y-16299008D01*
X6002015Y-16299008D02*
X6021062Y-16289484D01*
X6211539Y-16289484D02*
X6230586Y-16289484D01*
X6230586Y-16289484D02*
X6249634Y-16299008D01*
X6249634Y-16299008D02*
X6259158Y-16308531D01*
X6259158Y-16308531D02*
X6268682Y-16327579D01*
X6268682Y-16327579D02*
X6278205Y-16365674D01*
X6278205Y-16365674D02*
X6278205Y-16413293D01*
X6278205Y-16413293D02*
X6268682Y-16451388D01*
X6268682Y-16451388D02*
X6259158Y-16470436D01*
X6259158Y-16470436D02*
X6249634Y-16479960D01*
X6249634Y-16479960D02*
X6230586Y-16489484D01*
X6230586Y-16489484D02*
X6211539Y-16489484D01*
X6211539Y-16489484D02*
X6192491Y-16479960D01*
X6192491Y-16479960D02*
X6182967Y-16470436D01*
X6182967Y-16470436D02*
X6173443Y-16451388D01*
X6173443Y-16451388D02*
X6163920Y-16413293D01*
X6163920Y-16413293D02*
X6163920Y-16365674D01*
X6163920Y-16365674D02*
X6173443Y-16327579D01*
X6173443Y-16327579D02*
X6182967Y-16308531D01*
X6182967Y-16308531D02*
X6192491Y-16299008D01*
X6192491Y-16299008D02*
X6211539Y-16289484D01*
X6363920Y-16489484D02*
X6363920Y-16356150D01*
X6363920Y-16375198D02*
X6373443Y-16365674D01*
X6373443Y-16365674D02*
X6392491Y-16356150D01*
X6392491Y-16356150D02*
X6421063Y-16356150D01*
X6421063Y-16356150D02*
X6440110Y-16365674D01*
X6440110Y-16365674D02*
X6449634Y-16384722D01*
X6449634Y-16384722D02*
X6449634Y-16489484D01*
X6449634Y-16384722D02*
X6459158Y-16365674D01*
X6459158Y-16365674D02*
X6478205Y-16356150D01*
X6478205Y-16356150D02*
X6506777Y-16356150D01*
X6506777Y-16356150D02*
X6525824Y-16365674D01*
X6525824Y-16365674D02*
X6535348Y-16384722D01*
X6535348Y-16384722D02*
X6535348Y-16489484D01*
X6630586Y-16489484D02*
X6630586Y-16356150D01*
X6630586Y-16375198D02*
X6640110Y-16365674D01*
X6640110Y-16365674D02*
X6659158Y-16356150D01*
X6659158Y-16356150D02*
X6687729Y-16356150D01*
X6687729Y-16356150D02*
X6706777Y-16365674D01*
X6706777Y-16365674D02*
X6716301Y-16384722D01*
X6716301Y-16384722D02*
X6716301Y-16489484D01*
X6716301Y-16384722D02*
X6725824Y-16365674D01*
X6725824Y-16365674D02*
X6744872Y-16356150D01*
X6744872Y-16356150D02*
X6773443Y-16356150D01*
X6773443Y-16356150D02*
X6792491Y-16365674D01*
X6792491Y-16365674D02*
X6802015Y-16384722D01*
X6802015Y-16384722D02*
X6802015Y-16489484D01*
X7192491Y-16279960D02*
X7021063Y-16537103D01*
X7449634Y-16289484D02*
X7468682Y-16289484D01*
X7468682Y-16289484D02*
X7487729Y-16299008D01*
X7487729Y-16299008D02*
X7497253Y-16308531D01*
X7497253Y-16308531D02*
X7506777Y-16327579D01*
X7506777Y-16327579D02*
X7516301Y-16365674D01*
X7516301Y-16365674D02*
X7516301Y-16413293D01*
X7516301Y-16413293D02*
X7506777Y-16451388D01*
X7506777Y-16451388D02*
X7497253Y-16470436D01*
X7497253Y-16470436D02*
X7487729Y-16479960D01*
X7487729Y-16479960D02*
X7468682Y-16489484D01*
X7468682Y-16489484D02*
X7449634Y-16489484D01*
X7449634Y-16489484D02*
X7430586Y-16479960D01*
X7430586Y-16479960D02*
X7421063Y-16470436D01*
X7421063Y-16470436D02*
X7411539Y-16451388D01*
X7411539Y-16451388D02*
X7402015Y-16413293D01*
X7402015Y-16413293D02*
X7402015Y-16365674D01*
X7402015Y-16365674D02*
X7411539Y-16327579D01*
X7411539Y-16327579D02*
X7421063Y-16308531D01*
X7421063Y-16308531D02*
X7430586Y-16299008D01*
X7430586Y-16299008D02*
X7449634Y-16289484D01*
X7602015Y-16470436D02*
X7611539Y-16479960D01*
X7611539Y-16479960D02*
X7602015Y-16489484D01*
X7602015Y-16489484D02*
X7592491Y-16479960D01*
X7592491Y-16479960D02*
X7602015Y-16470436D01*
X7602015Y-16470436D02*
X7602015Y-16489484D01*
X7735348Y-16289484D02*
X7754396Y-16289484D01*
X7754396Y-16289484D02*
X7773444Y-16299008D01*
X7773444Y-16299008D02*
X7782967Y-16308531D01*
X7782967Y-16308531D02*
X7792491Y-16327579D01*
X7792491Y-16327579D02*
X7802015Y-16365674D01*
X7802015Y-16365674D02*
X7802015Y-16413293D01*
X7802015Y-16413293D02*
X7792491Y-16451388D01*
X7792491Y-16451388D02*
X7782967Y-16470436D01*
X7782967Y-16470436D02*
X7773444Y-16479960D01*
X7773444Y-16479960D02*
X7754396Y-16489484D01*
X7754396Y-16489484D02*
X7735348Y-16489484D01*
X7735348Y-16489484D02*
X7716301Y-16479960D01*
X7716301Y-16479960D02*
X7706777Y-16470436D01*
X7706777Y-16470436D02*
X7697253Y-16451388D01*
X7697253Y-16451388D02*
X7687729Y-16413293D01*
X7687729Y-16413293D02*
X7687729Y-16365674D01*
X7687729Y-16365674D02*
X7697253Y-16327579D01*
X7697253Y-16327579D02*
X7706777Y-16308531D01*
X7706777Y-16308531D02*
X7716301Y-16299008D01*
X7716301Y-16299008D02*
X7735348Y-16289484D01*
X7973444Y-16289484D02*
X7935348Y-16289484D01*
X7935348Y-16289484D02*
X7916301Y-16299008D01*
X7916301Y-16299008D02*
X7906777Y-16308531D01*
X7906777Y-16308531D02*
X7887729Y-16337103D01*
X7887729Y-16337103D02*
X7878206Y-16375198D01*
X7878206Y-16375198D02*
X7878206Y-16451388D01*
X7878206Y-16451388D02*
X7887729Y-16470436D01*
X7887729Y-16470436D02*
X7897253Y-16479960D01*
X7897253Y-16479960D02*
X7916301Y-16489484D01*
X7916301Y-16489484D02*
X7954396Y-16489484D01*
X7954396Y-16489484D02*
X7973444Y-16479960D01*
X7973444Y-16479960D02*
X7982967Y-16470436D01*
X7982967Y-16470436D02*
X7992491Y-16451388D01*
X7992491Y-16451388D02*
X7992491Y-16403769D01*
X7992491Y-16403769D02*
X7982967Y-16384722D01*
X7982967Y-16384722D02*
X7973444Y-16375198D01*
X7973444Y-16375198D02*
X7954396Y-16365674D01*
X7954396Y-16365674D02*
X7916301Y-16365674D01*
X7916301Y-16365674D02*
X7897253Y-16375198D01*
X7897253Y-16375198D02*
X7887729Y-16384722D01*
X7887729Y-16384722D02*
X7878206Y-16403769D01*
X8163920Y-16289484D02*
X8125825Y-16289484D01*
X8125825Y-16289484D02*
X8106777Y-16299008D01*
X8106777Y-16299008D02*
X8097253Y-16308531D01*
X8097253Y-16308531D02*
X8078206Y-16337103D01*
X8078206Y-16337103D02*
X8068682Y-16375198D01*
X8068682Y-16375198D02*
X8068682Y-16451388D01*
X8068682Y-16451388D02*
X8078206Y-16470436D01*
X8078206Y-16470436D02*
X8087729Y-16479960D01*
X8087729Y-16479960D02*
X8106777Y-16489484D01*
X8106777Y-16489484D02*
X8144872Y-16489484D01*
X8144872Y-16489484D02*
X8163920Y-16479960D01*
X8163920Y-16479960D02*
X8173444Y-16470436D01*
X8173444Y-16470436D02*
X8182967Y-16451388D01*
X8182967Y-16451388D02*
X8182967Y-16403769D01*
X8182967Y-16403769D02*
X8173444Y-16384722D01*
X8173444Y-16384722D02*
X8163920Y-16375198D01*
X8163920Y-16375198D02*
X8144872Y-16365674D01*
X8144872Y-16365674D02*
X8106777Y-16365674D01*
X8106777Y-16365674D02*
X8087729Y-16375198D01*
X8087729Y-16375198D02*
X8078206Y-16384722D01*
X8078206Y-16384722D02*
X8068682Y-16403769D01*
X8278206Y-16489484D02*
X8316301Y-16489484D01*
X8316301Y-16489484D02*
X8335348Y-16479960D01*
X8335348Y-16479960D02*
X8344872Y-16470436D01*
X8344872Y-16470436D02*
X8363920Y-16441865D01*
X8363920Y-16441865D02*
X8373444Y-16403769D01*
X8373444Y-16403769D02*
X8373444Y-16327579D01*
X8373444Y-16327579D02*
X8363920Y-16308531D01*
X8363920Y-16308531D02*
X8354396Y-16299008D01*
X8354396Y-16299008D02*
X8335348Y-16289484D01*
X8335348Y-16289484D02*
X8297253Y-16289484D01*
X8297253Y-16289484D02*
X8278206Y-16299008D01*
X8278206Y-16299008D02*
X8268682Y-16308531D01*
X8268682Y-16308531D02*
X8259158Y-16327579D01*
X8259158Y-16327579D02*
X8259158Y-16375198D01*
X8259158Y-16375198D02*
X8268682Y-16394246D01*
X8268682Y-16394246D02*
X8278206Y-16403769D01*
X8278206Y-16403769D02*
X8297253Y-16413293D01*
X8297253Y-16413293D02*
X8335348Y-16413293D01*
X8335348Y-16413293D02*
X8354396Y-16403769D01*
X8354396Y-16403769D02*
X8363920Y-16394246D01*
X8363920Y-16394246D02*
X8373444Y-16375198D01*
X8449634Y-16289484D02*
X8449634Y-16327579D01*
X8525825Y-16289484D02*
X8525825Y-16327579D01*
X8821063Y-16565674D02*
X8811539Y-16556150D01*
X8811539Y-16556150D02*
X8792491Y-16527579D01*
X8792491Y-16527579D02*
X8782968Y-16508531D01*
X8782968Y-16508531D02*
X8773444Y-16479960D01*
X8773444Y-16479960D02*
X8763920Y-16432341D01*
X8763920Y-16432341D02*
X8763920Y-16394246D01*
X8763920Y-16394246D02*
X8773444Y-16346627D01*
X8773444Y-16346627D02*
X8782968Y-16318055D01*
X8782968Y-16318055D02*
X8792491Y-16299008D01*
X8792491Y-16299008D02*
X8811539Y-16270436D01*
X8811539Y-16270436D02*
X8821063Y-16260912D01*
X9002015Y-16489484D02*
X8887730Y-16489484D01*
X8944872Y-16489484D02*
X8944872Y-16289484D01*
X8944872Y-16289484D02*
X8925825Y-16318055D01*
X8925825Y-16318055D02*
X8906777Y-16337103D01*
X8906777Y-16337103D02*
X8887730Y-16346627D01*
X9173444Y-16356150D02*
X9173444Y-16489484D01*
X9125825Y-16279960D02*
X9078206Y-16422817D01*
X9078206Y-16422817D02*
X9202015Y-16422817D01*
X9268682Y-16308531D02*
X9278206Y-16299008D01*
X9278206Y-16299008D02*
X9297253Y-16289484D01*
X9297253Y-16289484D02*
X9344872Y-16289484D01*
X9344872Y-16289484D02*
X9363920Y-16299008D01*
X9363920Y-16299008D02*
X9373444Y-16308531D01*
X9373444Y-16308531D02*
X9382968Y-16327579D01*
X9382968Y-16327579D02*
X9382968Y-16346627D01*
X9382968Y-16346627D02*
X9373444Y-16375198D01*
X9373444Y-16375198D02*
X9259158Y-16489484D01*
X9259158Y-16489484D02*
X9382968Y-16489484D01*
X9621063Y-16489484D02*
X9621063Y-16289484D01*
X9706777Y-16489484D02*
X9706777Y-16384722D01*
X9706777Y-16384722D02*
X9697253Y-16365674D01*
X9697253Y-16365674D02*
X9678206Y-16356150D01*
X9678206Y-16356150D02*
X9649634Y-16356150D01*
X9649634Y-16356150D02*
X9630587Y-16365674D01*
X9630587Y-16365674D02*
X9621063Y-16375198D01*
X9830587Y-16489484D02*
X9811539Y-16479960D01*
X9811539Y-16479960D02*
X9802015Y-16470436D01*
X9802015Y-16470436D02*
X9792492Y-16451388D01*
X9792492Y-16451388D02*
X9792492Y-16394246D01*
X9792492Y-16394246D02*
X9802015Y-16375198D01*
X9802015Y-16375198D02*
X9811539Y-16365674D01*
X9811539Y-16365674D02*
X9830587Y-16356150D01*
X9830587Y-16356150D02*
X9859158Y-16356150D01*
X9859158Y-16356150D02*
X9878206Y-16365674D01*
X9878206Y-16365674D02*
X9887730Y-16375198D01*
X9887730Y-16375198D02*
X9897253Y-16394246D01*
X9897253Y-16394246D02*
X9897253Y-16451388D01*
X9897253Y-16451388D02*
X9887730Y-16470436D01*
X9887730Y-16470436D02*
X9878206Y-16479960D01*
X9878206Y-16479960D02*
X9859158Y-16489484D01*
X9859158Y-16489484D02*
X9830587Y-16489484D01*
X10011539Y-16489484D02*
X9992492Y-16479960D01*
X9992492Y-16479960D02*
X9982968Y-16460912D01*
X9982968Y-16460912D02*
X9982968Y-16289484D01*
X10163920Y-16479960D02*
X10144873Y-16489484D01*
X10144873Y-16489484D02*
X10106777Y-16489484D01*
X10106777Y-16489484D02*
X10087730Y-16479960D01*
X10087730Y-16479960D02*
X10078206Y-16460912D01*
X10078206Y-16460912D02*
X10078206Y-16384722D01*
X10078206Y-16384722D02*
X10087730Y-16365674D01*
X10087730Y-16365674D02*
X10106777Y-16356150D01*
X10106777Y-16356150D02*
X10144873Y-16356150D01*
X10144873Y-16356150D02*
X10163920Y-16365674D01*
X10163920Y-16365674D02*
X10173444Y-16384722D01*
X10173444Y-16384722D02*
X10173444Y-16403769D01*
X10173444Y-16403769D02*
X10078206Y-16422817D01*
X10249634Y-16479960D02*
X10268682Y-16489484D01*
X10268682Y-16489484D02*
X10306777Y-16489484D01*
X10306777Y-16489484D02*
X10325825Y-16479960D01*
X10325825Y-16479960D02*
X10335349Y-16460912D01*
X10335349Y-16460912D02*
X10335349Y-16451388D01*
X10335349Y-16451388D02*
X10325825Y-16432341D01*
X10325825Y-16432341D02*
X10306777Y-16422817D01*
X10306777Y-16422817D02*
X10278206Y-16422817D01*
X10278206Y-16422817D02*
X10259158Y-16413293D01*
X10259158Y-16413293D02*
X10249634Y-16394246D01*
X10249634Y-16394246D02*
X10249634Y-16384722D01*
X10249634Y-16384722D02*
X10259158Y-16365674D01*
X10259158Y-16365674D02*
X10278206Y-16356150D01*
X10278206Y-16356150D02*
X10306777Y-16356150D01*
X10306777Y-16356150D02*
X10325825Y-16365674D01*
X10402015Y-16565674D02*
X10411539Y-16556150D01*
X10411539Y-16556150D02*
X10430587Y-16527579D01*
X10430587Y-16527579D02*
X10440111Y-16508531D01*
X10440111Y-16508531D02*
X10449634Y-16479960D01*
X10449634Y-16479960D02*
X10459158Y-16432341D01*
X10459158Y-16432341D02*
X10459158Y-16394246D01*
X10459158Y-16394246D02*
X10449634Y-16346627D01*
X10449634Y-16346627D02*
X10440111Y-16318055D01*
X10440111Y-16318055D02*
X10430587Y-16299008D01*
X10430587Y-16299008D02*
X10411539Y-16270436D01*
X10411539Y-16270436D02*
X10402015Y-16260912D01*
X10763920Y-16565674D02*
X10754396Y-16556150D01*
X10754396Y-16556150D02*
X10735349Y-16527579D01*
X10735349Y-16527579D02*
X10725825Y-16508531D01*
X10725825Y-16508531D02*
X10716301Y-16479960D01*
X10716301Y-16479960D02*
X10706777Y-16432341D01*
X10706777Y-16432341D02*
X10706777Y-16394246D01*
X10706777Y-16394246D02*
X10716301Y-16346627D01*
X10716301Y-16346627D02*
X10725825Y-16318055D01*
X10725825Y-16318055D02*
X10735349Y-16299008D01*
X10735349Y-16299008D02*
X10754396Y-16270436D01*
X10754396Y-16270436D02*
X10763920Y-16260912D01*
X10840111Y-16356150D02*
X10840111Y-16489484D01*
X10840111Y-16375198D02*
X10849634Y-16365674D01*
X10849634Y-16365674D02*
X10868682Y-16356150D01*
X10868682Y-16356150D02*
X10897254Y-16356150D01*
X10897254Y-16356150D02*
X10916301Y-16365674D01*
X10916301Y-16365674D02*
X10925825Y-16384722D01*
X10925825Y-16384722D02*
X10925825Y-16489484D01*
X11049634Y-16489484D02*
X11030587Y-16479960D01*
X11030587Y-16479960D02*
X11021063Y-16470436D01*
X11021063Y-16470436D02*
X11011539Y-16451388D01*
X11011539Y-16451388D02*
X11011539Y-16394246D01*
X11011539Y-16394246D02*
X11021063Y-16375198D01*
X11021063Y-16375198D02*
X11030587Y-16365674D01*
X11030587Y-16365674D02*
X11049634Y-16356150D01*
X11049634Y-16356150D02*
X11078206Y-16356150D01*
X11078206Y-16356150D02*
X11097254Y-16365674D01*
X11097254Y-16365674D02*
X11106777Y-16375198D01*
X11106777Y-16375198D02*
X11116301Y-16394246D01*
X11116301Y-16394246D02*
X11116301Y-16451388D01*
X11116301Y-16451388D02*
X11106777Y-16470436D01*
X11106777Y-16470436D02*
X11097254Y-16479960D01*
X11097254Y-16479960D02*
X11078206Y-16489484D01*
X11078206Y-16489484D02*
X11049634Y-16489484D01*
X11173444Y-16356150D02*
X11249634Y-16356150D01*
X11202015Y-16289484D02*
X11202015Y-16460912D01*
X11202015Y-16460912D02*
X11211539Y-16479960D01*
X11211539Y-16479960D02*
X11230587Y-16489484D01*
X11230587Y-16489484D02*
X11249634Y-16489484D01*
X11468682Y-16356150D02*
X11468682Y-16556150D01*
X11468682Y-16365674D02*
X11487730Y-16356150D01*
X11487730Y-16356150D02*
X11525825Y-16356150D01*
X11525825Y-16356150D02*
X11544873Y-16365674D01*
X11544873Y-16365674D02*
X11554396Y-16375198D01*
X11554396Y-16375198D02*
X11563920Y-16394246D01*
X11563920Y-16394246D02*
X11563920Y-16451388D01*
X11563920Y-16451388D02*
X11554396Y-16470436D01*
X11554396Y-16470436D02*
X11544873Y-16479960D01*
X11544873Y-16479960D02*
X11525825Y-16489484D01*
X11525825Y-16489484D02*
X11487730Y-16489484D01*
X11487730Y-16489484D02*
X11468682Y-16479960D01*
X11678206Y-16489484D02*
X11659158Y-16479960D01*
X11659158Y-16479960D02*
X11649634Y-16460912D01*
X11649634Y-16460912D02*
X11649634Y-16289484D01*
X11840111Y-16489484D02*
X11840111Y-16384722D01*
X11840111Y-16384722D02*
X11830587Y-16365674D01*
X11830587Y-16365674D02*
X11811539Y-16356150D01*
X11811539Y-16356150D02*
X11773444Y-16356150D01*
X11773444Y-16356150D02*
X11754396Y-16365674D01*
X11840111Y-16479960D02*
X11821063Y-16489484D01*
X11821063Y-16489484D02*
X11773444Y-16489484D01*
X11773444Y-16489484D02*
X11754396Y-16479960D01*
X11754396Y-16479960D02*
X11744873Y-16460912D01*
X11744873Y-16460912D02*
X11744873Y-16441865D01*
X11744873Y-16441865D02*
X11754396Y-16422817D01*
X11754396Y-16422817D02*
X11773444Y-16413293D01*
X11773444Y-16413293D02*
X11821063Y-16413293D01*
X11821063Y-16413293D02*
X11840111Y-16403769D01*
X11906777Y-16356150D02*
X11982968Y-16356150D01*
X11935349Y-16289484D02*
X11935349Y-16460912D01*
X11935349Y-16460912D02*
X11944873Y-16479960D01*
X11944873Y-16479960D02*
X11963920Y-16489484D01*
X11963920Y-16489484D02*
X11982968Y-16489484D01*
X12125825Y-16479960D02*
X12106777Y-16489484D01*
X12106777Y-16489484D02*
X12068682Y-16489484D01*
X12068682Y-16489484D02*
X12049634Y-16479960D01*
X12049634Y-16479960D02*
X12040111Y-16460912D01*
X12040111Y-16460912D02*
X12040111Y-16384722D01*
X12040111Y-16384722D02*
X12049634Y-16365674D01*
X12049634Y-16365674D02*
X12068682Y-16356150D01*
X12068682Y-16356150D02*
X12106777Y-16356150D01*
X12106777Y-16356150D02*
X12125825Y-16365674D01*
X12125825Y-16365674D02*
X12135349Y-16384722D01*
X12135349Y-16384722D02*
X12135349Y-16403769D01*
X12135349Y-16403769D02*
X12040111Y-16422817D01*
X12306777Y-16489484D02*
X12306777Y-16289484D01*
X12306777Y-16479960D02*
X12287730Y-16489484D01*
X12287730Y-16489484D02*
X12249634Y-16489484D01*
X12249634Y-16489484D02*
X12230587Y-16479960D01*
X12230587Y-16479960D02*
X12221063Y-16470436D01*
X12221063Y-16470436D02*
X12211539Y-16451388D01*
X12211539Y-16451388D02*
X12211539Y-16394246D01*
X12211539Y-16394246D02*
X12221063Y-16375198D01*
X12221063Y-16375198D02*
X12230587Y-16365674D01*
X12230587Y-16365674D02*
X12249634Y-16356150D01*
X12249634Y-16356150D02*
X12287730Y-16356150D01*
X12287730Y-16356150D02*
X12306777Y-16365674D01*
X12382968Y-16565674D02*
X12392492Y-16556150D01*
X12392492Y-16556150D02*
X12411539Y-16527579D01*
X12411539Y-16527579D02*
X12421063Y-16508531D01*
X12421063Y-16508531D02*
X12430587Y-16479960D01*
X12430587Y-16479960D02*
X12440111Y-16432341D01*
X12440111Y-16432341D02*
X12440111Y-16394246D01*
X12440111Y-16394246D02*
X12430587Y-16346627D01*
X12430587Y-16346627D02*
X12421063Y-16318055D01*
X12421063Y-16318055D02*
X12411539Y-16299008D01*
X12411539Y-16299008D02*
X12392492Y-16270436D01*
X12392492Y-16270436D02*
X12382968Y-16260912D01*
X5246000Y-16688000D02*
G75*
G02*
X5046000Y-16688000I-100000J0D01*
G01*
X5046000Y-16688000D02*
G75*
G02*
X5246000Y-16688000I100000J0D01*
G01*
X5487729Y-16579484D02*
X5611539Y-16579484D01*
X5611539Y-16579484D02*
X5544872Y-16655674D01*
X5544872Y-16655674D02*
X5573444Y-16655674D01*
X5573444Y-16655674D02*
X5592491Y-16665198D01*
X5592491Y-16665198D02*
X5602015Y-16674722D01*
X5602015Y-16674722D02*
X5611539Y-16693769D01*
X5611539Y-16693769D02*
X5611539Y-16741388D01*
X5611539Y-16741388D02*
X5602015Y-16760436D01*
X5602015Y-16760436D02*
X5592491Y-16769960D01*
X5592491Y-16769960D02*
X5573444Y-16779484D01*
X5573444Y-16779484D02*
X5516301Y-16779484D01*
X5516301Y-16779484D02*
X5497253Y-16769960D01*
X5497253Y-16769960D02*
X5487729Y-16760436D01*
X5697253Y-16760436D02*
X5706777Y-16769960D01*
X5706777Y-16769960D02*
X5697253Y-16779484D01*
X5697253Y-16779484D02*
X5687729Y-16769960D01*
X5687729Y-16769960D02*
X5697253Y-16760436D01*
X5697253Y-16760436D02*
X5697253Y-16779484D01*
X5830586Y-16579484D02*
X5849634Y-16579484D01*
X5849634Y-16579484D02*
X5868682Y-16589008D01*
X5868682Y-16589008D02*
X5878205Y-16598531D01*
X5878205Y-16598531D02*
X5887729Y-16617579D01*
X5887729Y-16617579D02*
X5897253Y-16655674D01*
X5897253Y-16655674D02*
X5897253Y-16703293D01*
X5897253Y-16703293D02*
X5887729Y-16741388D01*
X5887729Y-16741388D02*
X5878205Y-16760436D01*
X5878205Y-16760436D02*
X5868682Y-16769960D01*
X5868682Y-16769960D02*
X5849634Y-16779484D01*
X5849634Y-16779484D02*
X5830586Y-16779484D01*
X5830586Y-16779484D02*
X5811539Y-16769960D01*
X5811539Y-16769960D02*
X5802015Y-16760436D01*
X5802015Y-16760436D02*
X5792491Y-16741388D01*
X5792491Y-16741388D02*
X5782967Y-16703293D01*
X5782967Y-16703293D02*
X5782967Y-16655674D01*
X5782967Y-16655674D02*
X5792491Y-16617579D01*
X5792491Y-16617579D02*
X5802015Y-16598531D01*
X5802015Y-16598531D02*
X5811539Y-16589008D01*
X5811539Y-16589008D02*
X5830586Y-16579484D01*
X6021062Y-16579484D02*
X6040110Y-16579484D01*
X6040110Y-16579484D02*
X6059158Y-16589008D01*
X6059158Y-16589008D02*
X6068682Y-16598531D01*
X6068682Y-16598531D02*
X6078205Y-16617579D01*
X6078205Y-16617579D02*
X6087729Y-16655674D01*
X6087729Y-16655674D02*
X6087729Y-16703293D01*
X6087729Y-16703293D02*
X6078205Y-16741388D01*
X6078205Y-16741388D02*
X6068682Y-16760436D01*
X6068682Y-16760436D02*
X6059158Y-16769960D01*
X6059158Y-16769960D02*
X6040110Y-16779484D01*
X6040110Y-16779484D02*
X6021062Y-16779484D01*
X6021062Y-16779484D02*
X6002015Y-16769960D01*
X6002015Y-16769960D02*
X5992491Y-16760436D01*
X5992491Y-16760436D02*
X5982967Y-16741388D01*
X5982967Y-16741388D02*
X5973443Y-16703293D01*
X5973443Y-16703293D02*
X5973443Y-16655674D01*
X5973443Y-16655674D02*
X5982967Y-16617579D01*
X5982967Y-16617579D02*
X5992491Y-16598531D01*
X5992491Y-16598531D02*
X6002015Y-16589008D01*
X6002015Y-16589008D02*
X6021062Y-16579484D01*
X6211539Y-16579484D02*
X6230586Y-16579484D01*
X6230586Y-16579484D02*
X6249634Y-16589008D01*
X6249634Y-16589008D02*
X6259158Y-16598531D01*
X6259158Y-16598531D02*
X6268682Y-16617579D01*
X6268682Y-16617579D02*
X6278205Y-16655674D01*
X6278205Y-16655674D02*
X6278205Y-16703293D01*
X6278205Y-16703293D02*
X6268682Y-16741388D01*
X6268682Y-16741388D02*
X6259158Y-16760436D01*
X6259158Y-16760436D02*
X6249634Y-16769960D01*
X6249634Y-16769960D02*
X6230586Y-16779484D01*
X6230586Y-16779484D02*
X6211539Y-16779484D01*
X6211539Y-16779484D02*
X6192491Y-16769960D01*
X6192491Y-16769960D02*
X6182967Y-16760436D01*
X6182967Y-16760436D02*
X6173443Y-16741388D01*
X6173443Y-16741388D02*
X6163920Y-16703293D01*
X6163920Y-16703293D02*
X6163920Y-16655674D01*
X6163920Y-16655674D02*
X6173443Y-16617579D01*
X6173443Y-16617579D02*
X6182967Y-16598531D01*
X6182967Y-16598531D02*
X6192491Y-16589008D01*
X6192491Y-16589008D02*
X6211539Y-16579484D01*
X6363920Y-16779484D02*
X6363920Y-16646150D01*
X6363920Y-16665198D02*
X6373443Y-16655674D01*
X6373443Y-16655674D02*
X6392491Y-16646150D01*
X6392491Y-16646150D02*
X6421063Y-16646150D01*
X6421063Y-16646150D02*
X6440110Y-16655674D01*
X6440110Y-16655674D02*
X6449634Y-16674722D01*
X6449634Y-16674722D02*
X6449634Y-16779484D01*
X6449634Y-16674722D02*
X6459158Y-16655674D01*
X6459158Y-16655674D02*
X6478205Y-16646150D01*
X6478205Y-16646150D02*
X6506777Y-16646150D01*
X6506777Y-16646150D02*
X6525824Y-16655674D01*
X6525824Y-16655674D02*
X6535348Y-16674722D01*
X6535348Y-16674722D02*
X6535348Y-16779484D01*
X6630586Y-16779484D02*
X6630586Y-16646150D01*
X6630586Y-16665198D02*
X6640110Y-16655674D01*
X6640110Y-16655674D02*
X6659158Y-16646150D01*
X6659158Y-16646150D02*
X6687729Y-16646150D01*
X6687729Y-16646150D02*
X6706777Y-16655674D01*
X6706777Y-16655674D02*
X6716301Y-16674722D01*
X6716301Y-16674722D02*
X6716301Y-16779484D01*
X6716301Y-16674722D02*
X6725824Y-16655674D01*
X6725824Y-16655674D02*
X6744872Y-16646150D01*
X6744872Y-16646150D02*
X6773443Y-16646150D01*
X6773443Y-16646150D02*
X6792491Y-16655674D01*
X6792491Y-16655674D02*
X6802015Y-16674722D01*
X6802015Y-16674722D02*
X6802015Y-16779484D01*
X7192491Y-16569960D02*
X7021063Y-16827103D01*
X7449634Y-16579484D02*
X7468682Y-16579484D01*
X7468682Y-16579484D02*
X7487729Y-16589008D01*
X7487729Y-16589008D02*
X7497253Y-16598531D01*
X7497253Y-16598531D02*
X7506777Y-16617579D01*
X7506777Y-16617579D02*
X7516301Y-16655674D01*
X7516301Y-16655674D02*
X7516301Y-16703293D01*
X7516301Y-16703293D02*
X7506777Y-16741388D01*
X7506777Y-16741388D02*
X7497253Y-16760436D01*
X7497253Y-16760436D02*
X7487729Y-16769960D01*
X7487729Y-16769960D02*
X7468682Y-16779484D01*
X7468682Y-16779484D02*
X7449634Y-16779484D01*
X7449634Y-16779484D02*
X7430586Y-16769960D01*
X7430586Y-16769960D02*
X7421063Y-16760436D01*
X7421063Y-16760436D02*
X7411539Y-16741388D01*
X7411539Y-16741388D02*
X7402015Y-16703293D01*
X7402015Y-16703293D02*
X7402015Y-16655674D01*
X7402015Y-16655674D02*
X7411539Y-16617579D01*
X7411539Y-16617579D02*
X7421063Y-16598531D01*
X7421063Y-16598531D02*
X7430586Y-16589008D01*
X7430586Y-16589008D02*
X7449634Y-16579484D01*
X7602015Y-16760436D02*
X7611539Y-16769960D01*
X7611539Y-16769960D02*
X7602015Y-16779484D01*
X7602015Y-16779484D02*
X7592491Y-16769960D01*
X7592491Y-16769960D02*
X7602015Y-16760436D01*
X7602015Y-16760436D02*
X7602015Y-16779484D01*
X7802015Y-16779484D02*
X7687729Y-16779484D01*
X7744872Y-16779484D02*
X7744872Y-16579484D01*
X7744872Y-16579484D02*
X7725825Y-16608055D01*
X7725825Y-16608055D02*
X7706777Y-16627103D01*
X7706777Y-16627103D02*
X7687729Y-16636627D01*
X7992491Y-16779484D02*
X7878206Y-16779484D01*
X7935348Y-16779484D02*
X7935348Y-16579484D01*
X7935348Y-16579484D02*
X7916301Y-16608055D01*
X7916301Y-16608055D02*
X7897253Y-16627103D01*
X7897253Y-16627103D02*
X7878206Y-16636627D01*
X8106777Y-16665198D02*
X8087729Y-16655674D01*
X8087729Y-16655674D02*
X8078206Y-16646150D01*
X8078206Y-16646150D02*
X8068682Y-16627103D01*
X8068682Y-16627103D02*
X8068682Y-16617579D01*
X8068682Y-16617579D02*
X8078206Y-16598531D01*
X8078206Y-16598531D02*
X8087729Y-16589008D01*
X8087729Y-16589008D02*
X8106777Y-16579484D01*
X8106777Y-16579484D02*
X8144872Y-16579484D01*
X8144872Y-16579484D02*
X8163920Y-16589008D01*
X8163920Y-16589008D02*
X8173444Y-16598531D01*
X8173444Y-16598531D02*
X8182967Y-16617579D01*
X8182967Y-16617579D02*
X8182967Y-16627103D01*
X8182967Y-16627103D02*
X8173444Y-16646150D01*
X8173444Y-16646150D02*
X8163920Y-16655674D01*
X8163920Y-16655674D02*
X8144872Y-16665198D01*
X8144872Y-16665198D02*
X8106777Y-16665198D01*
X8106777Y-16665198D02*
X8087729Y-16674722D01*
X8087729Y-16674722D02*
X8078206Y-16684246D01*
X8078206Y-16684246D02*
X8068682Y-16703293D01*
X8068682Y-16703293D02*
X8068682Y-16741388D01*
X8068682Y-16741388D02*
X8078206Y-16760436D01*
X8078206Y-16760436D02*
X8087729Y-16769960D01*
X8087729Y-16769960D02*
X8106777Y-16779484D01*
X8106777Y-16779484D02*
X8144872Y-16779484D01*
X8144872Y-16779484D02*
X8163920Y-16769960D01*
X8163920Y-16769960D02*
X8173444Y-16760436D01*
X8173444Y-16760436D02*
X8182967Y-16741388D01*
X8182967Y-16741388D02*
X8182967Y-16703293D01*
X8182967Y-16703293D02*
X8173444Y-16684246D01*
X8173444Y-16684246D02*
X8163920Y-16674722D01*
X8163920Y-16674722D02*
X8144872Y-16665198D01*
X8373444Y-16779484D02*
X8259158Y-16779484D01*
X8316301Y-16779484D02*
X8316301Y-16579484D01*
X8316301Y-16579484D02*
X8297253Y-16608055D01*
X8297253Y-16608055D02*
X8278206Y-16627103D01*
X8278206Y-16627103D02*
X8259158Y-16636627D01*
X8449634Y-16579484D02*
X8449634Y-16617579D01*
X8525825Y-16579484D02*
X8525825Y-16617579D01*
X8821063Y-16855674D02*
X8811539Y-16846150D01*
X8811539Y-16846150D02*
X8792491Y-16817579D01*
X8792491Y-16817579D02*
X8782968Y-16798531D01*
X8782968Y-16798531D02*
X8773444Y-16769960D01*
X8773444Y-16769960D02*
X8763920Y-16722341D01*
X8763920Y-16722341D02*
X8763920Y-16684246D01*
X8763920Y-16684246D02*
X8773444Y-16636627D01*
X8773444Y-16636627D02*
X8782968Y-16608055D01*
X8782968Y-16608055D02*
X8792491Y-16589008D01*
X8792491Y-16589008D02*
X8811539Y-16560436D01*
X8811539Y-16560436D02*
X8821063Y-16550912D01*
X9002015Y-16779484D02*
X8887730Y-16779484D01*
X8944872Y-16779484D02*
X8944872Y-16579484D01*
X8944872Y-16579484D02*
X8925825Y-16608055D01*
X8925825Y-16608055D02*
X8906777Y-16627103D01*
X8906777Y-16627103D02*
X8887730Y-16636627D01*
X9173444Y-16646150D02*
X9173444Y-16779484D01*
X9125825Y-16569960D02*
X9078206Y-16712817D01*
X9078206Y-16712817D02*
X9202015Y-16712817D01*
X9268682Y-16598531D02*
X9278206Y-16589008D01*
X9278206Y-16589008D02*
X9297253Y-16579484D01*
X9297253Y-16579484D02*
X9344872Y-16579484D01*
X9344872Y-16579484D02*
X9363920Y-16589008D01*
X9363920Y-16589008D02*
X9373444Y-16598531D01*
X9373444Y-16598531D02*
X9382968Y-16617579D01*
X9382968Y-16617579D02*
X9382968Y-16636627D01*
X9382968Y-16636627D02*
X9373444Y-16665198D01*
X9373444Y-16665198D02*
X9259158Y-16779484D01*
X9259158Y-16779484D02*
X9382968Y-16779484D01*
X9621063Y-16779484D02*
X9621063Y-16579484D01*
X9706777Y-16779484D02*
X9706777Y-16674722D01*
X9706777Y-16674722D02*
X9697253Y-16655674D01*
X9697253Y-16655674D02*
X9678206Y-16646150D01*
X9678206Y-16646150D02*
X9649634Y-16646150D01*
X9649634Y-16646150D02*
X9630587Y-16655674D01*
X9630587Y-16655674D02*
X9621063Y-16665198D01*
X9830587Y-16779484D02*
X9811539Y-16769960D01*
X9811539Y-16769960D02*
X9802015Y-16760436D01*
X9802015Y-16760436D02*
X9792492Y-16741388D01*
X9792492Y-16741388D02*
X9792492Y-16684246D01*
X9792492Y-16684246D02*
X9802015Y-16665198D01*
X9802015Y-16665198D02*
X9811539Y-16655674D01*
X9811539Y-16655674D02*
X9830587Y-16646150D01*
X9830587Y-16646150D02*
X9859158Y-16646150D01*
X9859158Y-16646150D02*
X9878206Y-16655674D01*
X9878206Y-16655674D02*
X9887730Y-16665198D01*
X9887730Y-16665198D02*
X9897253Y-16684246D01*
X9897253Y-16684246D02*
X9897253Y-16741388D01*
X9897253Y-16741388D02*
X9887730Y-16760436D01*
X9887730Y-16760436D02*
X9878206Y-16769960D01*
X9878206Y-16769960D02*
X9859158Y-16779484D01*
X9859158Y-16779484D02*
X9830587Y-16779484D01*
X10011539Y-16779484D02*
X9992492Y-16769960D01*
X9992492Y-16769960D02*
X9982968Y-16750912D01*
X9982968Y-16750912D02*
X9982968Y-16579484D01*
X10163920Y-16769960D02*
X10144873Y-16779484D01*
X10144873Y-16779484D02*
X10106777Y-16779484D01*
X10106777Y-16779484D02*
X10087730Y-16769960D01*
X10087730Y-16769960D02*
X10078206Y-16750912D01*
X10078206Y-16750912D02*
X10078206Y-16674722D01*
X10078206Y-16674722D02*
X10087730Y-16655674D01*
X10087730Y-16655674D02*
X10106777Y-16646150D01*
X10106777Y-16646150D02*
X10144873Y-16646150D01*
X10144873Y-16646150D02*
X10163920Y-16655674D01*
X10163920Y-16655674D02*
X10173444Y-16674722D01*
X10173444Y-16674722D02*
X10173444Y-16693769D01*
X10173444Y-16693769D02*
X10078206Y-16712817D01*
X10249634Y-16769960D02*
X10268682Y-16779484D01*
X10268682Y-16779484D02*
X10306777Y-16779484D01*
X10306777Y-16779484D02*
X10325825Y-16769960D01*
X10325825Y-16769960D02*
X10335349Y-16750912D01*
X10335349Y-16750912D02*
X10335349Y-16741388D01*
X10335349Y-16741388D02*
X10325825Y-16722341D01*
X10325825Y-16722341D02*
X10306777Y-16712817D01*
X10306777Y-16712817D02*
X10278206Y-16712817D01*
X10278206Y-16712817D02*
X10259158Y-16703293D01*
X10259158Y-16703293D02*
X10249634Y-16684246D01*
X10249634Y-16684246D02*
X10249634Y-16674722D01*
X10249634Y-16674722D02*
X10259158Y-16655674D01*
X10259158Y-16655674D02*
X10278206Y-16646150D01*
X10278206Y-16646150D02*
X10306777Y-16646150D01*
X10306777Y-16646150D02*
X10325825Y-16655674D01*
X10402015Y-16855674D02*
X10411539Y-16846150D01*
X10411539Y-16846150D02*
X10430587Y-16817579D01*
X10430587Y-16817579D02*
X10440111Y-16798531D01*
X10440111Y-16798531D02*
X10449634Y-16769960D01*
X10449634Y-16769960D02*
X10459158Y-16722341D01*
X10459158Y-16722341D02*
X10459158Y-16684246D01*
X10459158Y-16684246D02*
X10449634Y-16636627D01*
X10449634Y-16636627D02*
X10440111Y-16608055D01*
X10440111Y-16608055D02*
X10430587Y-16589008D01*
X10430587Y-16589008D02*
X10411539Y-16560436D01*
X10411539Y-16560436D02*
X10402015Y-16550912D01*
X10763920Y-16855674D02*
X10754396Y-16846150D01*
X10754396Y-16846150D02*
X10735349Y-16817579D01*
X10735349Y-16817579D02*
X10725825Y-16798531D01*
X10725825Y-16798531D02*
X10716301Y-16769960D01*
X10716301Y-16769960D02*
X10706777Y-16722341D01*
X10706777Y-16722341D02*
X10706777Y-16684246D01*
X10706777Y-16684246D02*
X10716301Y-16636627D01*
X10716301Y-16636627D02*
X10725825Y-16608055D01*
X10725825Y-16608055D02*
X10735349Y-16589008D01*
X10735349Y-16589008D02*
X10754396Y-16560436D01*
X10754396Y-16560436D02*
X10763920Y-16550912D01*
X10840111Y-16646150D02*
X10840111Y-16779484D01*
X10840111Y-16665198D02*
X10849634Y-16655674D01*
X10849634Y-16655674D02*
X10868682Y-16646150D01*
X10868682Y-16646150D02*
X10897254Y-16646150D01*
X10897254Y-16646150D02*
X10916301Y-16655674D01*
X10916301Y-16655674D02*
X10925825Y-16674722D01*
X10925825Y-16674722D02*
X10925825Y-16779484D01*
X11049634Y-16779484D02*
X11030587Y-16769960D01*
X11030587Y-16769960D02*
X11021063Y-16760436D01*
X11021063Y-16760436D02*
X11011539Y-16741388D01*
X11011539Y-16741388D02*
X11011539Y-16684246D01*
X11011539Y-16684246D02*
X11021063Y-16665198D01*
X11021063Y-16665198D02*
X11030587Y-16655674D01*
X11030587Y-16655674D02*
X11049634Y-16646150D01*
X11049634Y-16646150D02*
X11078206Y-16646150D01*
X11078206Y-16646150D02*
X11097254Y-16655674D01*
X11097254Y-16655674D02*
X11106777Y-16665198D01*
X11106777Y-16665198D02*
X11116301Y-16684246D01*
X11116301Y-16684246D02*
X11116301Y-16741388D01*
X11116301Y-16741388D02*
X11106777Y-16760436D01*
X11106777Y-16760436D02*
X11097254Y-16769960D01*
X11097254Y-16769960D02*
X11078206Y-16779484D01*
X11078206Y-16779484D02*
X11049634Y-16779484D01*
X11173444Y-16646150D02*
X11249634Y-16646150D01*
X11202015Y-16579484D02*
X11202015Y-16750912D01*
X11202015Y-16750912D02*
X11211539Y-16769960D01*
X11211539Y-16769960D02*
X11230587Y-16779484D01*
X11230587Y-16779484D02*
X11249634Y-16779484D01*
X11468682Y-16646150D02*
X11468682Y-16846150D01*
X11468682Y-16655674D02*
X11487730Y-16646150D01*
X11487730Y-16646150D02*
X11525825Y-16646150D01*
X11525825Y-16646150D02*
X11544873Y-16655674D01*
X11544873Y-16655674D02*
X11554396Y-16665198D01*
X11554396Y-16665198D02*
X11563920Y-16684246D01*
X11563920Y-16684246D02*
X11563920Y-16741388D01*
X11563920Y-16741388D02*
X11554396Y-16760436D01*
X11554396Y-16760436D02*
X11544873Y-16769960D01*
X11544873Y-16769960D02*
X11525825Y-16779484D01*
X11525825Y-16779484D02*
X11487730Y-16779484D01*
X11487730Y-16779484D02*
X11468682Y-16769960D01*
X11678206Y-16779484D02*
X11659158Y-16769960D01*
X11659158Y-16769960D02*
X11649634Y-16750912D01*
X11649634Y-16750912D02*
X11649634Y-16579484D01*
X11840111Y-16779484D02*
X11840111Y-16674722D01*
X11840111Y-16674722D02*
X11830587Y-16655674D01*
X11830587Y-16655674D02*
X11811539Y-16646150D01*
X11811539Y-16646150D02*
X11773444Y-16646150D01*
X11773444Y-16646150D02*
X11754396Y-16655674D01*
X11840111Y-16769960D02*
X11821063Y-16779484D01*
X11821063Y-16779484D02*
X11773444Y-16779484D01*
X11773444Y-16779484D02*
X11754396Y-16769960D01*
X11754396Y-16769960D02*
X11744873Y-16750912D01*
X11744873Y-16750912D02*
X11744873Y-16731865D01*
X11744873Y-16731865D02*
X11754396Y-16712817D01*
X11754396Y-16712817D02*
X11773444Y-16703293D01*
X11773444Y-16703293D02*
X11821063Y-16703293D01*
X11821063Y-16703293D02*
X11840111Y-16693769D01*
X11906777Y-16646150D02*
X11982968Y-16646150D01*
X11935349Y-16579484D02*
X11935349Y-16750912D01*
X11935349Y-16750912D02*
X11944873Y-16769960D01*
X11944873Y-16769960D02*
X11963920Y-16779484D01*
X11963920Y-16779484D02*
X11982968Y-16779484D01*
X12125825Y-16769960D02*
X12106777Y-16779484D01*
X12106777Y-16779484D02*
X12068682Y-16779484D01*
X12068682Y-16779484D02*
X12049634Y-16769960D01*
X12049634Y-16769960D02*
X12040111Y-16750912D01*
X12040111Y-16750912D02*
X12040111Y-16674722D01*
X12040111Y-16674722D02*
X12049634Y-16655674D01*
X12049634Y-16655674D02*
X12068682Y-16646150D01*
X12068682Y-16646150D02*
X12106777Y-16646150D01*
X12106777Y-16646150D02*
X12125825Y-16655674D01*
X12125825Y-16655674D02*
X12135349Y-16674722D01*
X12135349Y-16674722D02*
X12135349Y-16693769D01*
X12135349Y-16693769D02*
X12040111Y-16712817D01*
X12306777Y-16779484D02*
X12306777Y-16579484D01*
X12306777Y-16769960D02*
X12287730Y-16779484D01*
X12287730Y-16779484D02*
X12249634Y-16779484D01*
X12249634Y-16779484D02*
X12230587Y-16769960D01*
X12230587Y-16769960D02*
X12221063Y-16760436D01*
X12221063Y-16760436D02*
X12211539Y-16741388D01*
X12211539Y-16741388D02*
X12211539Y-16684246D01*
X12211539Y-16684246D02*
X12221063Y-16665198D01*
X12221063Y-16665198D02*
X12230587Y-16655674D01*
X12230587Y-16655674D02*
X12249634Y-16646150D01*
X12249634Y-16646150D02*
X12287730Y-16646150D01*
X12287730Y-16646150D02*
X12306777Y-16655674D01*
X12382968Y-16855674D02*
X12392492Y-16846150D01*
X12392492Y-16846150D02*
X12411539Y-16817579D01*
X12411539Y-16817579D02*
X12421063Y-16798531D01*
X12421063Y-16798531D02*
X12430587Y-16769960D01*
X12430587Y-16769960D02*
X12440111Y-16722341D01*
X12440111Y-16722341D02*
X12440111Y-16684246D01*
X12440111Y-16684246D02*
X12430587Y-16636627D01*
X12430587Y-16636627D02*
X12421063Y-16608055D01*
X12421063Y-16608055D02*
X12411539Y-16589008D01*
X12411539Y-16589008D02*
X12392492Y-16560436D01*
X12392492Y-16560436D02*
X12382968Y-16550912D01*
X5146000Y-16908000D02*
X5146000Y-17108000D01*
X5046000Y-17008000D02*
X5246000Y-17008000D01*
X5487729Y-16899484D02*
X5611539Y-16899484D01*
X5611539Y-16899484D02*
X5544872Y-16975674D01*
X5544872Y-16975674D02*
X5573444Y-16975674D01*
X5573444Y-16975674D02*
X5592491Y-16985198D01*
X5592491Y-16985198D02*
X5602015Y-16994722D01*
X5602015Y-16994722D02*
X5611539Y-17013770D01*
X5611539Y-17013770D02*
X5611539Y-17061389D01*
X5611539Y-17061389D02*
X5602015Y-17080436D01*
X5602015Y-17080436D02*
X5592491Y-17089960D01*
X5592491Y-17089960D02*
X5573444Y-17099484D01*
X5573444Y-17099484D02*
X5516301Y-17099484D01*
X5516301Y-17099484D02*
X5497253Y-17089960D01*
X5497253Y-17089960D02*
X5487729Y-17080436D01*
X5697253Y-17080436D02*
X5706777Y-17089960D01*
X5706777Y-17089960D02*
X5697253Y-17099484D01*
X5697253Y-17099484D02*
X5687729Y-17089960D01*
X5687729Y-17089960D02*
X5697253Y-17080436D01*
X5697253Y-17080436D02*
X5697253Y-17099484D01*
X5830586Y-16899484D02*
X5849634Y-16899484D01*
X5849634Y-16899484D02*
X5868682Y-16909008D01*
X5868682Y-16909008D02*
X5878205Y-16918531D01*
X5878205Y-16918531D02*
X5887729Y-16937579D01*
X5887729Y-16937579D02*
X5897253Y-16975674D01*
X5897253Y-16975674D02*
X5897253Y-17023293D01*
X5897253Y-17023293D02*
X5887729Y-17061389D01*
X5887729Y-17061389D02*
X5878205Y-17080436D01*
X5878205Y-17080436D02*
X5868682Y-17089960D01*
X5868682Y-17089960D02*
X5849634Y-17099484D01*
X5849634Y-17099484D02*
X5830586Y-17099484D01*
X5830586Y-17099484D02*
X5811539Y-17089960D01*
X5811539Y-17089960D02*
X5802015Y-17080436D01*
X5802015Y-17080436D02*
X5792491Y-17061389D01*
X5792491Y-17061389D02*
X5782967Y-17023293D01*
X5782967Y-17023293D02*
X5782967Y-16975674D01*
X5782967Y-16975674D02*
X5792491Y-16937579D01*
X5792491Y-16937579D02*
X5802015Y-16918531D01*
X5802015Y-16918531D02*
X5811539Y-16909008D01*
X5811539Y-16909008D02*
X5830586Y-16899484D01*
X6078205Y-16899484D02*
X5982967Y-16899484D01*
X5982967Y-16899484D02*
X5973443Y-16994722D01*
X5973443Y-16994722D02*
X5982967Y-16985198D01*
X5982967Y-16985198D02*
X6002015Y-16975674D01*
X6002015Y-16975674D02*
X6049634Y-16975674D01*
X6049634Y-16975674D02*
X6068682Y-16985198D01*
X6068682Y-16985198D02*
X6078205Y-16994722D01*
X6078205Y-16994722D02*
X6087729Y-17013770D01*
X6087729Y-17013770D02*
X6087729Y-17061389D01*
X6087729Y-17061389D02*
X6078205Y-17080436D01*
X6078205Y-17080436D02*
X6068682Y-17089960D01*
X6068682Y-17089960D02*
X6049634Y-17099484D01*
X6049634Y-17099484D02*
X6002015Y-17099484D01*
X6002015Y-17099484D02*
X5982967Y-17089960D01*
X5982967Y-17089960D02*
X5973443Y-17080436D01*
X6211539Y-16899484D02*
X6230586Y-16899484D01*
X6230586Y-16899484D02*
X6249634Y-16909008D01*
X6249634Y-16909008D02*
X6259158Y-16918531D01*
X6259158Y-16918531D02*
X6268682Y-16937579D01*
X6268682Y-16937579D02*
X6278205Y-16975674D01*
X6278205Y-16975674D02*
X6278205Y-17023293D01*
X6278205Y-17023293D02*
X6268682Y-17061389D01*
X6268682Y-17061389D02*
X6259158Y-17080436D01*
X6259158Y-17080436D02*
X6249634Y-17089960D01*
X6249634Y-17089960D02*
X6230586Y-17099484D01*
X6230586Y-17099484D02*
X6211539Y-17099484D01*
X6211539Y-17099484D02*
X6192491Y-17089960D01*
X6192491Y-17089960D02*
X6182967Y-17080436D01*
X6182967Y-17080436D02*
X6173443Y-17061389D01*
X6173443Y-17061389D02*
X6163920Y-17023293D01*
X6163920Y-17023293D02*
X6163920Y-16975674D01*
X6163920Y-16975674D02*
X6173443Y-16937579D01*
X6173443Y-16937579D02*
X6182967Y-16918531D01*
X6182967Y-16918531D02*
X6192491Y-16909008D01*
X6192491Y-16909008D02*
X6211539Y-16899484D01*
X6363920Y-17099484D02*
X6363920Y-16966150D01*
X6363920Y-16985198D02*
X6373443Y-16975674D01*
X6373443Y-16975674D02*
X6392491Y-16966150D01*
X6392491Y-16966150D02*
X6421063Y-16966150D01*
X6421063Y-16966150D02*
X6440110Y-16975674D01*
X6440110Y-16975674D02*
X6449634Y-16994722D01*
X6449634Y-16994722D02*
X6449634Y-17099484D01*
X6449634Y-16994722D02*
X6459158Y-16975674D01*
X6459158Y-16975674D02*
X6478205Y-16966150D01*
X6478205Y-16966150D02*
X6506777Y-16966150D01*
X6506777Y-16966150D02*
X6525824Y-16975674D01*
X6525824Y-16975674D02*
X6535348Y-16994722D01*
X6535348Y-16994722D02*
X6535348Y-17099484D01*
X6630586Y-17099484D02*
X6630586Y-16966150D01*
X6630586Y-16985198D02*
X6640110Y-16975674D01*
X6640110Y-16975674D02*
X6659158Y-16966150D01*
X6659158Y-16966150D02*
X6687729Y-16966150D01*
X6687729Y-16966150D02*
X6706777Y-16975674D01*
X6706777Y-16975674D02*
X6716301Y-16994722D01*
X6716301Y-16994722D02*
X6716301Y-17099484D01*
X6716301Y-16994722D02*
X6725824Y-16975674D01*
X6725824Y-16975674D02*
X6744872Y-16966150D01*
X6744872Y-16966150D02*
X6773443Y-16966150D01*
X6773443Y-16966150D02*
X6792491Y-16975674D01*
X6792491Y-16975674D02*
X6802015Y-16994722D01*
X6802015Y-16994722D02*
X6802015Y-17099484D01*
X7192491Y-16889960D02*
X7021063Y-17147103D01*
X7449634Y-16899484D02*
X7468682Y-16899484D01*
X7468682Y-16899484D02*
X7487729Y-16909008D01*
X7487729Y-16909008D02*
X7497253Y-16918531D01*
X7497253Y-16918531D02*
X7506777Y-16937579D01*
X7506777Y-16937579D02*
X7516301Y-16975674D01*
X7516301Y-16975674D02*
X7516301Y-17023293D01*
X7516301Y-17023293D02*
X7506777Y-17061389D01*
X7506777Y-17061389D02*
X7497253Y-17080436D01*
X7497253Y-17080436D02*
X7487729Y-17089960D01*
X7487729Y-17089960D02*
X7468682Y-17099484D01*
X7468682Y-17099484D02*
X7449634Y-17099484D01*
X7449634Y-17099484D02*
X7430586Y-17089960D01*
X7430586Y-17089960D02*
X7421063Y-17080436D01*
X7421063Y-17080436D02*
X7411539Y-17061389D01*
X7411539Y-17061389D02*
X7402015Y-17023293D01*
X7402015Y-17023293D02*
X7402015Y-16975674D01*
X7402015Y-16975674D02*
X7411539Y-16937579D01*
X7411539Y-16937579D02*
X7421063Y-16918531D01*
X7421063Y-16918531D02*
X7430586Y-16909008D01*
X7430586Y-16909008D02*
X7449634Y-16899484D01*
X7602015Y-17080436D02*
X7611539Y-17089960D01*
X7611539Y-17089960D02*
X7602015Y-17099484D01*
X7602015Y-17099484D02*
X7592491Y-17089960D01*
X7592491Y-17089960D02*
X7602015Y-17080436D01*
X7602015Y-17080436D02*
X7602015Y-17099484D01*
X7802015Y-17099484D02*
X7687729Y-17099484D01*
X7744872Y-17099484D02*
X7744872Y-16899484D01*
X7744872Y-16899484D02*
X7725825Y-16928055D01*
X7725825Y-16928055D02*
X7706777Y-16947103D01*
X7706777Y-16947103D02*
X7687729Y-16956627D01*
X7878206Y-16918531D02*
X7887729Y-16909008D01*
X7887729Y-16909008D02*
X7906777Y-16899484D01*
X7906777Y-16899484D02*
X7954396Y-16899484D01*
X7954396Y-16899484D02*
X7973444Y-16909008D01*
X7973444Y-16909008D02*
X7982967Y-16918531D01*
X7982967Y-16918531D02*
X7992491Y-16937579D01*
X7992491Y-16937579D02*
X7992491Y-16956627D01*
X7992491Y-16956627D02*
X7982967Y-16985198D01*
X7982967Y-16985198D02*
X7868682Y-17099484D01*
X7868682Y-17099484D02*
X7992491Y-17099484D01*
X8116301Y-16899484D02*
X8135348Y-16899484D01*
X8135348Y-16899484D02*
X8154396Y-16909008D01*
X8154396Y-16909008D02*
X8163920Y-16918531D01*
X8163920Y-16918531D02*
X8173444Y-16937579D01*
X8173444Y-16937579D02*
X8182967Y-16975674D01*
X8182967Y-16975674D02*
X8182967Y-17023293D01*
X8182967Y-17023293D02*
X8173444Y-17061389D01*
X8173444Y-17061389D02*
X8163920Y-17080436D01*
X8163920Y-17080436D02*
X8154396Y-17089960D01*
X8154396Y-17089960D02*
X8135348Y-17099484D01*
X8135348Y-17099484D02*
X8116301Y-17099484D01*
X8116301Y-17099484D02*
X8097253Y-17089960D01*
X8097253Y-17089960D02*
X8087729Y-17080436D01*
X8087729Y-17080436D02*
X8078206Y-17061389D01*
X8078206Y-17061389D02*
X8068682Y-17023293D01*
X8068682Y-17023293D02*
X8068682Y-16975674D01*
X8068682Y-16975674D02*
X8078206Y-16937579D01*
X8078206Y-16937579D02*
X8087729Y-16918531D01*
X8087729Y-16918531D02*
X8097253Y-16909008D01*
X8097253Y-16909008D02*
X8116301Y-16899484D01*
X8373444Y-17099484D02*
X8259158Y-17099484D01*
X8316301Y-17099484D02*
X8316301Y-16899484D01*
X8316301Y-16899484D02*
X8297253Y-16928055D01*
X8297253Y-16928055D02*
X8278206Y-16947103D01*
X8278206Y-16947103D02*
X8259158Y-16956627D01*
X8449634Y-16899484D02*
X8449634Y-16937579D01*
X8525825Y-16899484D02*
X8525825Y-16937579D01*
X8821063Y-17175674D02*
X8811539Y-17166150D01*
X8811539Y-17166150D02*
X8792491Y-17137579D01*
X8792491Y-17137579D02*
X8782968Y-17118531D01*
X8782968Y-17118531D02*
X8773444Y-17089960D01*
X8773444Y-17089960D02*
X8763920Y-17042341D01*
X8763920Y-17042341D02*
X8763920Y-17004246D01*
X8763920Y-17004246D02*
X8773444Y-16956627D01*
X8773444Y-16956627D02*
X8782968Y-16928055D01*
X8782968Y-16928055D02*
X8792491Y-16909008D01*
X8792491Y-16909008D02*
X8811539Y-16880436D01*
X8811539Y-16880436D02*
X8821063Y-16870912D01*
X9002015Y-17099484D02*
X8887730Y-17099484D01*
X8944872Y-17099484D02*
X8944872Y-16899484D01*
X8944872Y-16899484D02*
X8925825Y-16928055D01*
X8925825Y-16928055D02*
X8906777Y-16947103D01*
X8906777Y-16947103D02*
X8887730Y-16956627D01*
X9125825Y-16899484D02*
X9144872Y-16899484D01*
X9144872Y-16899484D02*
X9163920Y-16909008D01*
X9163920Y-16909008D02*
X9173444Y-16918531D01*
X9173444Y-16918531D02*
X9182968Y-16937579D01*
X9182968Y-16937579D02*
X9192491Y-16975674D01*
X9192491Y-16975674D02*
X9192491Y-17023293D01*
X9192491Y-17023293D02*
X9182968Y-17061389D01*
X9182968Y-17061389D02*
X9173444Y-17080436D01*
X9173444Y-17080436D02*
X9163920Y-17089960D01*
X9163920Y-17089960D02*
X9144872Y-17099484D01*
X9144872Y-17099484D02*
X9125825Y-17099484D01*
X9125825Y-17099484D02*
X9106777Y-17089960D01*
X9106777Y-17089960D02*
X9097253Y-17080436D01*
X9097253Y-17080436D02*
X9087730Y-17061389D01*
X9087730Y-17061389D02*
X9078206Y-17023293D01*
X9078206Y-17023293D02*
X9078206Y-16975674D01*
X9078206Y-16975674D02*
X9087730Y-16937579D01*
X9087730Y-16937579D02*
X9097253Y-16918531D01*
X9097253Y-16918531D02*
X9106777Y-16909008D01*
X9106777Y-16909008D02*
X9125825Y-16899484D01*
X9430587Y-17099484D02*
X9430587Y-16899484D01*
X9516301Y-17099484D02*
X9516301Y-16994722D01*
X9516301Y-16994722D02*
X9506777Y-16975674D01*
X9506777Y-16975674D02*
X9487730Y-16966150D01*
X9487730Y-16966150D02*
X9459158Y-16966150D01*
X9459158Y-16966150D02*
X9440111Y-16975674D01*
X9440111Y-16975674D02*
X9430587Y-16985198D01*
X9640111Y-17099484D02*
X9621063Y-17089960D01*
X9621063Y-17089960D02*
X9611539Y-17080436D01*
X9611539Y-17080436D02*
X9602015Y-17061389D01*
X9602015Y-17061389D02*
X9602015Y-17004246D01*
X9602015Y-17004246D02*
X9611539Y-16985198D01*
X9611539Y-16985198D02*
X9621063Y-16975674D01*
X9621063Y-16975674D02*
X9640111Y-16966150D01*
X9640111Y-16966150D02*
X9668682Y-16966150D01*
X9668682Y-16966150D02*
X9687730Y-16975674D01*
X9687730Y-16975674D02*
X9697253Y-16985198D01*
X9697253Y-16985198D02*
X9706777Y-17004246D01*
X9706777Y-17004246D02*
X9706777Y-17061389D01*
X9706777Y-17061389D02*
X9697253Y-17080436D01*
X9697253Y-17080436D02*
X9687730Y-17089960D01*
X9687730Y-17089960D02*
X9668682Y-17099484D01*
X9668682Y-17099484D02*
X9640111Y-17099484D01*
X9821063Y-17099484D02*
X9802015Y-17089960D01*
X9802015Y-17089960D02*
X9792492Y-17070912D01*
X9792492Y-17070912D02*
X9792492Y-16899484D01*
X9973444Y-17089960D02*
X9954396Y-17099484D01*
X9954396Y-17099484D02*
X9916301Y-17099484D01*
X9916301Y-17099484D02*
X9897253Y-17089960D01*
X9897253Y-17089960D02*
X9887730Y-17070912D01*
X9887730Y-17070912D02*
X9887730Y-16994722D01*
X9887730Y-16994722D02*
X9897253Y-16975674D01*
X9897253Y-16975674D02*
X9916301Y-16966150D01*
X9916301Y-16966150D02*
X9954396Y-16966150D01*
X9954396Y-16966150D02*
X9973444Y-16975674D01*
X9973444Y-16975674D02*
X9982968Y-16994722D01*
X9982968Y-16994722D02*
X9982968Y-17013770D01*
X9982968Y-17013770D02*
X9887730Y-17032817D01*
X10059158Y-17089960D02*
X10078206Y-17099484D01*
X10078206Y-17099484D02*
X10116301Y-17099484D01*
X10116301Y-17099484D02*
X10135349Y-17089960D01*
X10135349Y-17089960D02*
X10144873Y-17070912D01*
X10144873Y-17070912D02*
X10144873Y-17061389D01*
X10144873Y-17061389D02*
X10135349Y-17042341D01*
X10135349Y-17042341D02*
X10116301Y-17032817D01*
X10116301Y-17032817D02*
X10087730Y-17032817D01*
X10087730Y-17032817D02*
X10068682Y-17023293D01*
X10068682Y-17023293D02*
X10059158Y-17004246D01*
X10059158Y-17004246D02*
X10059158Y-16994722D01*
X10059158Y-16994722D02*
X10068682Y-16975674D01*
X10068682Y-16975674D02*
X10087730Y-16966150D01*
X10087730Y-16966150D02*
X10116301Y-16966150D01*
X10116301Y-16966150D02*
X10135349Y-16975674D01*
X10211539Y-17175674D02*
X10221063Y-17166150D01*
X10221063Y-17166150D02*
X10240111Y-17137579D01*
X10240111Y-17137579D02*
X10249634Y-17118531D01*
X10249634Y-17118531D02*
X10259158Y-17089960D01*
X10259158Y-17089960D02*
X10268682Y-17042341D01*
X10268682Y-17042341D02*
X10268682Y-17004246D01*
X10268682Y-17004246D02*
X10259158Y-16956627D01*
X10259158Y-16956627D02*
X10249634Y-16928055D01*
X10249634Y-16928055D02*
X10240111Y-16909008D01*
X10240111Y-16909008D02*
X10221063Y-16880436D01*
X10221063Y-16880436D02*
X10211539Y-16870912D01*
X10573444Y-17175674D02*
X10563920Y-17166150D01*
X10563920Y-17166150D02*
X10544873Y-17137579D01*
X10544873Y-17137579D02*
X10535349Y-17118531D01*
X10535349Y-17118531D02*
X10525825Y-17089960D01*
X10525825Y-17089960D02*
X10516301Y-17042341D01*
X10516301Y-17042341D02*
X10516301Y-17004246D01*
X10516301Y-17004246D02*
X10525825Y-16956627D01*
X10525825Y-16956627D02*
X10535349Y-16928055D01*
X10535349Y-16928055D02*
X10544873Y-16909008D01*
X10544873Y-16909008D02*
X10563920Y-16880436D01*
X10563920Y-16880436D02*
X10573444Y-16870912D01*
X10649634Y-16966150D02*
X10649634Y-17099484D01*
X10649634Y-16985198D02*
X10659158Y-16975674D01*
X10659158Y-16975674D02*
X10678206Y-16966150D01*
X10678206Y-16966150D02*
X10706777Y-16966150D01*
X10706777Y-16966150D02*
X10725825Y-16975674D01*
X10725825Y-16975674D02*
X10735349Y-16994722D01*
X10735349Y-16994722D02*
X10735349Y-17099484D01*
X10859158Y-17099484D02*
X10840111Y-17089960D01*
X10840111Y-17089960D02*
X10830587Y-17080436D01*
X10830587Y-17080436D02*
X10821063Y-17061389D01*
X10821063Y-17061389D02*
X10821063Y-17004246D01*
X10821063Y-17004246D02*
X10830587Y-16985198D01*
X10830587Y-16985198D02*
X10840111Y-16975674D01*
X10840111Y-16975674D02*
X10859158Y-16966150D01*
X10859158Y-16966150D02*
X10887730Y-16966150D01*
X10887730Y-16966150D02*
X10906777Y-16975674D01*
X10906777Y-16975674D02*
X10916301Y-16985198D01*
X10916301Y-16985198D02*
X10925825Y-17004246D01*
X10925825Y-17004246D02*
X10925825Y-17061389D01*
X10925825Y-17061389D02*
X10916301Y-17080436D01*
X10916301Y-17080436D02*
X10906777Y-17089960D01*
X10906777Y-17089960D02*
X10887730Y-17099484D01*
X10887730Y-17099484D02*
X10859158Y-17099484D01*
X10982968Y-16966150D02*
X11059158Y-16966150D01*
X11011539Y-16899484D02*
X11011539Y-17070912D01*
X11011539Y-17070912D02*
X11021063Y-17089960D01*
X11021063Y-17089960D02*
X11040111Y-17099484D01*
X11040111Y-17099484D02*
X11059158Y-17099484D01*
X11278206Y-16966150D02*
X11278206Y-17166150D01*
X11278206Y-16975674D02*
X11297253Y-16966150D01*
X11297253Y-16966150D02*
X11335349Y-16966150D01*
X11335349Y-16966150D02*
X11354396Y-16975674D01*
X11354396Y-16975674D02*
X11363920Y-16985198D01*
X11363920Y-16985198D02*
X11373444Y-17004246D01*
X11373444Y-17004246D02*
X11373444Y-17061389D01*
X11373444Y-17061389D02*
X11363920Y-17080436D01*
X11363920Y-17080436D02*
X11354396Y-17089960D01*
X11354396Y-17089960D02*
X11335349Y-17099484D01*
X11335349Y-17099484D02*
X11297253Y-17099484D01*
X11297253Y-17099484D02*
X11278206Y-17089960D01*
X11487730Y-17099484D02*
X11468682Y-17089960D01*
X11468682Y-17089960D02*
X11459158Y-17070912D01*
X11459158Y-17070912D02*
X11459158Y-16899484D01*
X11649634Y-17099484D02*
X11649634Y-16994722D01*
X11649634Y-16994722D02*
X11640111Y-16975674D01*
X11640111Y-16975674D02*
X11621063Y-16966150D01*
X11621063Y-16966150D02*
X11582968Y-16966150D01*
X11582968Y-16966150D02*
X11563920Y-16975674D01*
X11649634Y-17089960D02*
X11630587Y-17099484D01*
X11630587Y-17099484D02*
X11582968Y-17099484D01*
X11582968Y-17099484D02*
X11563920Y-17089960D01*
X11563920Y-17089960D02*
X11554396Y-17070912D01*
X11554396Y-17070912D02*
X11554396Y-17051865D01*
X11554396Y-17051865D02*
X11563920Y-17032817D01*
X11563920Y-17032817D02*
X11582968Y-17023293D01*
X11582968Y-17023293D02*
X11630587Y-17023293D01*
X11630587Y-17023293D02*
X11649634Y-17013770D01*
X11716301Y-16966150D02*
X11792492Y-16966150D01*
X11744873Y-16899484D02*
X11744873Y-17070912D01*
X11744873Y-17070912D02*
X11754396Y-17089960D01*
X11754396Y-17089960D02*
X11773444Y-17099484D01*
X11773444Y-17099484D02*
X11792492Y-17099484D01*
X11935349Y-17089960D02*
X11916301Y-17099484D01*
X11916301Y-17099484D02*
X11878206Y-17099484D01*
X11878206Y-17099484D02*
X11859158Y-17089960D01*
X11859158Y-17089960D02*
X11849634Y-17070912D01*
X11849634Y-17070912D02*
X11849634Y-16994722D01*
X11849634Y-16994722D02*
X11859158Y-16975674D01*
X11859158Y-16975674D02*
X11878206Y-16966150D01*
X11878206Y-16966150D02*
X11916301Y-16966150D01*
X11916301Y-16966150D02*
X11935349Y-16975674D01*
X11935349Y-16975674D02*
X11944873Y-16994722D01*
X11944873Y-16994722D02*
X11944873Y-17013770D01*
X11944873Y-17013770D02*
X11849634Y-17032817D01*
X12116301Y-17099484D02*
X12116301Y-16899484D01*
X12116301Y-17089960D02*
X12097254Y-17099484D01*
X12097254Y-17099484D02*
X12059158Y-17099484D01*
X12059158Y-17099484D02*
X12040111Y-17089960D01*
X12040111Y-17089960D02*
X12030587Y-17080436D01*
X12030587Y-17080436D02*
X12021063Y-17061389D01*
X12021063Y-17061389D02*
X12021063Y-17004246D01*
X12021063Y-17004246D02*
X12030587Y-16985198D01*
X12030587Y-16985198D02*
X12040111Y-16975674D01*
X12040111Y-16975674D02*
X12059158Y-16966150D01*
X12059158Y-16966150D02*
X12097254Y-16966150D01*
X12097254Y-16966150D02*
X12116301Y-16975674D01*
X12192492Y-17175674D02*
X12202015Y-17166150D01*
X12202015Y-17166150D02*
X12221063Y-17137579D01*
X12221063Y-17137579D02*
X12230587Y-17118531D01*
X12230587Y-17118531D02*
X12240111Y-17089960D01*
X12240111Y-17089960D02*
X12249634Y-17042341D01*
X12249634Y-17042341D02*
X12249634Y-17004246D01*
X12249634Y-17004246D02*
X12240111Y-16956627D01*
X12240111Y-16956627D02*
X12230587Y-16928055D01*
X12230587Y-16928055D02*
X12221063Y-16909008D01*
X12221063Y-16909008D02*
X12202015Y-16880436D01*
X12202015Y-16880436D02*
X12192492Y-16870912D01*
X5216711Y-17398711D02*
X5216711Y-17257289D01*
X5075289Y-17257289D01*
X5075289Y-17398711D01*
X5216711Y-17398711D01*
X5592491Y-17286150D02*
X5592491Y-17419484D01*
X5544872Y-17209960D02*
X5497253Y-17352817D01*
X5497253Y-17352817D02*
X5621062Y-17352817D01*
X5697253Y-17400436D02*
X5706777Y-17409960D01*
X5706777Y-17409960D02*
X5697253Y-17419484D01*
X5697253Y-17419484D02*
X5687729Y-17409960D01*
X5687729Y-17409960D02*
X5697253Y-17400436D01*
X5697253Y-17400436D02*
X5697253Y-17419484D01*
X5830586Y-17219484D02*
X5849634Y-17219484D01*
X5849634Y-17219484D02*
X5868682Y-17229008D01*
X5868682Y-17229008D02*
X5878205Y-17238531D01*
X5878205Y-17238531D02*
X5887729Y-17257579D01*
X5887729Y-17257579D02*
X5897253Y-17295674D01*
X5897253Y-17295674D02*
X5897253Y-17343293D01*
X5897253Y-17343293D02*
X5887729Y-17381389D01*
X5887729Y-17381389D02*
X5878205Y-17400436D01*
X5878205Y-17400436D02*
X5868682Y-17409960D01*
X5868682Y-17409960D02*
X5849634Y-17419484D01*
X5849634Y-17419484D02*
X5830586Y-17419484D01*
X5830586Y-17419484D02*
X5811539Y-17409960D01*
X5811539Y-17409960D02*
X5802015Y-17400436D01*
X5802015Y-17400436D02*
X5792491Y-17381389D01*
X5792491Y-17381389D02*
X5782967Y-17343293D01*
X5782967Y-17343293D02*
X5782967Y-17295674D01*
X5782967Y-17295674D02*
X5792491Y-17257579D01*
X5792491Y-17257579D02*
X5802015Y-17238531D01*
X5802015Y-17238531D02*
X5811539Y-17229008D01*
X5811539Y-17229008D02*
X5830586Y-17219484D01*
X6021062Y-17219484D02*
X6040110Y-17219484D01*
X6040110Y-17219484D02*
X6059158Y-17229008D01*
X6059158Y-17229008D02*
X6068682Y-17238531D01*
X6068682Y-17238531D02*
X6078205Y-17257579D01*
X6078205Y-17257579D02*
X6087729Y-17295674D01*
X6087729Y-17295674D02*
X6087729Y-17343293D01*
X6087729Y-17343293D02*
X6078205Y-17381389D01*
X6078205Y-17381389D02*
X6068682Y-17400436D01*
X6068682Y-17400436D02*
X6059158Y-17409960D01*
X6059158Y-17409960D02*
X6040110Y-17419484D01*
X6040110Y-17419484D02*
X6021062Y-17419484D01*
X6021062Y-17419484D02*
X6002015Y-17409960D01*
X6002015Y-17409960D02*
X5992491Y-17400436D01*
X5992491Y-17400436D02*
X5982967Y-17381389D01*
X5982967Y-17381389D02*
X5973443Y-17343293D01*
X5973443Y-17343293D02*
X5973443Y-17295674D01*
X5973443Y-17295674D02*
X5982967Y-17257579D01*
X5982967Y-17257579D02*
X5992491Y-17238531D01*
X5992491Y-17238531D02*
X6002015Y-17229008D01*
X6002015Y-17229008D02*
X6021062Y-17219484D01*
X6211539Y-17219484D02*
X6230586Y-17219484D01*
X6230586Y-17219484D02*
X6249634Y-17229008D01*
X6249634Y-17229008D02*
X6259158Y-17238531D01*
X6259158Y-17238531D02*
X6268682Y-17257579D01*
X6268682Y-17257579D02*
X6278205Y-17295674D01*
X6278205Y-17295674D02*
X6278205Y-17343293D01*
X6278205Y-17343293D02*
X6268682Y-17381389D01*
X6268682Y-17381389D02*
X6259158Y-17400436D01*
X6259158Y-17400436D02*
X6249634Y-17409960D01*
X6249634Y-17409960D02*
X6230586Y-17419484D01*
X6230586Y-17419484D02*
X6211539Y-17419484D01*
X6211539Y-17419484D02*
X6192491Y-17409960D01*
X6192491Y-17409960D02*
X6182967Y-17400436D01*
X6182967Y-17400436D02*
X6173443Y-17381389D01*
X6173443Y-17381389D02*
X6163920Y-17343293D01*
X6163920Y-17343293D02*
X6163920Y-17295674D01*
X6163920Y-17295674D02*
X6173443Y-17257579D01*
X6173443Y-17257579D02*
X6182967Y-17238531D01*
X6182967Y-17238531D02*
X6192491Y-17229008D01*
X6192491Y-17229008D02*
X6211539Y-17219484D01*
X6363920Y-17419484D02*
X6363920Y-17286150D01*
X6363920Y-17305198D02*
X6373443Y-17295674D01*
X6373443Y-17295674D02*
X6392491Y-17286150D01*
X6392491Y-17286150D02*
X6421063Y-17286150D01*
X6421063Y-17286150D02*
X6440110Y-17295674D01*
X6440110Y-17295674D02*
X6449634Y-17314722D01*
X6449634Y-17314722D02*
X6449634Y-17419484D01*
X6449634Y-17314722D02*
X6459158Y-17295674D01*
X6459158Y-17295674D02*
X6478205Y-17286150D01*
X6478205Y-17286150D02*
X6506777Y-17286150D01*
X6506777Y-17286150D02*
X6525824Y-17295674D01*
X6525824Y-17295674D02*
X6535348Y-17314722D01*
X6535348Y-17314722D02*
X6535348Y-17419484D01*
X6630586Y-17419484D02*
X6630586Y-17286150D01*
X6630586Y-17305198D02*
X6640110Y-17295674D01*
X6640110Y-17295674D02*
X6659158Y-17286150D01*
X6659158Y-17286150D02*
X6687729Y-17286150D01*
X6687729Y-17286150D02*
X6706777Y-17295674D01*
X6706777Y-17295674D02*
X6716301Y-17314722D01*
X6716301Y-17314722D02*
X6716301Y-17419484D01*
X6716301Y-17314722D02*
X6725824Y-17295674D01*
X6725824Y-17295674D02*
X6744872Y-17286150D01*
X6744872Y-17286150D02*
X6773443Y-17286150D01*
X6773443Y-17286150D02*
X6792491Y-17295674D01*
X6792491Y-17295674D02*
X6802015Y-17314722D01*
X6802015Y-17314722D02*
X6802015Y-17419484D01*
X7192491Y-17209960D02*
X7021063Y-17467103D01*
X7449634Y-17219484D02*
X7468682Y-17219484D01*
X7468682Y-17219484D02*
X7487729Y-17229008D01*
X7487729Y-17229008D02*
X7497253Y-17238531D01*
X7497253Y-17238531D02*
X7506777Y-17257579D01*
X7506777Y-17257579D02*
X7516301Y-17295674D01*
X7516301Y-17295674D02*
X7516301Y-17343293D01*
X7516301Y-17343293D02*
X7506777Y-17381389D01*
X7506777Y-17381389D02*
X7497253Y-17400436D01*
X7497253Y-17400436D02*
X7487729Y-17409960D01*
X7487729Y-17409960D02*
X7468682Y-17419484D01*
X7468682Y-17419484D02*
X7449634Y-17419484D01*
X7449634Y-17419484D02*
X7430586Y-17409960D01*
X7430586Y-17409960D02*
X7421063Y-17400436D01*
X7421063Y-17400436D02*
X7411539Y-17381389D01*
X7411539Y-17381389D02*
X7402015Y-17343293D01*
X7402015Y-17343293D02*
X7402015Y-17295674D01*
X7402015Y-17295674D02*
X7411539Y-17257579D01*
X7411539Y-17257579D02*
X7421063Y-17238531D01*
X7421063Y-17238531D02*
X7430586Y-17229008D01*
X7430586Y-17229008D02*
X7449634Y-17219484D01*
X7602015Y-17400436D02*
X7611539Y-17409960D01*
X7611539Y-17409960D02*
X7602015Y-17419484D01*
X7602015Y-17419484D02*
X7592491Y-17409960D01*
X7592491Y-17409960D02*
X7602015Y-17400436D01*
X7602015Y-17400436D02*
X7602015Y-17419484D01*
X7802015Y-17419484D02*
X7687729Y-17419484D01*
X7744872Y-17419484D02*
X7744872Y-17219484D01*
X7744872Y-17219484D02*
X7725825Y-17248055D01*
X7725825Y-17248055D02*
X7706777Y-17267103D01*
X7706777Y-17267103D02*
X7687729Y-17276627D01*
X7982967Y-17219484D02*
X7887729Y-17219484D01*
X7887729Y-17219484D02*
X7878206Y-17314722D01*
X7878206Y-17314722D02*
X7887729Y-17305198D01*
X7887729Y-17305198D02*
X7906777Y-17295674D01*
X7906777Y-17295674D02*
X7954396Y-17295674D01*
X7954396Y-17295674D02*
X7973444Y-17305198D01*
X7973444Y-17305198D02*
X7982967Y-17314722D01*
X7982967Y-17314722D02*
X7992491Y-17333770D01*
X7992491Y-17333770D02*
X7992491Y-17381389D01*
X7992491Y-17381389D02*
X7982967Y-17400436D01*
X7982967Y-17400436D02*
X7973444Y-17409960D01*
X7973444Y-17409960D02*
X7954396Y-17419484D01*
X7954396Y-17419484D02*
X7906777Y-17419484D01*
X7906777Y-17419484D02*
X7887729Y-17409960D01*
X7887729Y-17409960D02*
X7878206Y-17400436D01*
X8059158Y-17219484D02*
X8192491Y-17219484D01*
X8192491Y-17219484D02*
X8106777Y-17419484D01*
X8363920Y-17219484D02*
X8268682Y-17219484D01*
X8268682Y-17219484D02*
X8259158Y-17314722D01*
X8259158Y-17314722D02*
X8268682Y-17305198D01*
X8268682Y-17305198D02*
X8287729Y-17295674D01*
X8287729Y-17295674D02*
X8335348Y-17295674D01*
X8335348Y-17295674D02*
X8354396Y-17305198D01*
X8354396Y-17305198D02*
X8363920Y-17314722D01*
X8363920Y-17314722D02*
X8373444Y-17333770D01*
X8373444Y-17333770D02*
X8373444Y-17381389D01*
X8373444Y-17381389D02*
X8363920Y-17400436D01*
X8363920Y-17400436D02*
X8354396Y-17409960D01*
X8354396Y-17409960D02*
X8335348Y-17419484D01*
X8335348Y-17419484D02*
X8287729Y-17419484D01*
X8287729Y-17419484D02*
X8268682Y-17409960D01*
X8268682Y-17409960D02*
X8259158Y-17400436D01*
X8449634Y-17219484D02*
X8449634Y-17257579D01*
X8525825Y-17219484D02*
X8525825Y-17257579D01*
X8821063Y-17495674D02*
X8811539Y-17486150D01*
X8811539Y-17486150D02*
X8792491Y-17457579D01*
X8792491Y-17457579D02*
X8782968Y-17438531D01*
X8782968Y-17438531D02*
X8773444Y-17409960D01*
X8773444Y-17409960D02*
X8763920Y-17362341D01*
X8763920Y-17362341D02*
X8763920Y-17324246D01*
X8763920Y-17324246D02*
X8773444Y-17276627D01*
X8773444Y-17276627D02*
X8782968Y-17248055D01*
X8782968Y-17248055D02*
X8792491Y-17229008D01*
X8792491Y-17229008D02*
X8811539Y-17200436D01*
X8811539Y-17200436D02*
X8821063Y-17190912D01*
X8925825Y-17305198D02*
X8906777Y-17295674D01*
X8906777Y-17295674D02*
X8897253Y-17286150D01*
X8897253Y-17286150D02*
X8887730Y-17267103D01*
X8887730Y-17267103D02*
X8887730Y-17257579D01*
X8887730Y-17257579D02*
X8897253Y-17238531D01*
X8897253Y-17238531D02*
X8906777Y-17229008D01*
X8906777Y-17229008D02*
X8925825Y-17219484D01*
X8925825Y-17219484D02*
X8963920Y-17219484D01*
X8963920Y-17219484D02*
X8982968Y-17229008D01*
X8982968Y-17229008D02*
X8992491Y-17238531D01*
X8992491Y-17238531D02*
X9002015Y-17257579D01*
X9002015Y-17257579D02*
X9002015Y-17267103D01*
X9002015Y-17267103D02*
X8992491Y-17286150D01*
X8992491Y-17286150D02*
X8982968Y-17295674D01*
X8982968Y-17295674D02*
X8963920Y-17305198D01*
X8963920Y-17305198D02*
X8925825Y-17305198D01*
X8925825Y-17305198D02*
X8906777Y-17314722D01*
X8906777Y-17314722D02*
X8897253Y-17324246D01*
X8897253Y-17324246D02*
X8887730Y-17343293D01*
X8887730Y-17343293D02*
X8887730Y-17381389D01*
X8887730Y-17381389D02*
X8897253Y-17400436D01*
X8897253Y-17400436D02*
X8906777Y-17409960D01*
X8906777Y-17409960D02*
X8925825Y-17419484D01*
X8925825Y-17419484D02*
X8963920Y-17419484D01*
X8963920Y-17419484D02*
X8982968Y-17409960D01*
X8982968Y-17409960D02*
X8992491Y-17400436D01*
X8992491Y-17400436D02*
X9002015Y-17381389D01*
X9002015Y-17381389D02*
X9002015Y-17343293D01*
X9002015Y-17343293D02*
X8992491Y-17324246D01*
X8992491Y-17324246D02*
X8982968Y-17314722D01*
X8982968Y-17314722D02*
X8963920Y-17305198D01*
X9192491Y-17419484D02*
X9078206Y-17419484D01*
X9135349Y-17419484D02*
X9135349Y-17219484D01*
X9135349Y-17219484D02*
X9116301Y-17248055D01*
X9116301Y-17248055D02*
X9097253Y-17267103D01*
X9097253Y-17267103D02*
X9078206Y-17276627D01*
X9430587Y-17419484D02*
X9430587Y-17219484D01*
X9516301Y-17419484D02*
X9516301Y-17314722D01*
X9516301Y-17314722D02*
X9506777Y-17295674D01*
X9506777Y-17295674D02*
X9487730Y-17286150D01*
X9487730Y-17286150D02*
X9459158Y-17286150D01*
X9459158Y-17286150D02*
X9440111Y-17295674D01*
X9440111Y-17295674D02*
X9430587Y-17305198D01*
X9640111Y-17419484D02*
X9621063Y-17409960D01*
X9621063Y-17409960D02*
X9611539Y-17400436D01*
X9611539Y-17400436D02*
X9602015Y-17381389D01*
X9602015Y-17381389D02*
X9602015Y-17324246D01*
X9602015Y-17324246D02*
X9611539Y-17305198D01*
X9611539Y-17305198D02*
X9621063Y-17295674D01*
X9621063Y-17295674D02*
X9640111Y-17286150D01*
X9640111Y-17286150D02*
X9668682Y-17286150D01*
X9668682Y-17286150D02*
X9687730Y-17295674D01*
X9687730Y-17295674D02*
X9697253Y-17305198D01*
X9697253Y-17305198D02*
X9706777Y-17324246D01*
X9706777Y-17324246D02*
X9706777Y-17381389D01*
X9706777Y-17381389D02*
X9697253Y-17400436D01*
X9697253Y-17400436D02*
X9687730Y-17409960D01*
X9687730Y-17409960D02*
X9668682Y-17419484D01*
X9668682Y-17419484D02*
X9640111Y-17419484D01*
X9821063Y-17419484D02*
X9802015Y-17409960D01*
X9802015Y-17409960D02*
X9792492Y-17390912D01*
X9792492Y-17390912D02*
X9792492Y-17219484D01*
X9973444Y-17409960D02*
X9954396Y-17419484D01*
X9954396Y-17419484D02*
X9916301Y-17419484D01*
X9916301Y-17419484D02*
X9897253Y-17409960D01*
X9897253Y-17409960D02*
X9887730Y-17390912D01*
X9887730Y-17390912D02*
X9887730Y-17314722D01*
X9887730Y-17314722D02*
X9897253Y-17295674D01*
X9897253Y-17295674D02*
X9916301Y-17286150D01*
X9916301Y-17286150D02*
X9954396Y-17286150D01*
X9954396Y-17286150D02*
X9973444Y-17295674D01*
X9973444Y-17295674D02*
X9982968Y-17314722D01*
X9982968Y-17314722D02*
X9982968Y-17333770D01*
X9982968Y-17333770D02*
X9887730Y-17352817D01*
X10059158Y-17409960D02*
X10078206Y-17419484D01*
X10078206Y-17419484D02*
X10116301Y-17419484D01*
X10116301Y-17419484D02*
X10135349Y-17409960D01*
X10135349Y-17409960D02*
X10144873Y-17390912D01*
X10144873Y-17390912D02*
X10144873Y-17381389D01*
X10144873Y-17381389D02*
X10135349Y-17362341D01*
X10135349Y-17362341D02*
X10116301Y-17352817D01*
X10116301Y-17352817D02*
X10087730Y-17352817D01*
X10087730Y-17352817D02*
X10068682Y-17343293D01*
X10068682Y-17343293D02*
X10059158Y-17324246D01*
X10059158Y-17324246D02*
X10059158Y-17314722D01*
X10059158Y-17314722D02*
X10068682Y-17295674D01*
X10068682Y-17295674D02*
X10087730Y-17286150D01*
X10087730Y-17286150D02*
X10116301Y-17286150D01*
X10116301Y-17286150D02*
X10135349Y-17295674D01*
X10211539Y-17495674D02*
X10221063Y-17486150D01*
X10221063Y-17486150D02*
X10240111Y-17457579D01*
X10240111Y-17457579D02*
X10249634Y-17438531D01*
X10249634Y-17438531D02*
X10259158Y-17409960D01*
X10259158Y-17409960D02*
X10268682Y-17362341D01*
X10268682Y-17362341D02*
X10268682Y-17324246D01*
X10268682Y-17324246D02*
X10259158Y-17276627D01*
X10259158Y-17276627D02*
X10249634Y-17248055D01*
X10249634Y-17248055D02*
X10240111Y-17229008D01*
X10240111Y-17229008D02*
X10221063Y-17200436D01*
X10221063Y-17200436D02*
X10211539Y-17190912D01*
X10573444Y-17495674D02*
X10563920Y-17486150D01*
X10563920Y-17486150D02*
X10544873Y-17457579D01*
X10544873Y-17457579D02*
X10535349Y-17438531D01*
X10535349Y-17438531D02*
X10525825Y-17409960D01*
X10525825Y-17409960D02*
X10516301Y-17362341D01*
X10516301Y-17362341D02*
X10516301Y-17324246D01*
X10516301Y-17324246D02*
X10525825Y-17276627D01*
X10525825Y-17276627D02*
X10535349Y-17248055D01*
X10535349Y-17248055D02*
X10544873Y-17229008D01*
X10544873Y-17229008D02*
X10563920Y-17200436D01*
X10563920Y-17200436D02*
X10573444Y-17190912D01*
X10649634Y-17286150D02*
X10649634Y-17419484D01*
X10649634Y-17305198D02*
X10659158Y-17295674D01*
X10659158Y-17295674D02*
X10678206Y-17286150D01*
X10678206Y-17286150D02*
X10706777Y-17286150D01*
X10706777Y-17286150D02*
X10725825Y-17295674D01*
X10725825Y-17295674D02*
X10735349Y-17314722D01*
X10735349Y-17314722D02*
X10735349Y-17419484D01*
X10859158Y-17419484D02*
X10840111Y-17409960D01*
X10840111Y-17409960D02*
X10830587Y-17400436D01*
X10830587Y-17400436D02*
X10821063Y-17381389D01*
X10821063Y-17381389D02*
X10821063Y-17324246D01*
X10821063Y-17324246D02*
X10830587Y-17305198D01*
X10830587Y-17305198D02*
X10840111Y-17295674D01*
X10840111Y-17295674D02*
X10859158Y-17286150D01*
X10859158Y-17286150D02*
X10887730Y-17286150D01*
X10887730Y-17286150D02*
X10906777Y-17295674D01*
X10906777Y-17295674D02*
X10916301Y-17305198D01*
X10916301Y-17305198D02*
X10925825Y-17324246D01*
X10925825Y-17324246D02*
X10925825Y-17381389D01*
X10925825Y-17381389D02*
X10916301Y-17400436D01*
X10916301Y-17400436D02*
X10906777Y-17409960D01*
X10906777Y-17409960D02*
X10887730Y-17419484D01*
X10887730Y-17419484D02*
X10859158Y-17419484D01*
X10982968Y-17286150D02*
X11059158Y-17286150D01*
X11011539Y-17219484D02*
X11011539Y-17390912D01*
X11011539Y-17390912D02*
X11021063Y-17409960D01*
X11021063Y-17409960D02*
X11040111Y-17419484D01*
X11040111Y-17419484D02*
X11059158Y-17419484D01*
X11278206Y-17286150D02*
X11278206Y-17486150D01*
X11278206Y-17295674D02*
X11297253Y-17286150D01*
X11297253Y-17286150D02*
X11335349Y-17286150D01*
X11335349Y-17286150D02*
X11354396Y-17295674D01*
X11354396Y-17295674D02*
X11363920Y-17305198D01*
X11363920Y-17305198D02*
X11373444Y-17324246D01*
X11373444Y-17324246D02*
X11373444Y-17381389D01*
X11373444Y-17381389D02*
X11363920Y-17400436D01*
X11363920Y-17400436D02*
X11354396Y-17409960D01*
X11354396Y-17409960D02*
X11335349Y-17419484D01*
X11335349Y-17419484D02*
X11297253Y-17419484D01*
X11297253Y-17419484D02*
X11278206Y-17409960D01*
X11487730Y-17419484D02*
X11468682Y-17409960D01*
X11468682Y-17409960D02*
X11459158Y-17390912D01*
X11459158Y-17390912D02*
X11459158Y-17219484D01*
X11649634Y-17419484D02*
X11649634Y-17314722D01*
X11649634Y-17314722D02*
X11640111Y-17295674D01*
X11640111Y-17295674D02*
X11621063Y-17286150D01*
X11621063Y-17286150D02*
X11582968Y-17286150D01*
X11582968Y-17286150D02*
X11563920Y-17295674D01*
X11649634Y-17409960D02*
X11630587Y-17419484D01*
X11630587Y-17419484D02*
X11582968Y-17419484D01*
X11582968Y-17419484D02*
X11563920Y-17409960D01*
X11563920Y-17409960D02*
X11554396Y-17390912D01*
X11554396Y-17390912D02*
X11554396Y-17371865D01*
X11554396Y-17371865D02*
X11563920Y-17352817D01*
X11563920Y-17352817D02*
X11582968Y-17343293D01*
X11582968Y-17343293D02*
X11630587Y-17343293D01*
X11630587Y-17343293D02*
X11649634Y-17333770D01*
X11716301Y-17286150D02*
X11792492Y-17286150D01*
X11744873Y-17219484D02*
X11744873Y-17390912D01*
X11744873Y-17390912D02*
X11754396Y-17409960D01*
X11754396Y-17409960D02*
X11773444Y-17419484D01*
X11773444Y-17419484D02*
X11792492Y-17419484D01*
X11935349Y-17409960D02*
X11916301Y-17419484D01*
X11916301Y-17419484D02*
X11878206Y-17419484D01*
X11878206Y-17419484D02*
X11859158Y-17409960D01*
X11859158Y-17409960D02*
X11849634Y-17390912D01*
X11849634Y-17390912D02*
X11849634Y-17314722D01*
X11849634Y-17314722D02*
X11859158Y-17295674D01*
X11859158Y-17295674D02*
X11878206Y-17286150D01*
X11878206Y-17286150D02*
X11916301Y-17286150D01*
X11916301Y-17286150D02*
X11935349Y-17295674D01*
X11935349Y-17295674D02*
X11944873Y-17314722D01*
X11944873Y-17314722D02*
X11944873Y-17333770D01*
X11944873Y-17333770D02*
X11849634Y-17352817D01*
X12116301Y-17419484D02*
X12116301Y-17219484D01*
X12116301Y-17409960D02*
X12097254Y-17419484D01*
X12097254Y-17419484D02*
X12059158Y-17419484D01*
X12059158Y-17419484D02*
X12040111Y-17409960D01*
X12040111Y-17409960D02*
X12030587Y-17400436D01*
X12030587Y-17400436D02*
X12021063Y-17381389D01*
X12021063Y-17381389D02*
X12021063Y-17324246D01*
X12021063Y-17324246D02*
X12030587Y-17305198D01*
X12030587Y-17305198D02*
X12040111Y-17295674D01*
X12040111Y-17295674D02*
X12059158Y-17286150D01*
X12059158Y-17286150D02*
X12097254Y-17286150D01*
X12097254Y-17286150D02*
X12116301Y-17295674D01*
X12192492Y-17495674D02*
X12202015Y-17486150D01*
X12202015Y-17486150D02*
X12221063Y-17457579D01*
X12221063Y-17457579D02*
X12230587Y-17438531D01*
X12230587Y-17438531D02*
X12240111Y-17409960D01*
X12240111Y-17409960D02*
X12249634Y-17362341D01*
X12249634Y-17362341D02*
X12249634Y-17324246D01*
X12249634Y-17324246D02*
X12240111Y-17276627D01*
X12240111Y-17276627D02*
X12230587Y-17248055D01*
X12230587Y-17248055D02*
X12221063Y-17229008D01*
X12221063Y-17229008D02*
X12202015Y-17200436D01*
X12202015Y-17200436D02*
X12192492Y-17190912D01*
M02*
