G04 #@! TF.GenerationSoftware,KiCad,Pcbnew,8.0.4*
G04 #@! TF.CreationDate,2024-08-20T13:39:42+02:00*
G04 #@! TF.ProjectId,lagom,6c61676f-6d2e-46b6-9963-61645f706362,rev?*
G04 #@! TF.SameCoordinates,Original*
G04 #@! TF.FileFunction,Soldermask,Top*
G04 #@! TF.FilePolarity,Negative*
%FSLAX46Y46*%
G04 Gerber Fmt 4.6, Leading zero omitted, Abs format (unit mm)*
G04 Created by KiCad (PCBNEW 8.0.4) date 2024-08-20 13:39:42*
%MOMM*%
%LPD*%
G01*
G04 APERTURE LIST*
G04 Aperture macros list*
%AMRoundRect*
0 Rectangle with rounded corners*
0 $1 Rounding radius*
0 $2 $3 $4 $5 $6 $7 $8 $9 X,Y pos of 4 corners*
0 Add a 4 corners polygon primitive as box body*
4,1,4,$2,$3,$4,$5,$6,$7,$8,$9,$2,$3,0*
0 Add four circle primitives for the rounded corners*
1,1,$1+$1,$2,$3*
1,1,$1+$1,$4,$5*
1,1,$1+$1,$6,$7*
1,1,$1+$1,$8,$9*
0 Add four rect primitives between the rounded corners*
20,1,$1+$1,$2,$3,$4,$5,0*
20,1,$1+$1,$4,$5,$6,$7,0*
20,1,$1+$1,$6,$7,$8,$9,0*
20,1,$1+$1,$8,$9,$2,$3,0*%
G04 Aperture macros list end*
%ADD10C,1.700000*%
%ADD11C,4.000000*%
%ADD12RoundRect,0.250000X0.250000X0.475000X-0.250000X0.475000X-0.250000X-0.475000X0.250000X-0.475000X0*%
%ADD13C,3.050000*%
%ADD14RoundRect,0.250000X0.600000X-0.400000X0.600000X0.400000X-0.600000X0.400000X-0.600000X-0.400000X0*%
%ADD15RoundRect,0.150000X-0.825000X-0.150000X0.825000X-0.150000X0.825000X0.150000X-0.825000X0.150000X0*%
%ADD16R,1.700000X1.700000*%
%ADD17O,1.700000X1.700000*%
%ADD18RoundRect,0.250000X-0.625000X0.312500X-0.625000X-0.312500X0.625000X-0.312500X0.625000X0.312500X0*%
%ADD19RoundRect,0.250000X-0.625000X0.375000X-0.625000X-0.375000X0.625000X-0.375000X0.625000X0.375000X0*%
%ADD20RoundRect,0.250000X0.625000X-0.375000X0.625000X0.375000X-0.625000X0.375000X-0.625000X-0.375000X0*%
%ADD21R,2.000000X2.000000*%
%ADD22C,2.000000*%
%ADD23R,2.000000X3.200000*%
%ADD24R,2.250000X2.250000*%
%ADD25C,2.250000*%
%ADD26RoundRect,0.250000X-0.625000X0.350000X-0.625000X-0.350000X0.625000X-0.350000X0.625000X0.350000X0*%
%ADD27O,1.750000X1.200000*%
%ADD28R,1.752600X1.752600*%
%ADD29C,1.752600*%
G04 APERTURE END LIST*
D10*
X267080000Y-71580000D03*
D11*
X272160000Y-71580000D03*
D10*
X277240000Y-71580000D03*
X324380000Y-147980000D03*
D11*
X329460000Y-147980000D03*
D10*
X334540000Y-147980000D03*
D12*
X107650000Y-43600000D03*
X105750000Y-43600000D03*
D10*
X142930000Y-90680000D03*
D11*
X148010000Y-90680000D03*
D10*
X153090000Y-90680000D03*
D13*
X308010000Y-64580000D03*
D11*
X308010000Y-79820000D03*
D10*
X314830000Y-71580000D03*
D11*
X319910000Y-71580000D03*
D10*
X324990000Y-71580000D03*
D13*
X331810000Y-64580000D03*
D11*
X331810000Y-79820000D03*
D10*
X185905000Y-109780000D03*
D11*
X190985000Y-109780000D03*
D10*
X196065000Y-109780000D03*
X104730000Y-90680000D03*
D11*
X109810000Y-90680000D03*
D10*
X114890000Y-90680000D03*
X298117500Y-128880000D03*
D11*
X303197500Y-128880000D03*
D10*
X308277500Y-128880000D03*
D14*
X250672500Y-49912500D03*
X250672500Y-46412500D03*
D15*
X104225000Y-45655000D03*
X104225000Y-46925000D03*
X104225000Y-48195000D03*
X104225000Y-49465000D03*
X104225000Y-50735000D03*
X104225000Y-52005000D03*
X104225000Y-53275000D03*
X104225000Y-54545000D03*
X109175000Y-54545000D03*
X109175000Y-53275000D03*
X109175000Y-52005000D03*
X109175000Y-50735000D03*
X109175000Y-49465000D03*
X109175000Y-48195000D03*
X109175000Y-46925000D03*
X109175000Y-45655000D03*
D10*
X343480000Y-109780000D03*
D11*
X348560000Y-109780000D03*
D10*
X353640000Y-109780000D03*
D16*
X315160000Y-47400000D03*
D17*
X315160000Y-49940000D03*
X315160000Y-52480000D03*
X315160000Y-55020000D03*
D14*
X284097500Y-59462500D03*
X284097500Y-55962500D03*
X219635000Y-57075000D03*
X219635000Y-53575000D03*
X207697500Y-52300000D03*
X207697500Y-48800000D03*
D10*
X99955000Y-128880000D03*
D11*
X105035000Y-128880000D03*
D10*
X110115000Y-128880000D03*
D14*
X157560000Y-54687500D03*
X157560000Y-51187500D03*
X210085000Y-54687500D03*
X210085000Y-51187500D03*
D10*
X281405000Y-109780000D03*
D11*
X286485000Y-109780000D03*
D10*
X291565000Y-109780000D03*
D15*
X92525000Y-45655000D03*
X92525000Y-46925000D03*
X92525000Y-48195000D03*
X92525000Y-49465000D03*
X92525000Y-50735000D03*
X92525000Y-52005000D03*
X92525000Y-53275000D03*
X92525000Y-54545000D03*
X97475000Y-54545000D03*
X97475000Y-53275000D03*
X97475000Y-52005000D03*
X97475000Y-50735000D03*
X97475000Y-49465000D03*
X97475000Y-48195000D03*
X97475000Y-46925000D03*
X97475000Y-45655000D03*
D14*
X243510000Y-54687500D03*
X243510000Y-51187500D03*
X281710000Y-57075000D03*
X281710000Y-53575000D03*
D10*
X157255000Y-128880000D03*
D11*
X162335000Y-128880000D03*
D10*
X167415000Y-128880000D03*
X162030000Y-90680000D03*
D11*
X167110000Y-90680000D03*
D10*
X172190000Y-90680000D03*
X56980000Y-71580000D03*
D11*
X62060000Y-71580000D03*
D10*
X67140000Y-71580000D03*
X114280000Y-71580000D03*
D11*
X119360000Y-71580000D03*
D10*
X124440000Y-71580000D03*
D14*
X257835000Y-57075000D03*
X257835000Y-53575000D03*
X248285000Y-49912500D03*
X248285000Y-46412500D03*
X167110000Y-54687500D03*
X167110000Y-51187500D03*
D10*
X295730000Y-90680000D03*
D11*
X300810000Y-90680000D03*
D10*
X305890000Y-90680000D03*
X128605000Y-109780000D03*
D11*
X133685000Y-109780000D03*
D10*
X138765000Y-109780000D03*
D14*
X119360000Y-52300000D03*
X119360000Y-48800000D03*
X121747500Y-54687500D03*
X121747500Y-51187500D03*
D10*
X147705000Y-109780000D03*
D11*
X152785000Y-109780000D03*
D10*
X157865000Y-109780000D03*
D11*
X133728750Y-139740000D03*
D13*
X133728750Y-154980000D03*
D10*
X140548750Y-147980000D03*
D11*
X145628750Y-147980000D03*
D10*
X150708750Y-147980000D03*
D11*
X157528750Y-139740000D03*
D13*
X157528750Y-154980000D03*
D10*
X152480000Y-71580000D03*
D11*
X157560000Y-71580000D03*
D10*
X162640000Y-71580000D03*
D14*
X152785000Y-59462500D03*
X152785000Y-55962500D03*
D10*
X107123750Y-147980000D03*
D11*
X112203750Y-147980000D03*
D10*
X117283750Y-147980000D03*
X228880000Y-71580000D03*
D11*
X233960000Y-71580000D03*
D10*
X239040000Y-71580000D03*
D14*
X169497500Y-57075000D03*
X169497500Y-53575000D03*
D10*
X59367500Y-128880000D03*
D11*
X64447500Y-128880000D03*
D10*
X69527500Y-128880000D03*
X76080000Y-71580000D03*
D11*
X81160000Y-71580000D03*
D10*
X86240000Y-71580000D03*
D14*
X179047500Y-54687500D03*
X179047500Y-51187500D03*
X183822500Y-49912500D03*
X183822500Y-46412500D03*
D10*
X181130000Y-90680000D03*
D11*
X186210000Y-90680000D03*
D10*
X191290000Y-90680000D03*
D14*
X150397500Y-59462500D03*
X150397500Y-55962500D03*
X195760000Y-59462500D03*
X195760000Y-55962500D03*
D10*
X171580000Y-71580000D03*
D11*
X176660000Y-71580000D03*
D10*
X181740000Y-71580000D03*
D14*
X267385000Y-54687500D03*
X267385000Y-51187500D03*
X272160000Y-49912500D03*
X272160000Y-46412500D03*
X176660000Y-57075000D03*
X176660000Y-53575000D03*
D18*
X291500000Y-51437500D03*
X291500000Y-54362500D03*
D10*
X343480000Y-128880000D03*
D11*
X348560000Y-128880000D03*
D10*
X353640000Y-128880000D03*
X166805000Y-109780000D03*
D11*
X171885000Y-109780000D03*
D10*
X176965000Y-109780000D03*
D14*
X241122500Y-57075000D03*
X241122500Y-53575000D03*
X138460000Y-49912500D03*
X138460000Y-46412500D03*
D11*
X133828750Y-139740000D03*
D13*
X133828750Y-154980000D03*
D10*
X178748750Y-147980000D03*
D11*
X183828750Y-147980000D03*
D10*
X188908750Y-147980000D03*
D11*
X233828750Y-139740000D03*
D13*
X233828750Y-154980000D03*
D10*
X252755000Y-128880000D03*
D11*
X257835000Y-128880000D03*
D10*
X262915000Y-128880000D03*
D19*
X294000000Y-49000000D03*
X294000000Y-51800000D03*
D10*
X286180000Y-71580000D03*
D11*
X291260000Y-71580000D03*
D10*
X296340000Y-71580000D03*
D14*
X231572500Y-54687500D03*
X231572500Y-51187500D03*
D10*
X176355000Y-128880000D03*
D11*
X181435000Y-128880000D03*
D10*
X186515000Y-128880000D03*
D14*
X145622500Y-54687500D03*
X145622500Y-51187500D03*
X205310000Y-49912500D03*
X205310000Y-46412500D03*
X143235000Y-52300000D03*
X143235000Y-48800000D03*
X198147500Y-57075000D03*
X198147500Y-53575000D03*
D10*
X324380000Y-128880000D03*
D11*
X329460000Y-128880000D03*
D10*
X334540000Y-128880000D03*
X305280000Y-147980000D03*
D11*
X310360000Y-147980000D03*
D10*
X315440000Y-147980000D03*
X250367500Y-147980000D03*
D11*
X255447500Y-147980000D03*
D10*
X260527500Y-147980000D03*
D14*
X264997500Y-57075000D03*
X264997500Y-53575000D03*
D10*
X133380000Y-71580000D03*
D11*
X138460000Y-71580000D03*
D10*
X143540000Y-71580000D03*
X80855000Y-128880000D03*
D11*
X85935000Y-128880000D03*
D10*
X91015000Y-128880000D03*
X243205000Y-109780000D03*
D11*
X248285000Y-109780000D03*
D10*
X253365000Y-109780000D03*
D14*
X200535000Y-54687500D03*
X200535000Y-51187500D03*
X255447500Y-54687500D03*
X255447500Y-51187500D03*
X186210000Y-52300000D03*
X186210000Y-48800000D03*
D10*
X83242500Y-147980000D03*
D11*
X88322500Y-147980000D03*
D10*
X93402500Y-147980000D03*
D14*
X190985000Y-57075000D03*
X190985000Y-53575000D03*
D10*
X233655000Y-128880000D03*
D11*
X238735000Y-128880000D03*
D10*
X243815000Y-128880000D03*
D14*
X171885000Y-59462500D03*
X171885000Y-55962500D03*
X274547500Y-49912500D03*
X274547500Y-46412500D03*
D10*
X300505000Y-109780000D03*
D11*
X305585000Y-109780000D03*
D10*
X310665000Y-109780000D03*
X343480000Y-71580000D03*
D11*
X348560000Y-71580000D03*
D10*
X353640000Y-71580000D03*
D14*
X162335000Y-49912500D03*
X162335000Y-46412500D03*
X217247500Y-59462500D03*
X217247500Y-55962500D03*
D10*
X138155000Y-128880000D03*
D11*
X143235000Y-128880000D03*
D10*
X148315000Y-128880000D03*
D13*
X320072500Y-88330000D03*
X320072500Y-112130000D03*
D10*
X321992500Y-100230000D03*
D11*
X327072500Y-100230000D03*
D10*
X332152500Y-100230000D03*
D11*
X335312500Y-88330000D03*
X335312500Y-112130000D03*
D14*
X133685000Y-54687500D03*
X133685000Y-51187500D03*
X224410000Y-52300000D03*
X224410000Y-48800000D03*
D10*
X247980000Y-71580000D03*
D11*
X253060000Y-71580000D03*
D10*
X258140000Y-71580000D03*
X95180000Y-71580000D03*
D11*
X100260000Y-71580000D03*
D10*
X105340000Y-71580000D03*
D20*
X289000000Y-56700000D03*
X289000000Y-53900000D03*
D14*
X229185000Y-52300000D03*
X229185000Y-48800000D03*
D10*
X90405000Y-109780000D03*
D11*
X95485000Y-109780000D03*
D10*
X100565000Y-109780000D03*
X214555000Y-128880000D03*
D11*
X219635000Y-128880000D03*
D10*
X224715000Y-128880000D03*
X190680000Y-71580000D03*
D11*
X195760000Y-71580000D03*
D10*
X200840000Y-71580000D03*
D14*
X260222500Y-59462500D03*
X260222500Y-55962500D03*
D21*
X332000000Y-42700000D03*
D22*
X327000000Y-42700000D03*
X329500000Y-42700000D03*
D23*
X335100000Y-50200000D03*
X323900000Y-50200000D03*
D22*
X327000000Y-57200000D03*
X332000000Y-57200000D03*
D21*
X351000000Y-42700000D03*
D22*
X346000000Y-42700000D03*
X348500000Y-42700000D03*
D23*
X354100000Y-50200000D03*
X342900000Y-50200000D03*
D22*
X346000000Y-57200000D03*
X351000000Y-57200000D03*
D14*
X202922500Y-52300000D03*
X202922500Y-48800000D03*
X126522500Y-59462500D03*
X126522500Y-55962500D03*
D24*
X62700000Y-46850000D03*
D25*
X62700000Y-53350000D03*
D10*
X119055000Y-128880000D03*
D11*
X124135000Y-128880000D03*
D10*
X129215000Y-128880000D03*
X209780000Y-71580000D03*
D11*
X214860000Y-71580000D03*
D10*
X219940000Y-71580000D03*
D18*
X296500000Y-46637500D03*
X296500000Y-49562500D03*
D14*
X214860000Y-59462500D03*
X214860000Y-55962500D03*
X148010000Y-57075000D03*
X148010000Y-53575000D03*
D10*
X276630000Y-90680000D03*
D11*
X281710000Y-90680000D03*
D10*
X286790000Y-90680000D03*
X257530000Y-90680000D03*
D11*
X262610000Y-90680000D03*
D10*
X267690000Y-90680000D03*
D14*
X131297500Y-57075000D03*
X131297500Y-53575000D03*
D10*
X205005000Y-109780000D03*
D11*
X210085000Y-109780000D03*
D10*
X215165000Y-109780000D03*
X224105000Y-109780000D03*
D11*
X229185000Y-109780000D03*
D10*
X234265000Y-109780000D03*
X200230000Y-90680000D03*
D11*
X205310000Y-90680000D03*
D10*
X210390000Y-90680000D03*
X343480000Y-90680000D03*
D11*
X348560000Y-90680000D03*
D10*
X353640000Y-90680000D03*
X274242500Y-147980000D03*
D11*
X279322500Y-147980000D03*
D10*
X284402500Y-147980000D03*
D14*
X159947500Y-52300000D03*
X159947500Y-48800000D03*
D10*
X271855000Y-128880000D03*
D11*
X276935000Y-128880000D03*
D10*
X282015000Y-128880000D03*
X219330000Y-90680000D03*
D11*
X224410000Y-90680000D03*
D10*
X229490000Y-90680000D03*
D14*
X276935000Y-52300000D03*
X276935000Y-48800000D03*
X116972500Y-49912500D03*
X116972500Y-46412500D03*
D10*
X123830000Y-90680000D03*
D11*
X128910000Y-90680000D03*
D10*
X133990000Y-90680000D03*
D14*
X233960000Y-57075000D03*
X233960000Y-53575000D03*
X279322500Y-54687500D03*
X279322500Y-51187500D03*
X193372500Y-59462500D03*
X193372500Y-55962500D03*
X164722500Y-52300000D03*
X164722500Y-48800000D03*
X286485000Y-59462500D03*
X286485000Y-55962500D03*
D10*
X343480000Y-147980000D03*
D11*
X348560000Y-147980000D03*
D10*
X353640000Y-147980000D03*
X262305000Y-109780000D03*
D11*
X267385000Y-109780000D03*
D10*
X272465000Y-109780000D03*
D14*
X222022500Y-54687500D03*
X222022500Y-51187500D03*
X262610000Y-59462500D03*
X262610000Y-55962500D03*
X128910000Y-59462500D03*
X128910000Y-55962500D03*
D12*
X95950000Y-43600000D03*
X94050000Y-43600000D03*
D10*
X238430000Y-90680000D03*
D11*
X243510000Y-90680000D03*
D10*
X248590000Y-90680000D03*
X184127500Y-147980000D03*
D11*
X179047500Y-147980000D03*
D10*
X173967500Y-147980000D03*
X195455000Y-128880000D03*
D11*
X200535000Y-128880000D03*
D10*
X205615000Y-128880000D03*
D14*
X236347500Y-59462500D03*
X236347500Y-55962500D03*
X253060000Y-52300000D03*
X253060000Y-48800000D03*
D10*
X61755000Y-90680000D03*
D11*
X66835000Y-90680000D03*
D10*
X71915000Y-90680000D03*
X59367500Y-147980000D03*
D11*
X64447500Y-147980000D03*
D10*
X69527500Y-147980000D03*
D14*
X136072500Y-52300000D03*
X136072500Y-48800000D03*
X269772500Y-52300000D03*
X269772500Y-48800000D03*
X181435000Y-52300000D03*
X181435000Y-48800000D03*
X155172500Y-57075000D03*
X155172500Y-53575000D03*
X226797500Y-49912500D03*
X226797500Y-46412500D03*
X212472500Y-57075000D03*
X212472500Y-53575000D03*
X238735000Y-59462500D03*
X238735000Y-55962500D03*
D10*
X64142500Y-109780000D03*
D11*
X69222500Y-109780000D03*
D10*
X74302500Y-109780000D03*
D14*
X140847500Y-49912500D03*
X140847500Y-46412500D03*
X188597500Y-54687500D03*
X188597500Y-51187500D03*
X174272500Y-59462500D03*
X174272500Y-55962500D03*
D11*
X205353750Y-139740000D03*
D13*
X205353750Y-154980000D03*
D10*
X212173750Y-147980000D03*
D11*
X217253750Y-147980000D03*
D10*
X222333750Y-147980000D03*
D11*
X229153750Y-139740000D03*
D13*
X229153750Y-154980000D03*
D10*
X85630000Y-90680000D03*
D11*
X90710000Y-90680000D03*
D10*
X95790000Y-90680000D03*
D14*
X124135000Y-57075000D03*
X124135000Y-53575000D03*
D10*
X109505000Y-109780000D03*
D11*
X114585000Y-109780000D03*
D10*
X119665000Y-109780000D03*
D14*
X245897500Y-52300000D03*
X245897500Y-48800000D03*
D16*
X58200000Y-52600000D03*
D17*
X58200000Y-50060000D03*
X58200000Y-47520000D03*
D26*
X73350000Y-49100000D03*
D27*
X73350000Y-51100000D03*
D28*
X57640000Y-42243900D03*
D29*
X60180000Y-42701100D03*
X62720000Y-42243900D03*
X65260000Y-42701100D03*
X67800000Y-42243900D03*
X70340000Y-42701100D03*
X72880000Y-42243900D03*
X75420000Y-42701100D03*
X77960000Y-42243900D03*
X80500000Y-42701100D03*
X83040000Y-42243900D03*
X85580000Y-42701100D03*
X85580000Y-57483900D03*
X83040000Y-57941100D03*
X80500000Y-57483900D03*
X77960000Y-57941100D03*
X75420000Y-57483900D03*
X72880000Y-57941100D03*
X70340000Y-57483900D03*
X67800000Y-57941100D03*
X65260000Y-57483900D03*
X62720000Y-57941100D03*
X60180000Y-57483900D03*
X57640000Y-57941100D03*
D16*
X81160000Y-107240000D03*
D17*
X81160000Y-109780000D03*
X81160000Y-112320000D03*
M02*
