M48
; DRILL file {KiCad 8.0.4} date 2024-08-20T13:39:48+0200
; FORMAT={-:-/ absolute / metric / decimal}
; #@! TF.CreationDate,2024-08-20T13:39:48+02:00
; #@! TF.GenerationSoftware,Kicad,Pcbnew,8.0.4
; #@! TF.FileFunction,NonPlated,1,2,NPTH
FMAT,2
METRIC
; #@! TA.AperFunction,NonPlated,NPTH,ComponentDrill
T1C1.700
; #@! TA.AperFunction,NonPlated,NPTH,ComponentDrill
T2C3.000
; #@! TA.AperFunction,NonPlated,NPTH,ComponentDrill
T3C3.050
; #@! TA.AperFunction,NonPlated,NPTH,ComponentDrill
T4C4.000
%
G90
G05
T1
X56.98Y-71.58
X59.367Y-128.88
X59.367Y-147.98
X61.755Y-90.68
X64.142Y-109.78
X67.14Y-71.58
X69.528Y-128.88
X69.528Y-147.98
X71.915Y-90.68
X74.302Y-109.78
X76.08Y-71.58
X80.855Y-128.88
X83.242Y-147.98
X85.63Y-90.68
X86.24Y-71.58
X90.405Y-109.78
X91.015Y-128.88
X93.402Y-147.98
X95.18Y-71.58
X95.79Y-90.68
X99.955Y-128.88
X100.565Y-109.78
X104.73Y-90.68
X105.34Y-71.58
X107.124Y-147.98
X109.505Y-109.78
X110.115Y-128.88
X114.28Y-71.58
X114.89Y-90.68
X117.284Y-147.98
X119.055Y-128.88
X119.665Y-109.78
X123.83Y-90.68
X124.44Y-71.58
X128.605Y-109.78
X129.215Y-128.88
X133.38Y-71.58
X133.99Y-90.68
X138.155Y-128.88
X138.765Y-109.78
X140.549Y-147.98
X142.93Y-90.68
X143.54Y-71.58
X147.705Y-109.78
X148.315Y-128.88
X150.709Y-147.98
X152.48Y-71.58
X153.09Y-90.68
X157.255Y-128.88
X157.865Y-109.78
X162.03Y-90.68
X162.64Y-71.58
X166.805Y-109.78
X167.415Y-128.88
X171.58Y-71.58
X172.19Y-90.68
X173.968Y-147.98
X176.355Y-128.88
X176.965Y-109.78
X178.749Y-147.98
X181.13Y-90.68
X181.74Y-71.58
X184.127Y-147.98
X185.905Y-109.78
X186.515Y-128.88
X188.909Y-147.98
X190.68Y-71.58
X191.29Y-90.68
X195.455Y-128.88
X196.065Y-109.78
X200.23Y-90.68
X200.84Y-71.58
X205.005Y-109.78
X205.615Y-128.88
X209.78Y-71.58
X210.39Y-90.68
X212.174Y-147.98
X214.555Y-128.88
X215.165Y-109.78
X219.33Y-90.68
X219.94Y-71.58
X222.334Y-147.98
X224.105Y-109.78
X224.715Y-128.88
X228.88Y-71.58
X229.49Y-90.68
X233.655Y-128.88
X234.265Y-109.78
X238.43Y-90.68
X239.04Y-71.58
X243.205Y-109.78
X243.815Y-128.88
X247.98Y-71.58
X248.59Y-90.68
X250.367Y-147.98
X252.755Y-128.88
X253.365Y-109.78
X257.53Y-90.68
X258.14Y-71.58
X260.527Y-147.98
X262.305Y-109.78
X262.915Y-128.88
X267.08Y-71.58
X267.69Y-90.68
X271.855Y-128.88
X272.465Y-109.78
X274.243Y-147.98
X276.63Y-90.68
X277.24Y-71.58
X281.405Y-109.78
X282.015Y-128.88
X284.402Y-147.98
X286.18Y-71.58
X286.79Y-90.68
X291.565Y-109.78
X295.73Y-90.68
X296.34Y-71.58
X298.118Y-128.88
X300.505Y-109.78
X305.28Y-147.98
X305.89Y-90.68
X308.277Y-128.88
X310.665Y-109.78
X314.83Y-71.58
X315.44Y-147.98
X321.993Y-100.23
X324.38Y-128.88
X324.38Y-147.98
X324.99Y-71.58
X332.152Y-100.23
X334.54Y-128.88
X334.54Y-147.98
X343.48Y-71.58
X343.48Y-90.68
X343.48Y-109.78
X343.48Y-128.88
X343.48Y-147.98
X353.64Y-71.58
X353.64Y-90.68
X353.64Y-109.78
X353.64Y-128.88
X353.64Y-147.98
T2
X58.25Y-69.04
X60.637Y-126.34
X60.637Y-145.44
X63.025Y-88.14
X64.6Y-66.5
X65.412Y-107.24
X66.987Y-123.8
X66.987Y-142.9
X69.375Y-85.6
X71.763Y-104.7
X77.35Y-69.04
X82.125Y-126.34
X83.7Y-66.5
X84.513Y-145.44
X86.9Y-88.14
X88.475Y-123.8
X90.862Y-142.9
X91.675Y-107.24
X93.25Y-85.6
X96.45Y-69.04
X98.025Y-104.7
X101.225Y-126.34
X102.8Y-66.5
X106.0Y-88.14
X107.575Y-123.8
X108.394Y-145.44
X110.775Y-107.24
X112.35Y-85.6
X114.744Y-142.9
X115.55Y-69.04
X117.125Y-104.7
X120.325Y-126.34
X121.9Y-66.5
X125.1Y-88.14
X126.675Y-123.8
X129.875Y-107.24
X131.45Y-85.6
X134.65Y-69.04
X136.225Y-104.7
X139.425Y-126.34
X141.0Y-66.5
X141.819Y-145.44
X144.2Y-88.14
X145.775Y-123.8
X148.169Y-142.9
X148.975Y-107.24
X150.55Y-85.6
X153.75Y-69.04
X155.325Y-104.7
X158.525Y-126.34
X160.1Y-66.5
X163.3Y-88.14
X164.875Y-123.8
X168.075Y-107.24
X169.65Y-85.6
X172.85Y-69.04
X174.425Y-104.7
X176.507Y-153.06
X177.625Y-126.34
X179.2Y-66.5
X180.019Y-145.44
X182.4Y-88.14
X182.857Y-150.52
X183.975Y-123.8
X186.369Y-142.9
X187.175Y-107.24
X188.75Y-85.6
X191.95Y-69.04
X193.525Y-104.7
X196.725Y-126.34
X198.3Y-66.5
X201.5Y-88.14
X203.075Y-123.8
X206.275Y-107.24
X207.85Y-85.6
X211.05Y-69.04
X212.625Y-104.7
X213.444Y-145.44
X215.825Y-126.34
X217.4Y-66.5
X219.794Y-142.9
X220.6Y-88.14
X222.175Y-123.8
X225.375Y-107.24
X226.95Y-85.6
X230.15Y-69.04
X231.725Y-104.7
X234.925Y-126.34
X236.5Y-66.5
X239.7Y-88.14
X241.275Y-123.8
X244.475Y-107.24
X246.05Y-85.6
X249.25Y-69.04
X250.825Y-104.7
X251.637Y-145.44
X254.025Y-126.34
X255.6Y-66.5
X257.988Y-142.9
X258.8Y-88.14
X260.375Y-123.8
X263.575Y-107.24
X265.15Y-85.6
X268.35Y-69.04
X269.925Y-104.7
X273.125Y-126.34
X274.7Y-66.5
X275.512Y-145.44
X277.9Y-88.14
X279.475Y-123.8
X281.863Y-142.9
X282.675Y-107.24
X284.25Y-85.6
X287.45Y-69.04
X289.025Y-104.7
X293.8Y-66.5
X297.0Y-88.14
X299.387Y-126.34
X301.775Y-107.24
X303.35Y-85.6
X305.738Y-123.8
X306.55Y-145.44
X308.125Y-104.7
X312.9Y-142.9
X316.1Y-69.04
X322.45Y-66.5
X323.262Y-97.69
X325.65Y-126.34
X325.65Y-145.44
X329.613Y-95.15
X332.0Y-123.8
X332.0Y-142.9
X344.75Y-69.04
X344.75Y-88.14
X344.75Y-107.24
X344.75Y-126.34
X344.75Y-145.44
X351.1Y-66.5
X351.1Y-85.6
X351.1Y-104.7
X351.1Y-123.8
X351.1Y-142.9
T3
X133.729Y-154.98
X133.829Y-154.98
X157.529Y-154.98
X205.354Y-154.98
X229.154Y-154.98
X233.829Y-154.98
X308.01Y-64.58
X320.072Y-88.33
X320.072Y-112.13
X331.81Y-64.58
T4
X62.06Y-71.58
X64.447Y-128.88
X64.447Y-147.98
X66.835Y-90.68
X69.222Y-109.78
X81.16Y-71.58
X85.935Y-128.88
X88.322Y-147.98
X90.71Y-90.68
X95.485Y-109.78
X100.26Y-71.58
X105.035Y-128.88
X109.81Y-90.68
X112.204Y-147.98
X114.585Y-109.78
X119.36Y-71.58
X124.135Y-128.88
X128.91Y-90.68
X133.685Y-109.78
X133.729Y-139.74
X133.829Y-139.74
X138.46Y-71.58
X143.235Y-128.88
X145.629Y-147.98
X148.01Y-90.68
X152.785Y-109.78
X157.529Y-139.74
X157.56Y-71.58
X162.335Y-128.88
X167.11Y-90.68
X171.885Y-109.78
X176.66Y-71.58
X179.047Y-147.98
X181.435Y-128.88
X183.829Y-147.98
X186.21Y-90.68
X190.985Y-109.78
X195.76Y-71.58
X200.535Y-128.88
X205.31Y-90.68
X205.354Y-139.74
X210.085Y-109.78
X214.86Y-71.58
X217.254Y-147.98
X219.635Y-128.88
X224.41Y-90.68
X229.154Y-139.74
X229.185Y-109.78
X233.829Y-139.74
X233.96Y-71.58
X238.735Y-128.88
X243.51Y-90.68
X248.285Y-109.78
X253.06Y-71.58
X255.447Y-147.98
X257.835Y-128.88
X262.61Y-90.68
X267.385Y-109.78
X272.16Y-71.58
X276.935Y-128.88
X279.322Y-147.98
X281.71Y-90.68
X286.485Y-109.78
X291.26Y-71.58
X300.81Y-90.68
X303.197Y-128.88
X305.585Y-109.78
X308.01Y-79.82
X310.36Y-147.98
X319.91Y-71.58
X327.072Y-100.23
X329.46Y-128.88
X329.46Y-147.98
X331.81Y-79.82
X335.312Y-88.33
X335.312Y-112.13
X348.56Y-71.58
X348.56Y-90.68
X348.56Y-109.78
X348.56Y-128.88
X348.56Y-147.98
M30
